<svg width="25" height="24" viewBox="0 0 25 24" fill="none" xmlns="http://www.w3.org/2000/svg">
	<path d="M24.2864 9.26594L23.0782 6.80905C22.958 6.56692 22.7728 6.36302 22.5434 6.22015C22.3139 6.07728 22.0492 6.00108 21.7789 6.00009H19.862V5.25682C19.9244 5.20576 19.9747 5.14149 20.0092 5.06864C20.0437 4.99579 20.0616 4.91619 20.0616 4.83558V3.92006C20.0614 3.72026 19.982 3.52869 19.8407 3.3874C19.6994 3.2461 19.5079 3.16662 19.3081 3.16639H18.4453C18.2286 3.16664 18.0209 3.25282 17.8676 3.40603C17.7144 3.55923 17.6283 3.76696 17.628 3.98363V3.99558C17.6283 4.16573 17.6854 4.33091 17.7902 4.46491C17.8951 4.59891 18.0417 4.69405 18.2068 4.73523V5.19402C18.207 5.32043 18.2471 5.44354 18.3214 5.54579C18.3957 5.64805 18.5004 5.72422 18.6206 5.76345V6.00056L16.7585 6.00102H16.753C16.4647 6.00782 16.1851 6.10088 15.9502 6.26818C15.7153 6.43548 15.5359 6.66936 15.4352 6.93961L14.5152 9.39319L12.1804 11.332L9.89894 9.39432L8.97826 6.93955C8.87887 6.6729 8.70283 6.4416 8.47229 6.27475C8.24176 6.10791 7.96703 6.01298 7.68267 6.0019C7.67357 6.00061 5.79288 6.00004 5.79288 6.00004V5.76345C5.91304 5.72422 6.01775 5.64805 6.09206 5.54579C6.16636 5.44354 6.20648 5.32043 6.20668 5.19402V4.73523C6.37176 4.69404 6.51837 4.5989 6.62322 4.4649C6.72808 4.3309 6.78518 4.16573 6.78547 3.99558V3.37329C6.78547 3.33236 6.77333 3.29236 6.7506 3.25833C6.72786 3.2243 6.69554 3.19778 6.65773 3.18212C6.61992 3.16647 6.57832 3.16237 6.53818 3.17036C6.49804 3.17835 6.46118 3.19807 6.43224 3.22701L6.29838 3.36087L6.25819 3.28065C6.241 3.24632 6.21459 3.21744 6.18193 3.19727C6.14926 3.17709 6.11162 3.1664 6.07323 3.16639C6.03479 3.16641 5.99713 3.17713 5.96445 3.19736C5.93177 3.21759 5.90537 3.24652 5.88821 3.28091L5.82485 3.40789L5.6778 3.30998C5.54941 3.22422 5.40015 3.17495 5.24595 3.16742C5.09174 3.15989 4.93839 3.19438 4.80226 3.26721C4.66613 3.34005 4.55234 3.44849 4.47304 3.58095C4.39374 3.71341 4.35191 3.86493 4.35201 4.01932V4.83558C4.35201 4.91619 4.36993 4.9958 4.40446 5.06865C4.43898 5.1415 4.48926 5.20577 4.55166 5.25682V6.00009H2.63482C2.36449 6.00111 2.09978 6.07734 1.87031 6.22025C1.64084 6.36315 1.45567 6.5671 1.33551 6.80926L0.127189 9.26615C0.0437286 9.43676 0.000231562 9.62414 0 9.81406V14.2759C0.000123212 14.3856 0.0437586 14.4908 0.121333 14.5684C0.198907 14.646 0.304085 14.6896 0.413792 14.6897H1.64482C1.75453 14.6896 1.85971 14.646 1.93728 14.5684C2.01486 14.4908 2.05849 14.3856 2.05862 14.2759V14.0989L2.18886 13.9686C2.26602 13.8908 2.30927 13.7857 2.30918 13.6761C2.3091 13.5665 2.26567 13.4614 2.18839 13.3837L2.05862 13.254V9.9548L2.48275 9.02931V16.9442L1.3756 22.2952C1.28643 22.7268 1.24146 23.1663 1.24138 23.6069V23.7932C1.24138 23.848 1.26317 23.9007 1.30197 23.9395C1.34078 23.9783 1.3934 24 1.44827 24H4.34482C4.38626 24.0001 4.42674 23.9876 4.46103 23.9643C4.49532 23.9411 4.52183 23.908 4.53713 23.8695C4.55243 23.831 4.55581 23.7888 4.54683 23.7484C4.53786 23.7079 4.51695 23.6711 4.4868 23.6426L3.7352 22.9329L4.96106 17.0073C4.96391 16.9935 4.96534 16.9795 4.96535 16.9654V15.1035H5.37914V23.7932C5.37914 23.848 5.40094 23.9007 5.43974 23.9395C5.47854 23.9783 5.53117 24 5.58604 24H8.48258C8.52351 24.0001 8.56351 23.9879 8.59754 23.9652C8.63157 23.9424 8.65809 23.9101 8.67375 23.8723C8.6894 23.8345 8.6935 23.7929 8.68551 23.7528C8.67752 23.7126 8.6578 23.6758 8.62886 23.6468L7.8619 22.8799V9.78882L7.98681 10.1457C8.06004 10.3546 8.18771 10.5402 8.35664 10.6833L11.7084 13.5979C11.8491 13.7197 12.0307 13.7836 12.2166 13.7768C12.4026 13.77 12.579 13.693 12.7105 13.5612L13.0732 13.1958C13.124 13.1514 13.1683 13.1002 13.205 13.0437L16.0543 10.6851C16.2244 10.5417 16.353 10.3553 16.4267 10.1453L16.5516 9.78841V22.8797L15.7846 23.6466C15.7556 23.6755 15.7358 23.7124 15.7278 23.7526C15.7198 23.7928 15.7238 23.8345 15.7395 23.8723C15.7552 23.9102 15.7818 23.9425 15.8159 23.9653C15.85 23.988 15.89 24.0001 15.931 24H18.8275C18.8824 24 18.935 23.9783 18.9738 23.9395C19.0126 23.9007 19.0344 23.848 19.0344 23.7932V15.1035H19.4482V16.9656C19.4482 16.9797 19.4497 16.9937 19.4525 17.0075L20.6784 22.9331L19.9268 23.6426C19.8966 23.6711 19.8757 23.7079 19.8667 23.7484C19.8578 23.7888 19.8612 23.831 19.8765 23.8696C19.8918 23.9081 19.9183 23.9411 19.9526 23.9644C19.9869 23.9876 20.0274 24.0001 20.0688 24H22.9654C23.0202 24 23.0729 23.9783 23.1117 23.9395C23.1505 23.9007 23.1723 23.848 23.1723 23.7932V23.4433C23.1723 23.1115 23.1384 22.7805 23.0713 22.4555L21.931 16.9442V9.02931L22.3551 9.9548V13.2538L22.2254 13.3835C22.1481 13.4613 22.1046 13.5665 22.1046 13.6762C22.1046 13.7859 22.1481 13.8912 22.2254 13.969L22.3551 14.0987V14.2759C22.3552 14.3856 22.3989 14.4908 22.4765 14.5684C22.554 14.646 22.6592 14.6896 22.7689 14.6897H23.9999C24.1097 14.6896 24.2148 14.646 24.2924 14.5684C24.37 14.4908 24.4136 14.3856 24.4137 14.2759V9.81422C24.4135 9.62416 24.37 9.43665 24.2864 9.26594ZM23.9999 9.81422V12.6208H22.7689V9.90965C22.7689 9.87991 22.7625 9.85051 22.7501 9.82348L22.5812 9.455L23.6829 8.9765L23.915 9.44843C23.9707 9.56226 23.9998 9.68728 23.9999 9.81401V9.81422ZM18.0419 3.99578V3.98384C18.042 3.87687 18.0845 3.77433 18.1602 3.69869C18.2358 3.62306 18.3383 3.58051 18.4453 3.58039H19.3081C19.3982 3.58051 19.4846 3.61636 19.5483 3.68008C19.612 3.74379 19.6478 3.83017 19.6479 3.92027V4.30742C19.6055 4.29717 19.5621 4.29196 19.5186 4.2919C19.4137 4.29187 19.311 4.32227 19.2231 4.37942C19.2211 4.36584 19.2201 4.35213 19.2201 4.3384C19.2201 4.30432 19.2117 4.27076 19.1956 4.24071C19.1795 4.21066 19.1562 4.18506 19.1279 4.16617C19.0995 4.14728 19.0669 4.1357 19.033 4.13245C18.999 4.1292 18.9648 4.13438 18.9334 4.14754L18.5248 4.31787C18.4823 4.33568 18.4367 4.34481 18.3907 4.34471C18.2982 4.34452 18.2095 4.30767 18.1441 4.24222C18.0787 4.17678 18.042 4.08809 18.0419 3.99558V3.99578ZM19.4454 13.1584L19.2414 13.3624L19.0374 13.1584L19.2345 7.24147C19.2354 7.21316 19.2306 7.18496 19.2202 7.15861C19.2098 7.13227 19.1941 7.10834 19.174 7.08831L19.1201 7.03457L19.2413 6.91338L19.3627 7.03457L19.3087 7.08847C19.2887 7.10847 19.273 7.13236 19.2626 7.15868C19.2521 7.185 19.2472 7.21317 19.2481 7.24147L19.4454 13.1584ZM19.4483 5.14333V6.12092L19.2414 6.32781L19.0345 6.12092V5.76764C19.0532 5.7635 19.0718 5.75926 19.0902 5.75409C19.1431 5.73932 19.1879 5.70417 19.2148 5.65635C19.2418 5.60854 19.2486 5.55199 19.2338 5.49914C19.2191 5.44629 19.1839 5.40148 19.1361 5.37455C19.0883 5.34762 19.0317 5.34079 18.9789 5.35556C18.9226 5.37124 18.8645 5.37916 18.8061 5.37909C18.7569 5.37904 18.7098 5.35949 18.6751 5.32475C18.6403 5.29001 18.6208 5.2429 18.6207 5.19376V4.72277C18.6424 4.71589 18.8668 4.62361 18.8668 4.62361C18.9131 4.72705 18.984 4.81761 19.0733 4.8874C19.0993 4.90776 19.1297 4.92163 19.1621 4.92785C19.1944 4.93408 19.2278 4.93247 19.2595 4.92317C19.2911 4.91388 19.32 4.89716 19.3439 4.87441C19.3677 4.85166 19.3858 4.82354 19.3966 4.79239C19.4058 4.76566 19.4234 4.74268 19.4469 4.72696C19.4703 4.71124 19.4983 4.70366 19.5265 4.70537C19.5547 4.70709 19.5815 4.71801 19.6029 4.73645C19.6243 4.7549 19.6391 4.77986 19.6449 4.80749C19.6471 4.81662 19.6482 4.82598 19.6482 4.83537C19.6483 4.86043 19.6411 4.88497 19.6275 4.90602C19.6139 4.92708 19.5945 4.94375 19.5716 4.95402C19.5349 4.97021 19.5037 4.99673 19.4818 5.03034C19.4599 5.06395 19.4482 5.10321 19.4482 5.14333H19.4483ZM15.8225 7.08479C15.8943 6.89219 16.022 6.72546 16.1893 6.60604C16.3566 6.48662 16.5558 6.41997 16.7613 6.41466L18.7424 6.41419L18.9489 6.62078L18.7756 6.79405L18.4865 6.68543C18.4351 6.66617 18.3782 6.6681 18.3283 6.69081C18.2783 6.71352 18.2394 6.75514 18.2201 6.80652C18.2009 6.8579 18.2028 6.91483 18.2255 6.96479C18.2482 7.01474 18.2899 7.05363 18.3412 7.0729L18.713 7.21229L18.8181 7.3174L18.655 12.207H16.9655V8.57103C16.9655 8.52216 16.9482 8.47485 16.9167 8.43751C16.8851 8.40016 16.8414 8.37518 16.7932 8.367C16.745 8.35881 16.6955 8.36795 16.6534 8.39279C16.6113 8.41763 16.5794 8.45657 16.5633 8.50271L16.3611 9.08057L15.2221 8.68622L15.8225 7.08479ZM4.76585 4.01932C4.76576 3.93984 4.78727 3.86184 4.82807 3.79363C4.86887 3.72543 4.92744 3.6696 4.99751 3.6321C5.06758 3.5946 5.14652 3.57684 5.2259 3.58072C5.30528 3.58461 5.38212 3.60999 5.44819 3.65415L5.79061 3.88225C5.83528 3.91204 5.88977 3.92329 5.94259 3.91364C5.9954 3.90399 6.0424 3.87419 6.07364 3.83053C6.09002 3.85346 6.11092 3.87281 6.13505 3.88739C6.15918 3.90196 6.18603 3.91145 6.21396 3.91527C6.24189 3.91909 6.2703 3.91716 6.29746 3.90961C6.32461 3.90205 6.34994 3.88903 6.37188 3.87134V3.99578C6.37173 4.08696 6.33594 4.17447 6.27216 4.23962C6.20838 4.30477 6.12166 4.34242 6.0305 4.34451C6.01554 4.34512 6.00054 4.34457 5.98566 4.34285C5.95211 4.33936 5.91926 4.33096 5.88816 4.31792L5.48006 4.14775C5.44862 4.13465 5.41443 4.1295 5.38053 4.13278C5.34663 4.13606 5.31407 4.14766 5.28572 4.16655C5.25738 4.18543 5.23414 4.21102 5.21806 4.24105C5.20198 4.27107 5.19357 4.3046 5.19356 4.33866C5.19356 4.35239 5.19259 4.36609 5.19066 4.37968C5.10268 4.32253 5.00002 4.29213 4.89511 4.29216C4.85155 4.29222 4.80814 4.29743 4.7658 4.30768L4.76585 4.01932ZM4.76963 4.80583C4.77591 4.77855 4.79091 4.75406 4.81234 4.73604C4.83377 4.71803 4.86049 4.70748 4.88844 4.70599C4.9164 4.70449 4.94408 4.71213 4.96732 4.72776C4.99055 4.74338 5.00807 4.76614 5.01723 4.79259C5.02802 4.82374 5.0461 4.85187 5.06995 4.87462C5.09381 4.89737 5.12276 4.91409 5.15439 4.92338C5.18602 4.93268 5.21941 4.93428 5.25178 4.92806C5.28416 4.92184 5.31458 4.90797 5.34051 4.88761C5.42978 4.8178 5.50066 4.72725 5.54699 4.62382L5.72854 4.69954C5.74975 4.70844 5.77131 4.71604 5.79309 4.72297V5.19397C5.79305 5.24313 5.77351 5.29026 5.73875 5.32503C5.704 5.35979 5.65687 5.37935 5.60771 5.3794C5.5493 5.37947 5.49116 5.37155 5.4349 5.35587C5.40873 5.34856 5.38138 5.34647 5.35441 5.34973C5.32743 5.35299 5.30136 5.36153 5.27769 5.37486C5.25402 5.38819 5.2332 5.40606 5.21643 5.42744C5.19966 5.44881 5.18727 5.47329 5.17995 5.49945C5.17264 5.52562 5.17056 5.55297 5.17381 5.57995C5.17707 5.60692 5.18561 5.63299 5.19895 5.65666C5.21228 5.68034 5.23014 5.70115 5.25152 5.71792C5.2729 5.73469 5.29737 5.74709 5.32354 5.7544C5.34195 5.75957 5.36063 5.76381 5.3793 5.76795V6.1294L5.17406 6.32988L4.96551 6.12128V5.1437C4.9655 5.10365 4.95387 5.06446 4.93202 5.0309C4.91018 4.99733 4.87907 4.97082 4.84245 4.95459C4.81958 4.94433 4.80018 4.92767 4.78658 4.90661C4.77299 4.88555 4.76579 4.861 4.76585 4.83594C4.76589 4.82579 4.76716 4.81568 4.76963 4.80583ZM5.3765 13.1584L5.17251 13.3624L4.96845 13.1584L5.16557 7.24147C5.16652 7.21316 5.16163 7.18496 5.15123 7.15861C5.14083 7.13227 5.12513 7.10834 5.10511 7.08831L5.05116 7.03457L5.1724 6.91338L5.29375 7.03457L5.2398 7.08847C5.21976 7.10847 5.20405 7.13236 5.19362 7.15868C5.18319 7.185 5.17828 7.21317 5.17918 7.24147L5.3765 13.1584ZM1.70539 13.8666C1.6666 13.9054 1.6448 13.958 1.64477 14.0129V14.2759H0.41374V12.4139H1.64477V13.3397C1.64478 13.3946 1.66659 13.4472 1.70539 13.486L1.89574 13.6765L1.70539 13.8666ZM1.6636 9.82348C1.65119 9.85051 1.64477 9.87991 1.64477 9.90965V12.0001H0.41374V9.81422C0.413883 9.68755 0.442875 9.56258 0.498516 9.44879L1.70689 6.9919C1.79267 6.81892 1.92491 6.67323 2.08879 6.57115C2.25268 6.46906 2.44174 6.41461 2.63482 6.41388H4.67275L4.87964 6.62078L4.70632 6.79405L4.41728 6.68543C4.3659 6.66617 4.30897 6.6681 4.25902 6.69081C4.20906 6.71352 4.17017 6.75514 4.1509 6.80652C4.13164 6.8579 4.13357 6.91483 4.15628 6.96479C4.17899 7.01474 4.22061 7.05363 4.27199 7.0729L4.64378 7.21229L4.74889 7.3174L4.58606 12.207H2.89655V8.08146C2.89656 8.03424 2.88042 7.98844 2.8508 7.95166C2.82119 7.91488 2.77988 7.88934 2.73375 7.87927C2.68761 7.86921 2.63942 7.87523 2.59718 7.89633C2.55494 7.91744 2.52118 7.95236 2.50153 7.99529L1.6636 9.82348ZM5.79309 23.5863V14.8966C5.79309 14.8417 5.77129 14.7891 5.73249 14.7503C5.69369 14.7115 5.64107 14.6897 5.58619 14.6897H4.75861C4.70374 14.6897 4.65111 14.7115 4.61231 14.7503C4.57351 14.7891 4.55171 14.8417 4.55171 14.8966V16.9444L3.34892 22.7587H2.23686C2.18198 22.7587 2.12936 22.7805 2.09056 22.8193C2.05176 22.8581 2.02996 22.9107 2.02996 22.9656C2.02996 23.0204 2.05176 23.0731 2.09056 23.1119C2.12936 23.1507 2.18198 23.1725 2.23686 23.1725H3.38591L3.82422 23.5863H1.65517C1.65664 23.1808 1.69873 22.7764 1.78081 22.3793L2.89225 17.0073C2.8951 16.9935 2.89654 16.9795 2.89655 16.9654V12.6208H4.5724L4.55171 13.2346C4.55077 13.2629 4.55565 13.2911 4.56605 13.3174C4.57645 13.3438 4.59215 13.3677 4.61218 13.3877L5.02597 13.8015C5.04518 13.8207 5.06799 13.836 5.09309 13.8464C5.1182 13.8568 5.1451 13.8621 5.17227 13.8621C5.19944 13.8621 5.22635 13.8568 5.25145 13.8464C5.27655 13.836 5.29936 13.8207 5.31857 13.8015L5.73237 13.3877C5.75239 13.3677 5.76809 13.3438 5.77849 13.3174C5.78889 13.2911 5.79377 13.2629 5.79283 13.2346L5.7725 12.6208H7.44836V22.7587H6.38802C6.33315 22.7587 6.28052 22.7805 6.24172 22.8193C6.20292 22.8581 6.18112 22.9107 6.18112 22.9656C6.18112 23.0204 6.20292 23.0731 6.24172 23.1119C6.28052 23.1507 6.33315 23.1725 6.38802 23.1725H7.5696L7.9834 23.5863H5.79309ZM8.37748 10.0087L7.85041 8.50302C7.83426 8.45691 7.80232 8.41801 7.76024 8.3932C7.71816 8.36839 7.66866 8.35927 7.6205 8.36745C7.57234 8.37564 7.52863 8.4006 7.49711 8.43791C7.46558 8.47523 7.44828 8.52249 7.44826 8.57134V12.207H5.75869L5.59571 7.3176L5.70081 7.2125L6.07261 7.0731C6.09805 7.06356 6.12136 7.04911 6.14122 7.03056C6.16107 7.01201 6.17707 6.98973 6.18832 6.96499C6.19956 6.94026 6.20582 6.91355 6.20675 6.88639C6.20767 6.85924 6.20323 6.83217 6.19369 6.80673C6.18415 6.78128 6.1697 6.75797 6.15115 6.73812C6.1326 6.71826 6.11032 6.70226 6.08558 6.69101C6.06085 6.67977 6.03414 6.67351 6.00698 6.67259C5.97983 6.67166 5.95276 6.6761 5.92731 6.68564L5.63828 6.79426L5.46671 6.62269L5.68018 6.41388C5.68018 6.41388 7.64455 6.41466 7.64962 6.41481C7.85553 6.41968 8.05525 6.48612 8.22305 6.60556C8.39084 6.72501 8.519 6.89198 8.591 7.08495L9.53036 9.58994C9.54267 9.62293 9.56324 9.65221 9.5901 9.67498L11.4056 11.2168L10.5661 12.0563L8.62607 10.3693C8.51249 10.2735 8.42665 10.149 8.37748 10.0087ZM12.7989 12.886C12.7942 12.8899 12.7898 12.8941 12.7855 12.8984L12.4168 13.2697C12.3595 13.3272 12.2826 13.3608 12.2015 13.3638C12.1204 13.3668 12.0412 13.3389 11.9799 13.2858L10.8789 12.3283L11.722 11.4852L12.8003 12.401C12.8355 12.4309 12.8637 12.4681 12.883 12.51C12.9023 12.5519 12.9123 12.5975 12.9122 12.6437C12.9121 12.6898 12.9019 12.7354 12.8824 12.7772C12.8629 12.819 12.8346 12.8561 12.7993 12.8858L12.7989 12.886ZM16.0363 10.0087C15.9874 10.1483 15.9021 10.2723 15.7892 10.3679L13.2942 12.4331C13.254 12.2979 13.1754 12.1772 13.068 12.0858L12.5006 11.6039L14.8218 9.67627C14.8495 9.65326 14.8707 9.62344 14.8833 9.58974L15.0768 9.07384L16.2244 9.47119L16.0363 10.0087ZM22.666 22.5394C22.7275 22.8367 22.7585 23.1395 22.7586 23.4431V23.5863H20.5895L21.0278 23.1725H22.1292C22.1841 23.1725 22.2367 23.1507 22.2755 23.1119C22.3143 23.0731 22.3361 23.0204 22.3361 22.9656C22.3361 22.9107 22.3143 22.8581 22.2755 22.8193C22.2367 22.7805 22.1841 22.7587 22.1292 22.7587H21.065L19.862 16.9444V14.8966C19.862 14.8417 19.8402 14.7891 19.8014 14.7503C19.7626 14.7115 19.71 14.6897 19.6551 14.6897H18.8275C18.7727 14.6897 18.72 14.7115 18.6812 14.7503C18.6424 14.7891 18.6206 14.8417 18.6206 14.8966V23.5863H16.4304L16.8442 23.1725H17.9913C18.0462 23.1725 18.0988 23.1507 18.1376 23.1119C18.1764 23.0731 18.1982 23.0204 18.1982 22.9656C18.1982 22.9107 18.1764 22.8581 18.1376 22.8193C18.0988 22.7805 18.0462 22.7587 17.9913 22.7587H16.9655V12.6208H18.6413L18.6206 13.2346C18.6197 13.2629 18.6246 13.2911 18.635 13.3174C18.6454 13.3438 18.6611 13.3677 18.6811 13.3877L19.0949 13.8015C19.1141 13.8207 19.1369 13.836 19.162 13.8464C19.1871 13.8568 19.214 13.8621 19.2412 13.8621C19.2684 13.8621 19.2953 13.8568 19.3204 13.8464C19.3455 13.836 19.3683 13.8207 19.3875 13.8015L19.8013 13.3877C19.8213 13.3677 19.837 13.3438 19.8474 13.3174C19.8578 13.2911 19.8627 13.2629 19.8618 13.2346L19.8411 12.6208H21.5169V16.9656C21.5169 16.9797 21.5184 16.9937 21.5212 17.0075L22.666 22.5394ZM21.9122 7.99509C21.8925 7.95218 21.8587 7.91729 21.8165 7.89621C21.7743 7.87513 21.7261 7.86912 21.68 7.87918C21.6339 7.88924 21.5926 7.91477 21.563 7.95152C21.5334 7.98828 21.5172 8.03406 21.5172 8.08126V12.207H19.8276L19.6646 7.3176L19.7697 7.2125L20.1415 7.0731C20.1929 7.05384 20.2345 7.01495 20.2573 6.96499C20.28 6.91504 20.2819 6.85811 20.2626 6.80673C20.2434 6.75535 20.2045 6.71372 20.1545 6.69101C20.1046 6.66831 20.0476 6.66637 19.9962 6.68564L19.7072 6.79426L19.5339 6.62078L19.7403 6.41435L21.7789 6.41388C21.972 6.41462 22.1611 6.46908 22.3249 6.57116C22.4888 6.67325 22.6211 6.81893 22.7068 6.9919L23.5001 8.60496L22.4088 9.07896L21.9122 7.99509ZM22.7689 14.2759V14.0131C22.7689 13.9582 22.7471 13.9056 22.7083 13.8668L22.5178 13.6759L22.7082 13.4855C22.747 13.4467 22.7688 13.3941 22.7688 13.3393V13.0346H23.9998V14.2759H22.7689Z" fill="#fff" />
	<path d="M9.93346 4.96556H14.0714C14.1263 4.96556 14.1789 4.94377 14.2177 4.90496C14.2565 4.86616 14.2783 4.81354 14.2783 4.75867V2.48281L17.0921 0.37247C17.1334 0.341486 17.1617 0.296149 17.1713 0.245379C17.1809 0.194609 17.1712 0.14208 17.144 0.0981253C17.1168 0.0541705 17.0742 0.0219716 17.0245 0.00786246C16.9748 -0.00624667 16.9216 -0.0012447 16.8754 0.0218844L14.2783 1.32042V1.03454C14.2783 0.979665 14.2565 0.92704 14.2177 0.88824C14.1789 0.849439 14.1263 0.827641 14.0714 0.827641H9.93346C9.87859 0.827641 9.82596 0.849439 9.78716 0.88824C9.74836 0.92704 9.72656 0.979665 9.72656 1.03454V4.75867C9.72656 4.81354 9.74836 4.86616 9.78716 4.90496C9.82596 4.94377 9.87859 4.96556 9.93346 4.96556ZM12.0618 3.62793L11.4118 2.54462L11.8877 2.86184C11.918 2.88208 11.9532 2.89394 11.9896 2.89621C12.026 2.89848 12.0624 2.89109 12.095 2.87477L15.0082 1.41812L12.0618 3.62793ZM10.1404 1.24143H13.8645V1.52731L12.0173 2.45095L10.8758 1.68998C10.8367 1.66392 10.7899 1.65194 10.7431 1.65601C10.6963 1.66008 10.6523 1.67996 10.6183 1.71238C10.5843 1.74481 10.5623 1.78784 10.556 1.8344C10.5497 1.88096 10.5595 1.92828 10.5836 1.96857L11.825 4.03753C11.8399 4.06237 11.8599 4.0838 11.8836 4.10044C11.9073 4.11708 11.9342 4.12855 11.9626 4.13412C11.9911 4.13969 12.0204 4.13923 12.0486 4.13276C12.0768 4.1263 12.1034 4.11398 12.1266 4.0966L13.8645 2.79315V4.55177H10.1404V1.24143Z" fill="#fff" />
</svg>
