<svg width="24" height="24" viewBox="0 0 24 24" fill="none" xmlns="http://www.w3.org/2000/svg">
<path d="M11.7325 6.35998V6.25638L11.6307 6.23715C10.9664 6.11161 10.5325 5.68453 10.5325 5.19998C10.5325 5.12704 10.5614 5.05709 10.613 5.00552C10.6646 4.95395 10.7345 4.92498 10.8075 4.92498C10.8804 4.92498 10.9504 4.95395 11.0019 5.00552C11.0535 5.05709 11.0825 5.12704 11.0825 5.19998C11.0825 5.27971 11.1195 5.35227 11.1669 5.41036C11.2155 5.46987 11.2826 5.52403 11.3622 5.56964C11.5219 5.66112 11.7437 5.72498 12.0075 5.72498C12.2713 5.72498 12.4931 5.66112 12.6528 5.56964C12.7324 5.52403 12.7994 5.46987 12.848 5.41036C12.8954 5.35227 12.9325 5.27971 12.9325 5.19998C12.9325 5.12024 12.8954 5.04768 12.848 4.9896C12.7994 4.93008 12.7324 4.87592 12.6528 4.83031C12.4931 4.73883 12.2713 4.67498 12.0075 4.67498C11.1436 4.67498 10.5325 4.17278 10.5325 3.59998C10.5325 3.11459 10.9664 2.68757 11.6305 2.56283L11.7325 2.54368V2.43998V1.99998C11.7325 1.92704 11.7614 1.85709 11.813 1.80552C11.8646 1.75395 11.9345 1.72498 12.0075 1.72498C12.0804 1.72498 12.1504 1.75395 12.2019 1.80552C12.2535 1.85709 12.2825 1.92704 12.2825 1.99998V2.43998V2.54357L12.3843 2.5628C13.0486 2.68834 13.4825 3.11543 13.4825 3.59998C13.4825 3.67291 13.4535 3.74286 13.4019 3.79443C13.3504 3.846 13.2804 3.87498 13.2075 3.87498C13.1345 3.87498 13.0646 3.846 13.013 3.79443C12.9614 3.74286 12.9325 3.67291 12.9325 3.59998C12.9325 3.52024 12.8954 3.44768 12.848 3.3896C12.7994 3.33008 12.7324 3.27592 12.6528 3.23031C12.4931 3.13883 12.2713 3.07498 12.0075 3.07498C11.7437 3.07498 11.5219 3.13883 11.3622 3.23031C11.2826 3.27592 11.2155 3.33008 11.1669 3.3896C11.1195 3.44768 11.0825 3.52024 11.0825 3.59998C11.0825 3.67971 11.1195 3.75227 11.1669 3.81036C11.2155 3.86987 11.2826 3.92403 11.3622 3.96964C11.5219 4.06112 11.7437 4.12498 12.0075 4.12498C12.8713 4.12498 13.4825 4.62717 13.4825 5.19998C13.4825 5.68536 13.0485 6.11238 12.3844 6.23712L12.2825 6.25627V6.35998V6.79998C12.2825 6.87291 12.2535 6.94286 12.2019 6.99443C12.1504 7.046 12.0804 7.07498 12.0075 7.07498C11.9345 7.07498 11.8646 7.046 11.813 6.99443C11.7614 6.94286 11.7325 6.87291 11.7325 6.79998V6.35998Z" fill="#fff" stroke="white" stroke-width="0.25"/>
<path d="M14.0074 8.125H18.4074C18.4804 8.125 18.5503 8.15397 18.6019 8.20555C18.6534 8.25712 18.6824 8.32707 18.6824 8.4C18.6824 8.47293 18.6534 8.54288 18.6019 8.59445C18.5503 8.64603 18.4804 8.675 18.4074 8.675H14.0074C13.9345 8.675 13.8645 8.64603 13.813 8.59445C13.7614 8.54288 13.7324 8.47293 13.7324 8.4C13.7324 8.32707 13.7614 8.25712 13.813 8.20555C13.8645 8.15397 13.9345 8.125 14.0074 8.125Z" fill="#fff" stroke="white" stroke-width="0.25"/>
<path d="M16.8075 9.72498H18.4075C18.4804 9.72498 18.5504 9.75395 18.6019 9.80552C18.6535 9.85709 18.6825 9.92704 18.6825 9.99998C18.6825 10.0729 18.6535 10.1429 18.6019 10.1944C18.5504 10.246 18.4804 10.275 18.4075 10.275H16.8075C16.7345 10.275 16.6646 10.246 16.613 10.1944C16.5614 10.1429 16.5325 10.0729 16.5325 9.99998C16.5325 9.92704 16.5614 9.85709 16.613 9.80552C16.6646 9.75395 16.7345 9.72498 16.8075 9.72498Z" fill="#fff" stroke="white" stroke-width="0.25"/>
<mask id="path-4-inside-1_13_2175" fill="white">
<path d="M22.8072 14.4H20.4072V3.6C20.4064 3.49396 20.3649 3.39227 20.2912 3.316L17.0912 0.116C17.0149 0.0423217 16.9132 0.000789715 16.8072 0H4.00719C3.9011 0 3.79936 0.0421427 3.72435 0.117157C3.64933 0.192172 3.60719 0.293913 3.60719 0.4V9.312L0.207191 11.252C0.130134 11.2957 0.0697482 11.3637 0.0355034 11.4454C0.00125854 11.527 -0.00490846 11.6178 0.0179694 11.7033C0.0408473 11.7889 0.0914762 11.8644 0.161916 11.9181C0.232357 11.9718 0.318624 12.0006 0.407191 12H0.807191V13.2C0.807191 13.3061 0.849334 13.4078 0.924349 13.4828C0.999363 13.5579 1.1011 13.6 1.20719 13.6H1.60719V18.4H1.20719C1.1011 18.4 0.999363 18.4421 0.924349 18.5172C0.849334 18.5922 0.807191 18.6939 0.807191 18.8V20H0.407191C0.301105 20 0.199363 20.0421 0.124349 20.1172C0.049334 20.1922 0.00719127 20.2939 0.00719127 20.4V22C0.00719127 22.1061 0.049334 22.2078 0.124349 22.2828C0.199363 22.3579 0.301105 22.4 0.407191 22.4H9.60719V22.8C9.60814 23.118 9.73487 23.4226 9.95971 23.6475C10.1845 23.8723 10.4892 23.9991 10.8072 24H22.8072C23.1252 23.9991 23.4298 23.8723 23.6547 23.6475C23.8795 23.4226 24.0062 23.118 24.0072 22.8V15.6C24.0062 15.282 23.8795 14.9774 23.6547 14.7525C23.4298 14.5277 23.1252 14.4009 22.8072 14.4ZM17.2072 1.364L19.0432 3.2H17.2072V1.364ZM4.40719 0.8H16.4072V3.6C16.4072 3.70609 16.4493 3.80783 16.5243 3.88284C16.5994 3.95786 16.7011 4 16.8072 4H19.6072V14.4H16.0072V13.6H16.4072C16.5133 13.6 16.615 13.5579 16.69 13.4828C16.765 13.4078 16.8072 13.3061 16.8072 13.2V12H17.2072C17.2958 12.0006 17.382 11.9718 17.4525 11.9181C17.5229 11.8644 17.5735 11.7889 17.5964 11.7033C17.6193 11.6178 17.6131 11.527 17.5789 11.4454C17.5446 11.3637 17.4842 11.2957 17.4072 11.252L9.00719 6.452C8.94584 6.41853 8.87708 6.40099 8.80719 6.40099C8.73731 6.40099 8.66854 6.41853 8.60719 6.452L4.40719 8.852V0.8ZM8.80719 7.26L15.6992 11.2H1.91519L8.80719 7.26ZM1.60719 12H16.0072V12.8H1.60719V12ZM9.60719 21.6H0.807191V20.8H9.60719V21.6ZM9.60719 20H1.60719V19.2H9.60719V20ZM4.00719 18.4V16C4.00719 15.7878 4.09148 15.5843 4.24151 15.4343C4.39153 15.2843 4.59502 15.2 4.80719 15.2C5.01936 15.2 5.22285 15.2843 5.37288 15.4343C5.52291 15.5843 5.60719 15.7878 5.60719 16V18.4H4.00719ZM9.60719 18.4H8.00719V16C8.00719 15.7878 8.09148 15.5843 8.24151 15.4343C8.39153 15.2843 8.59502 15.2 8.80719 15.2C9.01936 15.2 9.22285 15.2843 9.37288 15.4343C9.52291 15.5843 9.60719 15.7878 9.60719 16V18.4ZM9.89119 14.832C9.66419 14.6188 9.37968 14.4767 9.07282 14.4235C8.76596 14.3702 8.45022 14.4081 8.16465 14.5323C7.87907 14.6566 7.63618 14.8619 7.46602 15.1227C7.29585 15.3836 7.20586 15.6886 7.20719 16V18.4H6.40719V16C6.40719 15.5757 6.23862 15.1687 5.93856 14.8686C5.6385 14.5686 5.23154 14.4 4.80719 14.4C4.38284 14.4 3.97588 14.5686 3.67582 14.8686C3.37576 15.1687 3.20719 15.5757 3.20719 16V18.4H2.40719V13.6H15.2072V14.4H10.8072C10.6323 14.4014 10.4599 14.4408 10.3017 14.5154C10.1436 14.59 10.0035 14.698 9.89119 14.832ZM23.2072 22.8C23.2072 22.9061 23.165 23.0078 23.09 23.0828C23.015 23.1579 22.9133 23.2 22.8072 23.2H10.8072C10.7011 23.2 10.5994 23.1579 10.5243 23.0828C10.4493 23.0078 10.4072 22.9061 10.4072 22.8V18.4H23.2072V22.8ZM23.2072 17.6H10.4072V16.8H23.2072V17.6ZM23.2072 16H10.4072V15.6C10.4072 15.4939 10.4493 15.3922 10.5243 15.3172C10.5994 15.2421 10.7011 15.2 10.8072 15.2H22.8072C22.9133 15.2 23.015 15.2421 23.09 15.3172C23.165 15.3922 23.2072 15.4939 23.2072 15.6V16Z"/>
</mask>
<path d="M22.8072 14.4H20.4072V3.6C20.4064 3.49396 20.3649 3.39227 20.2912 3.316L17.0912 0.116C17.0149 0.0423217 16.9132 0.000789715 16.8072 0H4.00719C3.9011 0 3.79936 0.0421427 3.72435 0.117157C3.64933 0.192172 3.60719 0.293913 3.60719 0.4V9.312L0.207191 11.252C0.130134 11.2957 0.0697482 11.3637 0.0355034 11.4454C0.00125854 11.527 -0.00490846 11.6178 0.0179694 11.7033C0.0408473 11.7889 0.0914762 11.8644 0.161916 11.9181C0.232357 11.9718 0.318624 12.0006 0.407191 12H0.807191V13.2C0.807191 13.3061 0.849334 13.4078 0.924349 13.4828C0.999363 13.5579 1.1011 13.6 1.20719 13.6H1.60719V18.4H1.20719C1.1011 18.4 0.999363 18.4421 0.924349 18.5172C0.849334 18.5922 0.807191 18.6939 0.807191 18.8V20H0.407191C0.301105 20 0.199363 20.0421 0.124349 20.1172C0.049334 20.1922 0.00719127 20.2939 0.00719127 20.4V22C0.00719127 22.1061 0.049334 22.2078 0.124349 22.2828C0.199363 22.3579 0.301105 22.4 0.407191 22.4H9.60719V22.8C9.60814 23.118 9.73487 23.4226 9.95971 23.6475C10.1845 23.8723 10.4892 23.9991 10.8072 24H22.8072C23.1252 23.9991 23.4298 23.8723 23.6547 23.6475C23.8795 23.4226 24.0062 23.118 24.0072 22.8V15.6C24.0062 15.282 23.8795 14.9774 23.6547 14.7525C23.4298 14.5277 23.1252 14.4009 22.8072 14.4ZM17.2072 1.364L19.0432 3.2H17.2072V1.364ZM4.40719 0.8H16.4072V3.6C16.4072 3.70609 16.4493 3.80783 16.5243 3.88284C16.5994 3.95786 16.7011 4 16.8072 4H19.6072V14.4H16.0072V13.6H16.4072C16.5133 13.6 16.615 13.5579 16.69 13.4828C16.765 13.4078 16.8072 13.3061 16.8072 13.2V12H17.2072C17.2958 12.0006 17.382 11.9718 17.4525 11.9181C17.5229 11.8644 17.5735 11.7889 17.5964 11.7033C17.6193 11.6178 17.6131 11.527 17.5789 11.4454C17.5446 11.3637 17.4842 11.2957 17.4072 11.252L9.00719 6.452C8.94584 6.41853 8.87708 6.40099 8.80719 6.40099C8.73731 6.40099 8.66854 6.41853 8.60719 6.452L4.40719 8.852V0.8ZM8.80719 7.26L15.6992 11.2H1.91519L8.80719 7.26ZM1.60719 12H16.0072V12.8H1.60719V12ZM9.60719 21.6H0.807191V20.8H9.60719V21.6ZM9.60719 20H1.60719V19.2H9.60719V20ZM4.00719 18.4V16C4.00719 15.7878 4.09148 15.5843 4.24151 15.4343C4.39153 15.2843 4.59502 15.2 4.80719 15.2C5.01936 15.2 5.22285 15.2843 5.37288 15.4343C5.52291 15.5843 5.60719 15.7878 5.60719 16V18.4H4.00719ZM9.60719 18.4H8.00719V16C8.00719 15.7878 8.09148 15.5843 8.24151 15.4343C8.39153 15.2843 8.59502 15.2 8.80719 15.2C9.01936 15.2 9.22285 15.2843 9.37288 15.4343C9.52291 15.5843 9.60719 15.7878 9.60719 16V18.4ZM9.89119 14.832C9.66419 14.6188 9.37968 14.4767 9.07282 14.4235C8.76596 14.3702 8.45022 14.4081 8.16465 14.5323C7.87907 14.6566 7.63618 14.8619 7.46602 15.1227C7.29585 15.3836 7.20586 15.6886 7.20719 16V18.4H6.40719V16C6.40719 15.5757 6.23862 15.1687 5.93856 14.8686C5.6385 14.5686 5.23154 14.4 4.80719 14.4C4.38284 14.4 3.97588 14.5686 3.67582 14.8686C3.37576 15.1687 3.20719 15.5757 3.20719 16V18.4H2.40719V13.6H15.2072V14.4H10.8072C10.6323 14.4014 10.4599 14.4408 10.3017 14.5154C10.1436 14.59 10.0035 14.698 9.89119 14.832ZM23.2072 22.8C23.2072 22.9061 23.165 23.0078 23.09 23.0828C23.015 23.1579 22.9133 23.2 22.8072 23.2H10.8072C10.7011 23.2 10.5994 23.1579 10.5243 23.0828C10.4493 23.0078 10.4072 22.9061 10.4072 22.8V18.4H23.2072V22.8ZM23.2072 17.6H10.4072V16.8H23.2072V17.6ZM23.2072 16H10.4072V15.6C10.4072 15.4939 10.4493 15.3922 10.5243 15.3172C10.5994 15.2421 10.7011 15.2 10.8072 15.2H22.8072C22.9133 15.2 23.015 15.2421 23.09 15.3172C23.165 15.3922 23.2072 15.4939 23.2072 15.6V16Z" fill="#fff" stroke="white" stroke-width="0.5" mask="url(#path-4-inside-1_13_2175)"/>
<path d="M12.8073 21.725H12.9323V21.6V20.8V20.675H12.8073H12.0073H11.8823V20.8V21.6V21.725H12.0073H12.8073ZM11.6073 20.125H13.2073C13.2802 20.125 13.3502 20.154 13.4017 20.2055C13.4533 20.2571 13.4823 20.3271 13.4823 20.4V22C13.4823 22.0729 13.4533 22.1429 13.4017 22.1945C13.3502 22.246 13.2802 22.275 13.2073 22.275H11.6073C11.5343 22.275 11.4644 22.246 11.4128 22.1945C11.3612 22.1429 11.3323 22.0729 11.3323 22V20.4C11.3323 20.3271 11.3612 20.2571 11.4128 20.2055C11.4644 20.154 11.5343 20.125 11.6073 20.125Z" fill="#fff" stroke="white" stroke-width="0.25"/>
<path d="M16.0075 21.725H16.1325V21.6V20.8V20.675H16.0075H15.2075H15.0825V20.8V21.6V21.725H15.2075H16.0075ZM14.8075 20.125H16.4075C16.4804 20.125 16.5504 20.154 16.6019 20.2055C16.6535 20.2571 16.6825 20.3271 16.6825 20.4V22C16.6825 22.0729 16.6535 22.1429 16.6019 22.1945C16.5504 22.246 16.4804 22.275 16.4075 22.275H14.8075C14.7345 22.275 14.6646 22.246 14.613 22.1945C14.5614 22.1429 14.5325 22.0729 14.5325 22V20.4C14.5325 20.3271 14.5614 20.2571 14.613 20.2055C14.6646 20.154 14.7345 20.125 14.8075 20.125Z" fill="#fff" stroke="white" stroke-width="0.25"/>
<path d="M21.6074 21.725H21.7324V21.6V20.8V20.675H21.6074H18.4074H18.2824V20.8V21.6V21.725H18.4074H21.6074ZM18.0074 20.125H22.0074C22.0804 20.125 22.1503 20.154 22.2019 20.2055C22.2534 20.2571 22.2824 20.3271 22.2824 20.4V22C22.2824 22.0729 22.2534 22.1429 22.2019 22.1945C22.1503 22.246 22.0804 22.275 22.0074 22.275H18.0074C17.9345 22.275 17.8645 22.246 17.813 22.1945C17.7614 22.1429 17.7324 22.0729 17.7324 22V20.4C17.7324 20.3271 17.7614 20.2571 17.813 20.2055C17.8645 20.154 17.9345 20.125 18.0074 20.125Z" fill="#fff" stroke="white" stroke-width="0.25"/>
<path d="M18.4074 7.07502H14.0074C13.9345 7.07502 13.8645 7.04605 13.813 6.99448C13.7614 6.94291 13.7324 6.87296 13.7324 6.80002C13.7324 6.72709 13.7614 6.65714 13.813 6.60557C13.8645 6.554 13.9345 6.52502 14.0074 6.52502H18.4074C18.4804 6.52502 18.5503 6.554 18.6019 6.60557C18.6534 6.65714 18.6824 6.72709 18.6824 6.80002C18.6824 6.87296 18.6534 6.94291 18.6019 6.99448C18.5503 7.04605 18.4804 7.07502 18.4074 7.07502Z" fill="#fff" stroke="white" stroke-width="0.25"/>
<path d="M18.4075 5.47505H14.8075C14.7345 5.47505 14.6646 5.44608 14.613 5.3945C14.5614 5.34293 14.5325 5.27298 14.5325 5.20005C14.5325 5.12711 14.5614 5.05717 14.613 5.00559C14.6646 4.95402 14.7345 4.92505 14.8075 4.92505H18.4075C18.4804 4.92505 18.5504 4.95402 18.6019 5.00559C18.6535 5.05717 18.6825 5.12711 18.6825 5.20005C18.6825 5.27298 18.6535 5.34293 18.6019 5.3945C18.5504 5.44608 18.4804 5.47505 18.4075 5.47505Z" fill="#fff" stroke="white" stroke-width="0.25"/>
<path d="M9.40173 5.00559C9.4533 5.05717 9.48228 5.12711 9.48228 5.20005C9.48228 5.27298 9.4533 5.34293 9.40173 5.3945C9.35016 5.44608 9.28021 5.47505 9.20728 5.47505H5.60728C5.53434 5.47505 5.46439 5.44608 5.41282 5.3945C5.36125 5.34293 5.33228 5.27298 5.33228 5.20005C5.33228 5.12711 5.36125 5.05717 5.41282 5.00559C5.46439 4.95402 5.53434 4.92505 5.60728 4.92505H9.20728C9.28021 4.92505 9.35016 4.95402 9.40173 5.00559Z" fill="#fff" stroke="white" stroke-width="0.25"/>
<path d="M9.20728 3.87495H5.60728C5.53434 3.87495 5.46439 3.84598 5.41282 3.79441C5.36125 3.74283 5.33228 3.67289 5.33228 3.59995C5.33228 3.52702 5.36125 3.45707 5.41282 3.4055C5.46439 3.35392 5.53434 3.32495 5.60728 3.32495H9.20728C9.28021 3.32495 9.35016 3.35392 9.40173 3.4055C9.4533 3.45707 9.48228 3.52702 9.48228 3.59995C9.48228 3.67289 9.4533 3.74283 9.40173 3.79441C9.35016 3.84598 9.28021 3.87495 9.20728 3.87495Z" fill="#fff" stroke="white" stroke-width="0.25"/>
<path d="M15.2075 3.87495H14.8075C14.7345 3.87495 14.6646 3.84598 14.613 3.79441C14.5614 3.74283 14.5325 3.67289 14.5325 3.59995C14.5325 3.52702 14.5614 3.45707 14.613 3.4055C14.6646 3.35392 14.7345 3.32495 14.8075 3.32495H15.2075C15.2804 3.32495 15.3504 3.35392 15.4019 3.4055C15.4535 3.45707 15.4825 3.52702 15.4825 3.59995C15.4825 3.67289 15.4535 3.74283 15.4019 3.79441C15.3504 3.84598 15.2804 3.87495 15.2075 3.87495Z" fill="#fff" stroke="white" stroke-width="0.25"/>
<path d="M8.21018 8.70619C8.38697 8.58807 8.59481 8.52502 8.80742 8.52502C9.09253 8.52502 9.36596 8.63828 9.56756 8.83988C9.76916 9.04149 9.88242 9.31492 9.88242 9.60002C9.88242 9.81264 9.81938 10.0205 9.70125 10.1973C9.58313 10.374 9.41524 10.5118 9.21881 10.5932C9.02238 10.6746 8.80623 10.6958 8.5977 10.6544C8.38917 10.6129 8.19762 10.5105 8.04728 10.3602C7.89694 10.2098 7.79456 10.0183 7.75308 9.80975C7.7116 9.60122 7.73289 9.38507 7.81425 9.18864C7.89562 8.99221 8.0334 8.82432 8.21018 8.70619ZM8.51575 10.0365C8.60208 10.0942 8.70359 10.125 8.80742 10.125C8.94666 10.125 9.0802 10.0697 9.17865 9.97126C9.27711 9.8728 9.33242 9.73926 9.33242 9.60002C9.33242 9.49619 9.30163 9.39469 9.24394 9.30835C9.18626 9.22201 9.10426 9.15472 9.00833 9.11499C8.9124 9.07525 8.80684 9.06485 8.705 9.08511C8.60316 9.10537 8.50961 9.15537 8.43619 9.22879C8.36277 9.30222 8.31277 9.39576 8.29251 9.4976C8.27225 9.59944 8.28265 9.705 8.32239 9.80093C8.36212 9.89686 8.42941 9.97886 8.51575 10.0365Z" fill="#fff" stroke="white" stroke-width="0.25"/>
</svg>
