<svg width="24" height="25" viewBox="0 0 24 25" fill="none" xmlns="http://www.w3.org/2000/svg">
<path d="M8.625 6.25H15.375" stroke="#C59363" stroke-width="0.5" stroke-miterlimit="10"/>
<path d="M9.75 6.25V10.75" stroke="#C59363" stroke-width="0.5" stroke-miterlimit="10" stroke-linecap="round"/>
<path d="M14.25 6.25V11.5" stroke="#C59363" stroke-width="0.5" stroke-miterlimit="10" stroke-linecap="round"/>
<path d="M13.125 1.75H22.875C23.0739 1.75 23.2647 1.82902 23.4053 1.96967C23.546 2.11032 23.625 2.30109 23.625 2.5C23.625 2.69891 23.546 2.88968 23.4053 3.03033C23.2647 3.17098 23.0739 3.25 22.875 3.25H13.125" stroke="#C59363" stroke-width="0.5" stroke-miterlimit="10"/>
<path d="M4.3125 7.75C4.93382 7.75 5.4375 7.24632 5.4375 6.625C5.4375 6.00368 4.93382 5.5 4.3125 5.5C3.69118 5.5 3.1875 6.00368 3.1875 6.625C3.1875 7.24632 3.69118 7.75 4.3125 7.75Z" stroke="#C59363" stroke-width="0.5" stroke-miterlimit="10"/>
<path d="M4.3125 5.6875V1.65625" stroke="#C59363" stroke-width="0.5" stroke-miterlimit="10"/>
<path d="M0.375 11.5V12.625C1.33543 13.5854 2.63806 14.125 3.99632 14.125H4.62868C5.30122 14.125 5.96718 13.9925 6.58853 13.7352C7.20987 13.4778 7.77444 13.1006 8.25 12.625V11.5H0.375Z" stroke="#C59363" stroke-width="0.5" stroke-miterlimit="10"/>
<path d="M4.875 7.9375L7.5 11.5" stroke="#C59363" stroke-width="0.5" stroke-miterlimit="10" stroke-linecap="round"/>
<path d="M1.125 11.5L3.75 7.9375" stroke="#C59363" stroke-width="0.5" stroke-miterlimit="10" stroke-linecap="round"/>
<path d="M10.5 1.75H1.125C0.926088 1.75 0.735322 1.82902 0.59467 1.96967C0.454018 2.11032 0.375 2.30109 0.375 2.5C0.375 2.69891 0.454018 2.88968 0.59467 3.03033C0.735322 3.17098 0.926088 3.25 1.125 3.25H10.5" stroke="#C59363" stroke-width="0.5" stroke-miterlimit="10"/>
<path d="M12 4C12.8284 4 13.5 3.32843 13.5 2.5C13.5 1.67157 12.8284 1 12 1C11.1716 1 10.5 1.67157 10.5 2.5C10.5 3.32843 11.1716 4 12 4Z" stroke="#C59363" stroke-width="0.5" stroke-miterlimit="10"/>
<path d="M8.625 4.75H15.375" stroke="#C59363" stroke-width="0.5" stroke-miterlimit="10"/>
<path d="M12.3578 21.578L13.0747 22.0324C13.3421 22.2019 13.5312 22.4706 13.6005 22.7795C13.6697 23.0884 13.6134 23.4121 13.444 23.6795C13.2745 23.9469 13.0058 24.136 12.6969 24.2052C12.388 24.2745 12.0643 24.2182 11.7969 24.0487L11.2297 23.7145" stroke="#C59363" stroke-width="0.5" stroke-miterlimit="10"/>
<path d="M13.6355 19.5616L15.5285 20.7614C15.7959 20.9308 15.985 21.1996 16.0543 21.5084C16.1235 21.8173 16.0672 22.1411 15.8977 22.4084C15.7283 22.6758 15.4596 22.8649 15.1507 22.9342C14.8418 23.0034 14.518 22.9471 14.2507 22.7777L12.3577 21.578" stroke="#C59363" stroke-width="0.5" stroke-miterlimit="10"/>
<path d="M14.9136 17.5454L17.9826 19.4905C18.25 19.6599 18.4391 19.9286 18.5084 20.2375C18.5776 20.5464 18.5213 20.8702 18.3519 21.1375C18.1824 21.4049 17.9137 21.594 17.6048 21.6633C17.2959 21.7325 16.9722 21.6762 16.7048 21.5068L13.6357 19.5617" stroke="#C59363" stroke-width="0.5" stroke-miterlimit="10"/>
<path d="M14.9136 17.5454L19.1096 20.2121C19.3466 20.3688 19.6305 20.4386 19.9131 20.4097C20.1958 20.3809 20.4597 20.2551 20.6601 20.0538C20.7832 19.9246 20.876 19.7697 20.9317 19.6002C20.9874 19.4307 21.0047 19.2509 20.9822 19.0739C20.9597 18.8969 20.8981 18.7271 20.8017 18.577C20.7054 18.4268 20.5768 18.3 20.4253 18.2057L14.3656 14.4282C13.9884 14.1931 13.5431 14.0916 13.1013 14.1402C12.6596 14.1887 12.2469 14.3845 11.9298 14.6959L11.1196 15.4915C10.918 15.6993 10.6512 15.8316 10.3638 15.8663C10.0763 15.901 9.78569 15.836 9.54041 15.6822C9.38459 15.581 9.25343 15.4462 9.15658 15.2877C9.05974 15.1292 8.99967 14.9509 8.9808 14.7661C8.96192 14.5813 8.98472 14.3946 9.04753 14.2198C9.11033 14.0449 9.21153 13.8864 9.34369 13.7558L10.8501 12.2663C11.3467 11.7754 12.0168 11.5 12.7151 11.5H14.6251" stroke="#C59363" stroke-width="0.5" stroke-miterlimit="10"/>
<path d="M20.3054 17.875C20.6162 17.5314 20.9955 17.2568 21.419 17.0689C21.8424 16.8809 22.3005 16.7838 22.7638 16.7838H24" stroke="#C59363" stroke-width="0.5" stroke-miterlimit="10"/>
<path d="M5.63654 21.6496C5.37611 21.4834 5.19239 21.2205 5.12578 20.9188C5.05918 20.6171 5.11515 20.3013 5.28139 20.0409L5.82731 19.1856C5.99404 18.9263 6.25677 18.7436 6.55794 18.6776C6.85911 18.6116 7.17415 18.6678 7.43403 18.8336C7.69391 18.9995 7.87743 19.2617 7.94438 19.5626C8.01132 19.8636 7.95624 20.1788 7.79119 20.4392L7.24526 21.2945C7.07903 21.5549 6.81615 21.7386 6.51446 21.8052C6.21276 21.8718 5.89697 21.8159 5.63654 21.6496Z" stroke="#C59363" stroke-width="0.5" stroke-miterlimit="10"/>
<path d="M7.60041 22.9033C7.33998 22.7371 7.15626 22.4742 7.08965 22.1725C7.02305 21.8708 7.07902 21.555 7.24525 21.2946L8.13264 19.9044C8.29932 19.645 8.56206 19.4622 8.86328 19.3962C9.1645 19.3301 9.4796 19.3862 9.73953 19.5521C9.99946 19.7181 10.183 19.9803 10.2499 20.2813C10.3168 20.5823 10.2617 20.8976 10.0965 21.158L9.20913 22.5482C9.0429 22.8086 8.78002 22.9923 8.47833 23.0589C8.17663 23.1256 7.86084 23.0696 7.60041 22.9033Z" stroke="#C59363" stroke-width="0.5" stroke-miterlimit="10"/>
<path d="M0 16.75H0.822233C1.38959 16.75 1.95059 16.8694 2.46878 17.1004C2.98697 17.3314 3.45074 17.6689 3.82996 18.0909L4.09307 18.3731" stroke="#C59363" stroke-width="0.5" stroke-miterlimit="10"/>
<path d="M19.6875 7.75C20.3088 7.75 20.8125 7.24632 20.8125 6.625C20.8125 6.00368 20.3088 5.5 19.6875 5.5C19.0662 5.5 18.5625 6.00368 18.5625 6.625C18.5625 7.24632 19.0662 7.75 19.6875 7.75Z" stroke="#C59363" stroke-width="0.5" stroke-miterlimit="10"/>
<path d="M19.6875 5.6875V1.65625" stroke="#C59363" stroke-width="0.5" stroke-miterlimit="10"/>
<path d="M15.75 11.5V12.625C16.7104 13.5854 18.0131 14.125 19.3713 14.125H20.0037C20.6762 14.125 21.3422 13.9925 21.9635 13.7352C22.5849 13.4778 23.1494 13.1006 23.625 12.625V11.5H15.75Z" stroke="#C59363" stroke-width="0.5" stroke-miterlimit="10"/>
<path d="M20.25 7.9375L22.875 11.5" stroke="#C59363" stroke-width="0.5" stroke-miterlimit="10" stroke-linecap="round"/>
<path d="M16.5 11.5L19.125 7.9375" stroke="#C59363" stroke-width="0.5" stroke-miterlimit="10" stroke-linecap="round"/>
<path d="M4.3125 20.5C4.93382 20.5 5.4375 19.9963 5.4375 19.375C5.4375 18.7537 4.93382 18.25 4.3125 18.25C3.69118 18.25 3.1875 18.7537 3.1875 19.375C3.1875 19.9963 3.69118 20.5 4.3125 20.5Z" stroke="#C59363" stroke-width="0.5" stroke-miterlimit="10"/>
<path d="M10.3125 24.25C10.9338 24.25 11.4375 23.7463 11.4375 23.125C11.4375 22.5037 10.9338 22 10.3125 22C9.69118 22 9.1875 22.5037 9.1875 23.125C9.1875 23.7463 9.69118 24.25 10.3125 24.25Z" stroke="#C59363" stroke-width="0.5" stroke-miterlimit="10"/>
</svg>
