<svg width="26" height="24" viewBox="0 0 26 24" fill="none" xmlns="http://www.w3.org/2000/svg">
	<path d="M7.70243 15.8696H6.84659C6.67636 15.8696 6.51309 15.802 6.39272 15.6816C6.27234 15.5612 6.20472 15.3979 6.20472 15.2277C6.20472 15.0575 6.27234 14.8942 6.39272 14.7738C6.51309 14.6534 6.67636 14.5858 6.84659 14.5858H8.55827V13.73H7.70243V12.8741H6.84659V13.73C6.44937 13.73 6.06842 13.8878 5.78755 14.1687C5.50667 14.4495 5.34888 14.8305 5.34888 15.2277C5.34888 15.6249 5.50667 16.0059 5.78755 16.2867C6.06842 16.5676 6.44937 16.7254 6.84659 16.7254H7.70243C7.87267 16.7254 8.03593 16.793 8.15631 16.9134C8.27668 17.0338 8.34431 17.1971 8.34431 17.3673C8.34431 17.5375 8.27668 17.7008 8.15631 17.8212C8.03593 17.9416 7.87267 18.0092 7.70243 18.0092H5.56284V18.865H6.84659V19.5469H7.70243V18.865C8.09965 18.865 8.4806 18.7072 8.76148 18.4263C9.04236 18.1455 9.20015 17.7645 9.20015 17.3673C9.20015 16.9701 9.04236 16.5891 8.76148 16.3083C8.4806 16.0274 8.09965 15.8696 7.70243 15.8696Z" fill="#fff" />
	<path d="M25.2472 18.0091H24.8181C25.0971 17.6393 25.2477 17.1886 25.2472 16.7254V15.4416C25.2472 15.3281 25.2022 15.2193 25.1219 15.139C25.0417 15.0588 24.9328 15.0137 24.8193 15.0137H21.396C21.2825 15.0137 21.1736 15.0588 21.0934 15.139C21.0131 15.2193 20.9681 15.3281 20.968 15.4416V16.7254C20.9677 16.9907 20.8853 17.2495 20.732 17.4662C20.5788 17.6828 20.3623 17.8468 20.1122 17.9355V12.1193L20.6279 11.088L21.9598 12.3311L22.5438 11.7054L21.027 10.2897L21.0713 10.2011C21.2542 9.83531 21.2972 9.41535 21.1922 9.02011C21.0873 8.62488 20.8416 8.28159 20.5013 8.05476L19.6843 7.51007V7.04156C19.6843 6.75308 19.5838 6.47361 19.4001 6.25118C19.2164 6.02874 18.961 5.87723 18.6777 5.82268C18.3944 5.76812 18.101 5.81393 17.8479 5.95224C17.5947 6.09054 17.3976 6.31271 17.2905 6.58055L17.2259 6.74203L16.4638 6.03076C17.0163 5.21029 17.2335 4.20941 17.071 3.23373C16.9085 2.25805 16.3785 1.38165 15.5899 0.784562C14.8013 0.187477 13.814 -0.0849575 12.8308 0.0232245C11.8477 0.131406 10.9432 0.61199 10.3033 1.36625C9.66343 2.12051 9.33668 3.09118 9.39018 4.07886C9.44369 5.06654 9.87339 5.99623 10.591 6.67695C11.3086 7.35768 12.2597 7.73775 13.2488 7.73909C14.2379 7.74043 15.19 7.36293 15.9095 6.68416L16.8849 7.59452L15.8636 10.1477C15.8434 10.1982 15.833 10.2521 15.833 10.3066V18.0091H13.6934V14.1579C13.692 13.0805 13.2847 12.0433 12.5527 11.2528C11.8207 10.4623 10.8177 9.97665 9.74367 9.8926C10.0902 9.22768 10.2708 8.48885 10.2701 7.73907C10.2701 7.62558 10.225 7.51674 10.1447 7.43649C10.0645 7.35624 9.95564 7.31115 9.84215 7.31115H4.70712C4.59363 7.31115 4.48479 7.35624 4.40454 7.43649C4.32429 7.51674 4.2792 7.62558 4.2792 7.73907C4.27852 8.48885 4.45911 9.22768 4.80558 9.8926C3.73152 9.97666 2.72856 10.4623 1.99656 11.2528C1.26456 12.0433 0.857269 13.0805 0.855846 14.1579V20.8273L0.553241 21.1299C0.377291 21.3049 0.237797 21.5131 0.142834 21.7423C0.0478712 21.9716 -0.000674461 22.2174 7.07773e-06 22.4656V23.5721C8.21262e-06 23.6856 0.0450927 23.7944 0.125343 23.8747C0.205593 23.9549 0.314435 24 0.427926 24H25.2472C25.3607 24 25.4696 23.9549 25.5498 23.8747C25.6301 23.7944 25.6752 23.6856 25.6752 23.5721V18.4371C25.6752 18.3236 25.6301 18.2147 25.5498 18.1345C25.4696 18.0542 25.3607 18.0091 25.2472 18.0091ZM13.2655 6.88323C12.6731 6.88323 12.0939 6.70755 11.6013 6.37841C11.1087 6.04927 10.7248 5.58144 10.4981 5.0341C10.2714 4.48676 10.212 3.88447 10.3276 3.30342C10.4432 2.72236 10.7285 2.18862 11.1474 1.7697C11.5663 1.35079 12.1001 1.0655 12.6811 0.949918C13.2622 0.834338 13.8645 0.893658 14.4118 1.12038C14.9592 1.34709 15.427 1.73103 15.7561 2.22362C16.0853 2.71622 16.2609 3.29536 16.2609 3.8878C16.26 4.68196 15.9442 5.44334 15.3826 6.0049C14.821 6.56646 14.0597 6.88234 13.2655 6.88323ZM21.8239 16.7254V15.8695H24.3914V16.7254C24.391 17.0657 24.2556 17.392 24.015 17.6327C23.7743 17.8734 23.448 18.0087 23.1076 18.0091H21.3948C21.6737 17.6393 21.8244 17.1886 21.8239 16.7254ZM20.5401 23.1442H17.9726V18.865H20.5401V23.1442ZM14.5409 22.2883H17.1168V23.1442H14.5493V22.4656C14.5493 22.406 14.5463 22.3469 14.5409 22.2883ZM16.6889 10.389L18.0851 6.89841C18.1184 6.81523 18.1796 6.74624 18.2582 6.70329C18.3368 6.66034 18.4279 6.64611 18.5159 6.66305C18.6038 6.67999 18.6832 6.72704 18.7402 6.79612C18.7972 6.86519 18.8285 6.95198 18.8285 7.04156V7.73907C18.8285 7.80952 18.8458 7.87887 18.8791 7.94098C18.9123 8.0031 18.9604 8.05604 19.019 8.09511L20.0266 8.76687C20.1933 8.878 20.3137 9.04618 20.3651 9.2398C20.4165 9.43342 20.3954 9.63915 20.3059 9.81833L19.3016 11.8269C19.2718 11.8863 19.2564 11.9518 19.2564 12.0183V18.0091H16.6889V10.389ZM17.1168 18.865V19.7208H13.6934V18.865H17.1168ZM9.39036 8.16699C9.32265 8.77037 9.1113 9.34873 8.77402 9.85359L8.75731 9.87867H5.79195L5.77524 9.85362C5.43797 9.34874 5.22662 8.77037 5.15891 8.16699H9.39036ZM13.6934 23.1442H0.855846V22.4656C0.855473 22.3298 0.882027 22.1954 0.933969 22.07C0.985912 21.9446 1.06221 21.8308 1.15845 21.7351L1.46103 21.4325H3.85128V20.5766H1.71168V14.1579C1.71271 13.2502 2.07371 12.3801 2.71549 11.7383C3.35727 11.0965 4.22742 10.7355 5.13504 10.7345H9.41423C10.3218 10.7355 11.192 11.0965 11.8338 11.7383C12.4756 12.3801 12.8366 13.2502 12.8376 14.1579V21.0046C12.8376 21.1181 12.8827 21.2269 12.9629 21.3071L13.3908 21.7351C13.4871 21.8308 13.5634 21.9446 13.6153 22.07C13.6672 22.1954 13.6938 22.3298 13.6934 22.4656V23.1442ZM13.996 21.1299L13.6934 20.8273V20.5766H17.1168V21.4325H14.2421C14.1706 21.3235 14.0882 21.2221 13.996 21.1299ZM24.8193 23.1442H21.396V22.2883H24.8193V23.1442ZM24.8193 21.4325H21.396V20.5766H24.8193V21.4325ZM24.8193 19.7208H21.396V18.865H24.8193V19.7208Z" fill="#fff" />
	<path d="M14.2467 2.30139L13.2655 3.28256L12.2844 2.30139L11.6792 2.90658L12.6604 3.88774L11.6792 4.86891L12.2844 5.47409L13.2655 4.49293L14.2467 5.47409L14.8519 4.86891L13.8707 3.88774L14.8519 2.90658L14.2467 2.30139Z" fill="#fff" />
</svg>
