<svg width="24" height="24" viewBox="0 0 24 24" fill="none" xmlns="http://www.w3.org/2000/svg">
<path d="M24 16.3578V16.319C24 16.1821 23.9069 16.0626 23.7739 16.0292C22.4415 15.6961 21.5104 14.5056 21.5104 13.1348V11.523C21.5104 9.74589 20.0649 8.30041 18.2878 8.30041C16.5107 8.30041 15.0652 9.74589 15.0652 11.523V13.1348C15.0652 13.922 14.7575 14.6619 14.2108 15.2181C13.7393 14.3617 12.8281 13.7796 11.7829 13.7796C10.2563 13.7796 9.01394 15.0219 9.01394 16.5485V17.2043C9.01394 17.3577 9.02689 17.5081 9.05129 17.6549C8.91237 17.5912 8.76647 17.5389 8.6156 17.4996L6.86241 17.0425V16.6068C7.97826 16.0272 8.74257 14.8616 8.74257 13.5197V11.7774C8.74257 9.85992 7.18257 8.29992 5.26506 8.29992C3.34755 8.29992 1.78755 9.85992 1.78755 11.7774V13.5197C1.78755 14.8616 2.55187 16.0272 3.66772 16.6068V17.0425L1.91452 17.4996C0.769295 17.7983 0 18.7937 0 19.9768V23.7012C0 23.8661 0.133942 24 0.298755 24H7.38672H16.1796H23.2541C23.4189 24 23.5529 23.8661 23.5529 23.7012V19.9768C23.5529 19.2772 23.2835 18.6428 22.8269 18.1798C23.525 17.8641 24 17.1635 24 16.3578ZM17.288 16.5555C17.6032 16.6586 17.9388 16.7154 18.2878 16.7154C18.6368 16.7154 18.9724 16.6591 19.2876 16.5555V17.2417C19.2876 17.7929 18.839 18.2415 18.2878 18.2415C17.7366 18.2415 17.288 17.7929 17.288 17.2417V16.5555ZM18.2878 16.1173C16.8403 16.1173 15.6627 14.9398 15.6627 13.4923V12.8136C15.8266 12.8505 15.9944 12.8699 16.1646 12.8699H16.3016C17.1341 12.8699 17.8845 12.4242 18.2878 11.7127C18.6911 12.4242 19.4415 12.8699 20.274 12.8699H20.411C20.5817 12.8699 20.7495 12.8505 20.9129 12.8136V13.4923C20.9129 14.9398 19.7353 16.1173 18.2878 16.1173ZM18.2878 8.89793C19.7353 8.89793 20.9129 10.0755 20.9129 11.523V12.1957C20.751 12.2465 20.5827 12.2729 20.411 12.2729H20.274C19.5934 12.2729 18.964 11.8466 18.7081 11.2118C18.6383 11.0395 18.4735 10.9285 18.2878 10.9285C18.1021 10.9285 17.9373 11.0395 17.8676 11.2118C17.6116 11.8461 16.9822 12.2729 16.3016 12.2729H16.1646C15.9924 12.2729 15.8246 12.247 15.6627 12.1957V11.523C15.6627 10.0755 16.8403 8.89793 18.2878 8.89793ZM15.3017 14.7012C15.5746 15.3729 16.0676 15.9321 16.6905 16.2891V17.0425L14.9373 17.4996C14.7919 17.5374 14.6515 17.5872 14.5165 17.648C14.5399 17.5036 14.5524 17.3552 14.5524 17.2043V16.5485C14.5524 16.2936 14.517 16.0471 14.4523 15.8131C14.8108 15.4964 15.0976 15.1185 15.3017 14.7012ZM10.7751 19.7831C11.0878 19.9056 11.4274 19.9738 11.7829 19.9738C12.1384 19.9738 12.4785 19.9056 12.7912 19.7831V20.2875C12.7912 20.8432 12.3391 21.2953 11.7834 21.2953C11.2277 21.2953 10.7756 20.8432 10.7756 20.2875V19.7831H10.7751ZM11.7829 19.3763C10.5854 19.3763 9.61145 18.4023 9.61145 17.2048V17.1281C9.96448 16.806 10.7402 16.5037 11.7829 16.5037C12.8256 16.5037 13.6013 16.8065 13.9544 17.1281V17.2048C13.9549 18.4018 12.9804 19.3763 11.7829 19.3763ZM11.7829 14.3771C12.9286 14.3771 13.8692 15.2689 13.9484 16.3942C13.3987 16.0855 12.6264 15.9052 11.7829 15.9052C10.9394 15.9052 10.1671 16.085 9.61743 16.3942C9.6971 15.2689 10.6377 14.3771 11.7829 14.3771ZM5.26506 8.89793C6.85295 8.89793 8.14506 10.19 8.14506 11.7779V12.4123C7.96083 12.4292 7.77461 12.4387 7.58888 12.4387C6.43369 12.4387 5.33228 12.1076 4.4873 11.5071C4.35685 11.4144 4.1766 11.4408 4.07851 11.5668C3.69261 12.0617 3.06971 12.3729 2.38556 12.4222V11.7779C2.38506 10.1895 3.67668 8.89793 5.26506 8.89793ZM2.38506 13.5202V13.0207C3.15286 12.9759 3.86689 12.6593 4.36581 12.1449C5.27602 12.721 6.40929 13.0362 7.58838 13.0362C7.77411 13.0362 7.95984 13.0272 8.14457 13.0118V13.5202C8.14457 15.108 6.85245 16.4002 5.26456 16.4002C3.67668 16.4002 2.38506 15.108 2.38506 13.5202ZM5.26506 16.9972C5.61261 16.9972 5.94822 16.9454 6.2649 16.8498V17.2412C6.2649 17.7924 5.81627 18.241 5.26506 18.241C4.71386 18.241 4.26523 17.7924 4.26523 17.2412V16.8498C4.58191 16.9454 4.91751 16.9972 5.26506 16.9972ZM0.59751 19.9768C0.59751 19.07 1.18705 18.3067 2.0649 18.0782L3.72 17.647C3.89975 18.3321 4.52415 18.839 5.26506 18.839C6.00598 18.839 6.63037 18.3321 6.81013 17.647L8.46523 18.0782C8.83817 18.1753 9.1673 18.3724 9.42075 18.6478C9.61593 18.9665 9.87436 19.2423 10.1776 19.4589V19.9608L9.12448 20.2023C7.92548 20.4772 7.08797 21.5283 7.08797 22.7587V23.4025H2.82174V21.5666C2.82174 21.4018 2.6878 21.2679 2.52299 21.2679C2.35817 21.2679 2.22423 21.4018 2.22423 21.5666V23.4025H0.59751V19.9768ZM15.8808 23.4025H7.68548V22.7582C7.68548 21.8081 8.33228 20.9965 9.25793 20.7844L10.2025 20.5678C10.3354 21.3197 10.9932 21.8928 11.7829 21.8928C12.5726 21.8928 13.2304 21.3197 13.3633 20.5678L14.3079 20.7844C15.2335 20.9965 15.8803 21.8081 15.8803 22.7582V23.4025H15.8808ZM22.9554 23.4025H21.3286V21.5666C21.3286 21.4018 21.1947 21.2679 21.0299 21.2679C20.8651 21.2679 20.7311 21.4018 20.7311 21.5666V23.4025H16.4783V22.7582C16.4783 21.5278 15.6408 20.4767 14.4418 20.2018L13.3887 19.9603V19.4584C13.7039 19.2334 13.9703 18.9436 14.1685 18.609C14.4164 18.354 14.7331 18.1703 15.0876 18.0777L16.7427 17.6465C16.9225 18.3316 17.5469 18.8385 18.2878 18.8385C19.0287 18.8385 19.6531 18.3316 19.8329 17.6465L21.488 18.0777C22.3658 18.3062 22.9554 19.0695 22.9554 19.9763V23.4025ZM22.2418 17.7386C22.0556 17.6365 21.8539 17.5559 21.6388 17.4996L19.8856 17.0425V16.2891C20.5085 15.9321 21.0015 15.3729 21.2744 14.7017C21.6921 15.5597 22.4455 16.2344 23.391 16.5406C23.3124 17.1456 22.8493 17.633 22.2418 17.7386ZM8.11867 5.67037C9.18274 5.67037 10.0616 4.80647 10.0805 3.7434C10.083 3.6722 10.0601 3.601 10.0133 3.54373L8.75054 2.00365H10.9778C11.0793 2.3517 11.3542 2.62606 11.7017 2.72763V8.00365H10.7562C10.5914 8.00365 10.4574 8.13759 10.4574 8.30241C10.4574 8.46722 10.5914 8.60116 10.7562 8.60116H13.2443C13.4091 8.60116 13.5431 8.46722 13.5431 8.30241C13.5431 8.13759 13.4091 8.00365 13.2443 8.00365H12.2988V2.72763C12.6468 2.62606 12.9212 2.3512 13.0227 2.00365H15.25L13.9867 3.54373C13.9399 3.601 13.917 3.6722 13.9195 3.7434C13.9384 4.80647 14.8168 5.67037 15.8813 5.67037C16.9459 5.67037 17.8242 4.80647 17.8432 3.7434C17.8456 3.6722 17.8227 3.601 17.7759 3.54373L16.1124 1.51568C16.0556 1.44647 15.971 1.40614 15.8813 1.40614H13.0227C12.9212 1.05809 12.6463 0.783734 12.2988 0.682158V0.298755C12.2988 0.133942 12.1648 0 12 0C11.8352 0 11.7012 0.133942 11.7012 0.298755V0.682158C11.3532 0.783734 11.0788 1.05859 10.9773 1.40614H8.11867C8.02905 1.40614 7.9444 1.44647 7.88764 1.51568L6.22407 3.54373C6.17726 3.601 6.15436 3.6722 6.15685 3.7434C6.17577 4.80647 7.05461 5.67037 8.11867 5.67037ZM15.8813 5.07286C15.244 5.07286 14.7027 4.62722 14.5563 4.0317H17.2068C17.0599 4.62772 16.5187 5.07286 15.8813 5.07286ZM16.9135 3.43419H14.8496L15.8818 2.17593L16.9135 3.43419ZM12 1.23585C12.2584 1.23585 12.469 1.44598 12.469 1.7049C12.469 1.96382 12.2589 2.17394 12 2.17394C11.7411 2.17394 11.531 1.96382 11.531 1.7049C11.531 1.44598 11.7416 1.23585 12 1.23585ZM8.11867 5.07286C7.48133 5.07286 6.94008 4.62722 6.79369 4.0317H9.44415C9.29726 4.62772 8.75602 5.07286 8.11867 5.07286ZM8.11867 2.17593L9.15087 3.43419H7.08697L8.11867 2.17593Z" fill="#C59363"/>
</svg>
