<svg width="24" height="27" viewBox="0 0 24 27" fill="none" xmlns="http://www.w3.org/2000/svg">
<path d="M5.94996 9.02301C6.04759 8.9142 6.16515 8.83162 6.30284 8.77406C6.44033 8.71711 6.59654 8.68864 6.77145 8.68864C6.94108 8.68864 7.08081 8.71264 7.19044 8.76105C7.30007 8.80925 7.38712 8.86884 7.45159 8.93962C7.51607 9.01081 7.59518 9.11535 7.68854 9.25386C7.72251 9.29718 7.76441 9.33115 7.81464 9.35515C7.86488 9.37935 7.91695 9.39135 7.97146 9.39135C8.0699 9.39135 8.1543 9.35983 8.22488 9.29596C8.29546 9.2323 8.33064 9.15562 8.33064 9.06532C8.33064 8.98152 8.30014 8.88572 8.23892 8.77772C8.17769 8.67013 8.08698 8.56803 7.96637 8.47142C7.84576 8.3746 7.68874 8.29467 7.49512 8.23081C7.30129 8.16735 7.07878 8.13562 6.82759 8.13562C6.52189 8.13562 6.24833 8.17793 6.00732 8.26254C5.7663 8.34694 5.56169 8.46877 5.39348 8.62823C5.22528 8.78769 5.09796 8.98152 5.01131 9.21013C4.92467 9.43895 4.88135 9.69095 4.88135 9.96613C4.88135 10.2462 4.92589 10.5 5.01518 10.7268C5.10426 10.9538 5.2322 11.147 5.39857 11.3065C5.56494 11.4657 5.7663 11.5876 6.00223 11.6712C6.23816 11.7547 6.49972 11.7966 6.78671 11.7966C7.03301 11.7966 7.26061 11.7702 7.46949 11.7169C7.67817 11.6638 7.89559 11.579 8.12156 11.4635C8.19966 11.4232 8.26373 11.3813 8.31397 11.338C8.364 11.2945 8.39837 11.2457 8.41709 11.1916C8.4358 11.1375 8.44515 11.0657 8.44515 10.9754V10.2966C8.44515 10.1744 8.42258 10.0827 8.37763 10.0215C8.33268 9.96023 8.2737 9.92098 8.20068 9.90288C8.12766 9.88518 8.03837 9.87644 7.93322 9.87644H7.07491C6.97118 9.87644 6.88922 9.90227 6.82901 9.95352C6.76881 10.0054 6.73851 10.0705 6.73851 10.1496C6.73851 10.246 6.77471 10.3145 6.84691 10.3548C6.91912 10.3951 7.02549 10.4152 7.16664 10.4152H7.75241V10.9898C7.59458 11.0703 7.43878 11.1324 7.28501 11.1759C7.13125 11.2192 6.96691 11.241 6.792 11.241C6.432 11.241 6.15152 11.1291 5.95016 10.9054C5.74881 10.6815 5.64833 10.3619 5.64833 9.94661C5.64833 9.75501 5.67437 9.5803 5.72603 9.42267C5.77769 9.26525 5.85233 9.13162 5.94996 9.02301Z" fill="#fff"/>
<path d="M11.0473 11.122C10.9071 11.2206 10.7251 11.2703 10.501 11.2703C10.3378 11.2703 10.2062 11.2459 10.106 11.1968C10.0057 11.1478 9.9282 11.0852 9.87288 11.0097C9.81756 10.9341 9.7663 10.8399 9.71871 10.727C9.67966 10.632 9.63247 10.5604 9.57736 10.512C9.52224 10.4638 9.45471 10.4394 9.37478 10.4394C9.27634 10.4394 9.19518 10.4705 9.13152 10.5326C9.06786 10.5944 9.03613 10.6688 9.03613 10.7559C9.03613 10.9056 9.08922 11.0598 9.19539 11.2184C9.30156 11.3768 9.43946 11.5036 9.60929 11.5987C9.84868 11.7307 10.1527 11.7966 10.5213 11.7966C10.8286 11.7966 11.0944 11.7484 11.3184 11.6516C11.5425 11.555 11.713 11.4216 11.8291 11.251C11.9454 11.0801 12.0036 10.8879 12.0036 10.6735C12.0036 10.4949 11.97 10.344 11.9029 10.2208C11.8358 10.0975 11.7424 9.99603 11.6226 9.91529C11.5029 9.83474 11.3576 9.7664 11.187 9.70986C11.0163 9.65373 10.8256 9.60206 10.6151 9.55528C10.4468 9.51501 10.3264 9.4845 10.2534 9.46376C10.1804 9.44261 10.1082 9.41373 10.037 9.37671C9.96563 9.33969 9.90969 9.29535 9.86881 9.24389C9.82814 9.19223 9.8078 9.13101 9.8078 9.06044C9.8078 8.94613 9.86759 8.8483 9.98739 8.76694C10.107 8.68579 10.2646 8.64491 10.4599 8.64491C10.6704 8.64491 10.8231 8.68254 10.9183 8.75738C11.0133 8.83223 11.0949 8.93637 11.1628 9.07C11.2155 9.16356 11.2643 9.23067 11.3092 9.27155C11.3542 9.31264 11.4201 9.33339 11.5065 9.33339C11.6017 9.33339 11.6812 9.29901 11.7447 9.23067C11.8083 9.16213 11.8403 9.08545 11.8403 9.00003C11.8403 8.90667 11.8146 8.81088 11.7638 8.71264C11.713 8.6144 11.6322 8.52084 11.522 8.43115C11.4117 8.34186 11.2726 8.27026 11.1054 8.21616C10.9384 8.16267 10.7401 8.13562 10.5109 8.13562C10.2239 8.13562 9.97417 8.1765 9.76203 8.25765C9.54969 8.33881 9.38739 8.45535 9.27532 8.60667C9.16325 8.75799 9.10712 8.93108 9.10712 9.12593C9.10712 9.33054 9.1602 9.50159 9.26637 9.63908C9.37234 9.77678 9.51593 9.88539 9.69674 9.96491C9.87756 10.0446 10.1021 10.1142 10.3704 10.1738C10.5707 10.2171 10.731 10.2584 10.8506 10.2966C10.9704 10.3355 11.068 10.3914 11.1435 10.4644C11.2191 10.5379 11.257 10.633 11.257 10.7506C11.2574 10.8991 11.1872 11.0227 11.0473 11.122Z" fill="#fff"/>
<path d="M14.2452 11.3598V8.78771H15.0706C15.1995 8.78771 15.2963 8.76066 15.3608 8.70676C15.4253 8.65286 15.4576 8.58147 15.4576 8.4932C15.4576 8.40452 15.4257 8.33293 15.362 8.27801C15.2984 8.2235 15.2012 8.19604 15.0704 8.19604H12.6659C12.5418 8.19604 12.4473 8.22269 12.382 8.27577C12.3165 8.32886 12.2839 8.40127 12.2839 8.4932C12.2839 8.58167 12.3153 8.65286 12.3781 8.70676C12.441 8.76086 12.537 8.78771 12.6659 8.78771H13.4913V11.3598C13.4913 11.5062 13.5264 11.6156 13.597 11.6881C13.6672 11.7605 13.7585 11.7967 13.8708 11.7967C13.981 11.7967 14.0711 11.7607 14.1407 11.6893C14.2102 11.6177 14.2452 11.5076 14.2452 11.3598Z" fill="#fff"/>
<path d="M8.31675 18.6436C8.3859 18.69 8.46441 18.712 8.5419 18.712C8.67329 18.712 8.80244 18.6483 8.88075 18.5307L12.135 13.6494C12.2597 13.4625 12.209 13.2098 12.0221 13.0854C11.8352 12.9609 11.5826 13.0113 11.4581 13.1982L8.20386 18.0796C8.07919 18.2665 8.12983 18.5191 8.31675 18.6436Z" fill="#fff"/>
<path d="M7.72891 15.8644C8.51522 15.8644 9.15264 15.2272 9.15264 14.4405C9.15264 13.6542 8.51522 13.017 7.72891 13.017C6.9426 13.017 6.30518 13.6542 6.30518 14.4405C6.30518 15.2272 6.9426 15.8644 7.72891 15.8644ZM7.72891 13.8305C8.06532 13.8305 8.33908 14.1043 8.33908 14.4405C8.33908 14.7769 8.06532 15.0509 7.72891 15.0509C7.3925 15.0509 7.11874 14.7769 7.11874 14.4405C7.11874 14.1043 7.3925 13.8305 7.72891 13.8305Z" fill="#fff"/>
<path d="M12.6103 18.712C13.3966 18.712 14.034 18.0745 14.034 17.2882C14.034 16.5017 13.3966 15.8645 12.6103 15.8645C11.8239 15.8645 11.1865 16.5017 11.1865 17.2882C11.1865 18.0745 11.8239 18.712 12.6103 18.712ZM12.6103 16.6781C12.9467 16.6781 13.2204 16.9518 13.2204 17.2882C13.2204 17.6246 12.9467 17.8984 12.6103 17.8984C12.2738 17.8984 12.0001 17.6246 12.0001 17.2882C12.0001 16.9518 12.2738 16.6781 12.6103 16.6781Z" fill="#fff"/>
<path d="M19.6078 21.4709L20.339 20.7179V6.3051L13.6272 0H1.61105C0.721222 0 0 0.728544 0 1.62712V24.4068C0 25.3054 0.721222 26.034 1.61105 26.034H18.728C19.6178 26.034 20.339 25.3054 20.339 24.4068V24.1882C20.1308 24.3332 19.8869 24.4068 19.6426 24.4068C19.6034 24.4068 19.5645 24.3997 19.5255 24.3959V24.4068C19.5255 24.8555 19.1677 25.2204 18.728 25.2204H1.61105C1.17132 25.2204 0.813561 24.8555 0.813561 24.4068V1.62712C0.813561 1.17844 1.17132 0.813561 1.61105 0.813561H13.017V4.81832C13.017 5.97459 13.9349 6.91527 15.0631 6.91527H19.5255V21.393L19.6078 21.4709ZM15.0631 6.10171C14.3836 6.10171 13.8305 5.52591 13.8305 4.81832V1.3076L18.9342 6.10171H15.0631Z" fill="#fff"/>
<path d="M23.8768 18.8268C23.7157 18.6704 23.458 18.6741 23.3016 18.8352L19.6313 22.6146L17.3649 20.4641C17.202 20.3094 16.9443 20.3165 16.7899 20.4792C16.6353 20.6423 16.642 20.8996 16.8049 21.0544L19.363 23.4816C19.4417 23.5561 19.5424 23.5933 19.6429 23.5933C19.749 23.5933 19.855 23.552 19.9347 23.47L23.8852 19.4022C24.0416 19.2409 24.0377 18.9835 23.8768 18.8268Z" fill="#fff"/>
</svg>
