<svg width="92" height="18" viewBox="0 0 92 18" fill="none" xmlns="http://www.w3.org/2000/svg">
<path d="M29.9347 0.222537C24.7114 0.466904 23.8561 0.894546 23.3674 3.67422L23.1536 4.83496H33.5697H43.9858V2.57457V0.314175L43.0389 0.1309C41.9698 -0.0829214 36.2272 -0.0218297 29.9347 0.222537Z" fill="#C59363"/>
<path d="M77.128 0.222537C72.0268 0.466904 71.2326 0.894546 70.7133 3.70476L70.4995 4.83496H76.2421C79.4189 4.83496 84.1841 4.74332 86.8415 4.62114L91.6372 4.43786V2.39129V0.314175L90.6903 0.1309C89.6212 -0.0829214 83.1455 -0.0218297 77.128 0.222537Z" fill="#C59363"/>
<path d="M2.77967 0.650022C1.52729 1.07766 0.672009 2.17731 0.305459 3.79625C0.152729 4.43771 0 7.8283 0 11.3105V17.6641H2.5964H5.1928V8.95849V0.252926L4.52079 0.283472C4.12369 0.283472 3.36004 0.436201 2.77967 0.650022Z" fill="#C59363"/>
<path d="M7.75838 0.650018C7.69729 0.863839 7.66674 4.25443 7.69729 8.19484L7.78892 15.3731L10.3242 15.4648L12.829 15.5564V7.88939V0.252922H10.3853C8.67475 0.252922 7.88056 0.375106 7.75838 0.650018Z" fill="#C59363"/>
<path d="M15.5784 8.92795V17.6641H18.2053H20.8323L20.7101 10.6996C20.6184 4.43771 20.5573 3.67406 20.0075 2.72714C19.2133 1.38312 18.1748 0.650019 16.7391 0.375106L15.5784 0.191831V8.92795Z" fill="#C59363"/>
<path d="M50.2478 0.71111C47.682 1.62749 47.3459 2.78823 47.3459 11.1578V17.6641H49.9423H52.5387V8.95849C52.5387 -0.816183 52.722 -0.17472 50.2478 0.71111Z" fill="#C59363"/>
<path d="M54.9824 7.88929V15.5258H57.4261H59.8698V7.88929V0.252827H57.4261H54.9824V7.88929Z" fill="#C59363"/>
<path d="M62.9241 8.92795V17.6641H65.3677H67.8114V10.6996C67.8114 4.71262 67.7503 3.61297 67.2616 2.72714C66.6201 1.41367 65.551 0.650019 64.0848 0.375106L62.9241 0.191831V8.92795Z" fill="#C59363"/>
<path d="M23.3368 7.79759C23.6118 9.35542 24.4365 10.4245 25.6889 10.8522C26.3914 11.0965 29.5071 11.2187 35.4025 11.2187L44.0775 11.2493L43.8942 9.96634C43.6804 8.4085 42.6724 7.3394 41.0534 6.97285C40.412 6.82012 36.105 6.66739 31.4926 6.66739H23.1536L23.3368 7.79759Z" fill="#C59363"/>
<path d="M70.561 8.95833V11.2493H78.3502H86.1394V8.95833V6.66739H78.3502H70.561V8.95833Z" fill="#C59363"/>
<path d="M23.2146 15.6785V17.9695H31.7063C36.3493 17.9695 40.6563 17.8168 41.2672 17.664C42.7334 17.2669 43.7109 16.1367 43.8941 14.64L44.0774 13.3876H33.6307H23.2146V15.6785Z" fill="#C59363"/>
<path d="M70.7133 14.365C70.9882 15.6785 71.5992 16.6254 72.6072 17.2669C73.3403 17.7556 74.4399 17.8167 82.5346 17.9084L91.6372 18V15.7091V13.3876H81.0684H70.4995L70.7133 14.365Z" fill="#C59363"/>
</svg>
