<svg width="24" height="33" viewBox="0 0 24 33" fill="none" xmlns="http://www.w3.org/2000/svg">
<path d="M14.7588 28.8755H14.6697C14.4642 28.8755 14.2976 28.7089 14.2976 28.5034C14.2976 28.298 14.4642 28.1313 14.6697 28.1313H14.7588C14.9643 28.1313 15.1309 28.298 15.1309 28.5034C15.1309 28.7089 14.9644 28.8755 14.7588 28.8755Z" fill="#C59363"/>
<path d="M2.77295 21.0935C2.56744 21.0935 2.40088 20.9268 2.40088 20.7214V0.372067C2.40088 0.166624 2.56744 0 2.77295 0H17.6373C17.8427 0 18.0093 0.166624 18.0093 0.372067C18.0093 0.577572 17.8427 0.744134 17.6373 0.744134H3.14501V20.7214C3.14501 20.9269 2.97839 21.0935 2.77295 21.0935Z" fill="#C59363"/>
<path d="M21.227 20.3448C21.0216 20.3448 20.855 20.1782 20.855 19.9728V3.73303C20.855 3.52759 21.0216 3.36096 21.227 3.36096C21.4325 3.36096 21.5991 3.52759 21.5991 3.73303V19.9728C21.5991 20.1782 21.4325 20.3448 21.227 20.3448Z" fill="#C59363"/>
<path d="M21.2268 4.10513H17.6374C17.432 4.10513 17.2654 3.93851 17.2654 3.73307V0.372433C17.2654 0.16699 17.432 0.000366211 17.6374 0.000366211C17.8429 0.000366211 18.0095 0.16699 18.0095 0.372433V3.361H21.2268C21.4323 3.361 21.5989 3.52762 21.5989 3.73307C21.5989 3.93851 21.4323 4.10513 21.2268 4.10513Z" fill="#C59363"/>
<path d="M21.2268 4.10545H17.6374C17.432 4.10545 17.2654 3.93882 17.2654 3.73338V0.372189C17.2654 0.166746 17.432 0.00012207 17.6374 0.00012207C17.8429 0.00012207 18.0095 0.166746 18.0095 0.372189V3.36131H21.2268C21.4322 3.36131 21.5988 3.52794 21.5988 3.73338C21.5988 3.93882 21.4322 4.10545 21.2268 4.10545Z" fill="#C59363"/>
<path d="M21.227 4.10515C21.1358 4.10515 21.0445 4.07185 20.9727 4.00469L17.3834 0.644117C17.2334 0.503661 17.2256 0.268205 17.3661 0.118262C17.5067 -0.0318051 17.7421 -0.0394324 17.892 0.100961L21.4813 3.46153C21.6313 3.60199 21.639 3.83744 21.4986 3.98739C21.4254 4.06565 21.3263 4.10515 21.227 4.10515Z" fill="#C59363"/>
<path d="M19.4322 14.14H4.99609C4.79065 14.14 4.62402 13.9734 4.62402 13.7679C4.62402 13.5624 4.79065 13.3959 4.99609 13.3959H19.4322C19.6376 13.3959 19.8042 13.5624 19.8042 13.7679C19.8042 13.9734 19.6377 14.14 19.4322 14.14Z" fill="#C59363"/>
<path d="M19.4322 16.3412H4.99609C4.79065 16.3412 4.62402 16.1746 4.62402 15.9691C4.62402 15.7637 4.79065 15.597 4.99609 15.597H19.4322C19.6376 15.597 19.8042 15.7636 19.8042 15.9691C19.8042 16.1746 19.6377 16.3412 19.4322 16.3412Z" fill="#C59363"/>
<path d="M11.6202 9.13797C11.5038 9.13797 11.3891 9.08346 11.3166 8.98121L7.80848 4.03873C7.41062 3.47815 7.54295 2.69848 8.10347 2.30062C8.37464 2.10814 8.70491 2.03286 9.03314 2.0886C9.36075 2.14361 9.64792 2.32381 9.84108 2.59598L13.3492 7.53845C13.4681 7.70601 13.4287 7.93824 13.2611 8.05718C13.0936 8.17605 12.8613 8.13674 12.7424 7.96912L9.2343 3.02671C9.15648 2.91707 9.04101 2.84452 8.9093 2.82238C8.77623 2.79987 8.64327 2.83007 8.53414 2.90752C8.30823 3.06788 8.2549 3.38216 8.41526 3.60812L11.9233 8.5506C12.0422 8.71816 12.0028 8.95039 11.8352 9.06932C11.7699 9.11565 11.6947 9.13797 11.6202 9.13797Z" fill="#C59363"/>
<path d="M10.6073 12.0076C10.5322 12.0076 10.4565 12.0013 10.381 11.9884C10.0288 11.9287 9.72093 11.7354 9.51412 11.444C9.30781 11.1533 9.22676 10.7992 9.28599 10.4469C9.34651 10.0936 9.5398 9.78604 9.83057 9.57973L11.4045 8.46254C11.5722 8.34366 11.8044 8.38304 11.9233 8.55059C12.0422 8.71815 12.0028 8.95038 11.8352 9.06932L10.2612 10.1865C10.1323 10.2781 10.0464 10.4148 10.0196 10.5714C9.99347 10.727 10.0294 10.8843 10.121 11.0133C10.2127 11.1425 10.3492 11.2282 10.5054 11.2548C10.6615 11.2811 10.8186 11.2454 10.9478 11.1537L15.5216 7.90729C15.6506 7.8157 15.7364 7.67903 15.7632 7.52239C15.7896 7.36692 15.7537 7.20973 15.6619 7.08049C15.5702 6.95139 15.4337 6.86575 15.2775 6.83921C15.1212 6.81248 14.9641 6.84851 14.8351 6.9401L13.2611 8.05729C13.0936 8.17617 12.8613 8.13685 12.7424 7.96924C12.6234 7.80168 12.6629 7.56945 12.8304 7.45051L14.4044 6.33332C14.6954 6.12664 15.0496 6.04565 15.402 6.10555C15.7542 6.16533 16.0621 6.35862 16.2687 6.64976C16.4756 6.94109 16.5565 7.29542 16.4968 7.64746C16.4364 8.00012 16.243 8.30763 15.9523 8.51407L11.3785 11.7605C11.1498 11.9228 10.8822 12.0076 10.6073 12.0076Z" fill="#C59363"/>
<path d="M12.2845 12.5493C12.2638 12.5493 12.2429 12.5476 12.2222 12.5441C12.1249 12.5276 12.0382 12.4731 11.9811 12.3926L11.2655 11.3844C11.1465 11.2169 11.186 10.9847 11.3535 10.8657C11.521 10.7468 11.7533 10.7861 11.8722 10.9538L12.3725 11.6585L15.528 9.41881L15.0277 8.71405C14.9088 8.5465 14.9482 8.3142 15.1158 8.19527C15.2833 8.07639 15.5156 8.1157 15.6345 8.28326L16.3501 9.29144C16.4072 9.37193 16.4301 9.47177 16.4135 9.56906C16.397 9.66636 16.3425 9.75311 16.2621 9.81022L12.4998 12.4806C12.4365 12.5256 12.3611 12.5493 12.2845 12.5493Z" fill="#C59363"/>
<path d="M8.87168 5.2654C8.75523 5.2654 8.64051 5.21089 8.56795 5.10863C8.44901 4.94108 8.48845 4.70884 8.65601 4.58991L10.0819 3.57782C10.2495 3.45889 10.4817 3.49839 10.6006 3.66588C10.7196 3.83343 10.6801 4.06566 10.5126 4.1846L9.08668 5.19669C9.02132 5.24307 8.9461 5.2654 8.87168 5.2654Z" fill="#C59363"/>
<path d="M9.61338 6.31043C9.49693 6.31043 9.3822 6.25592 9.30965 6.15366C9.19071 5.98611 9.23015 5.75388 9.39771 5.63494L10.8236 4.62286C10.9912 4.50398 11.2234 4.54336 11.3423 4.71091C11.4613 4.87847 11.4218 5.1107 11.2543 5.22964L9.82838 6.24172C9.76302 6.2881 9.6878 6.31043 9.61338 6.31043Z" fill="#C59363"/>
<path d="M5.59297 29.9691H1.30639C0.586006 29.9691 0 29.383 0 28.6627V21.9855C0 21.0833 0.733902 20.3494 1.63604 20.3494H4.329C5.23114 20.3494 5.96504 21.0833 5.96504 21.9855V29.597C5.96504 29.8025 5.79842 29.9691 5.59297 29.9691ZM1.63604 21.0935C1.14423 21.0935 0.744134 21.4936 0.744134 21.9855V28.6627C0.744134 28.9728 0.996334 29.225 1.30639 29.225H5.22091V21.9855C5.22091 21.4936 4.82081 21.0935 4.329 21.0935H1.63604Z" fill="#C59363"/>
<path d="M22.6936 29.2207H18.407C18.2015 29.2207 18.0349 29.0541 18.0349 28.8486V21.2371C18.0349 20.3349 18.7689 19.601 19.671 19.601H22.3639C23.2661 19.601 24 20.3349 24 21.2371V27.9143C24 28.6346 23.4139 29.2207 22.6936 29.2207ZM18.779 28.4765H22.6936C23.0036 28.4765 23.2558 28.2243 23.2558 27.9143V21.2371C23.2558 20.7452 22.8557 20.3451 22.3638 20.3451H19.671C19.1791 20.3451 18.779 20.7452 18.779 21.2371V28.4765H18.779Z" fill="#C59363"/>
<path d="M13.7739 30.9377C13.433 30.9377 13.096 30.8242 12.8166 30.6036C12.6553 30.4763 12.6278 30.2423 12.7551 30.081C12.8824 29.9197 13.1164 29.8921 13.2777 30.0196C13.5166 30.2081 13.8365 30.2459 14.1127 30.1184C14.506 29.9362 14.6846 29.4648 14.5106 29.0678L13.0678 25.7711C12.9854 25.5829 13.0713 25.3635 13.2595 25.2811C13.4475 25.199 13.6671 25.2845 13.7495 25.4728L15.1923 28.7693C15.5274 29.5343 15.1833 30.4426 14.4252 30.7937C14.2162 30.8903 13.9942 30.9377 13.7739 30.9377Z" fill="#C59363"/>
<path d="M15.8936 30.0132C15.7366 30.0132 15.5792 29.9848 15.4275 29.9277C15.0929 29.8018 14.829 29.5525 14.6843 29.2255L14.6479 29.1436L13.0716 25.7798C12.9844 25.5937 13.0646 25.3722 13.2507 25.285C13.4369 25.1978 13.6582 25.278 13.7454 25.464L15.3234 28.8313C15.3246 28.8337 15.3257 28.836 15.3267 28.8385L15.3647 28.9243C15.428 29.0673 15.5434 29.1762 15.6896 29.2313C15.8355 29.2861 15.9936 29.2803 16.1351 29.2147L16.5456 29.025C16.8172 28.8993 16.9484 28.5812 16.844 28.3009C16.7723 28.1084 16.8703 27.8941 17.0628 27.8223C17.2555 27.7507 17.4696 27.8486 17.5414 28.0411C17.7805 28.6833 17.4804 29.4121 16.858 29.7003L16.4478 29.8899C16.2711 29.972 16.0827 30.0132 15.8936 30.0132Z" fill="#C59363"/>
<path d="M10.3433 32.4935C9.84399 32.4935 9.3652 32.2094 9.14177 31.7276L8.35473 30.0273C8.18283 29.656 7.96189 29.3282 7.69784 29.0529C7.10936 28.4396 6.65376 28.4247 5.7461 28.3951L5.57998 28.3895C5.3746 28.3824 5.21399 28.21 5.22118 28.0046C5.22837 27.7992 5.40089 27.637 5.60602 27.6459L5.77041 27.6514C6.73766 27.683 7.43653 27.7058 8.2348 28.5378C8.55589 28.8726 8.82341 29.2686 9.02997 29.7147L9.81695 31.4148C9.95083 31.7034 10.2947 31.8298 10.5833 31.6963C10.8359 31.5793 10.9692 31.2992 10.9002 31.0305C10.8914 30.9953 10.8796 30.9623 10.8647 30.93L9.88777 28.8195C9.80145 28.6331 9.88262 28.4119 10.0691 28.3256C10.2555 28.2393 10.4767 28.3204 10.563 28.5069L11.54 30.6175C11.5746 30.6922 11.602 30.7697 11.6215 30.8477C11.7793 31.4617 11.4744 32.1036 10.8958 32.3716C10.7169 32.4543 10.5287 32.4935 10.3433 32.4935Z" fill="#C59363"/>
<path d="M5.75056 21.8528C5.56484 21.8528 5.40429 21.7141 5.3816 21.5251C5.3571 21.321 5.50264 21.1358 5.70666 21.1113L7.57654 20.8868C7.68165 20.8746 7.78546 20.8581 7.88623 20.8379C8.08776 20.7975 8.28384 20.928 8.32421 21.1296C8.36464 21.331 8.23405 21.5271 8.03257 21.5675C7.91202 21.5917 7.78806 21.6113 7.6641 21.6258L5.79534 21.8501C5.78033 21.852 5.76532 21.8528 5.75056 21.8528Z" fill="#C59363"/>
<path d="M12.0257 31.6212C11.6326 31.6212 11.25 31.4453 10.9929 31.1209C10.9877 31.1142 10.9826 31.1074 10.9779 31.1004C10.9196 31.0245 10.8695 30.9416 10.8289 30.8538L9.87314 28.7892C9.78682 28.6028 9.86799 28.3816 10.0545 28.2952C10.2409 28.209 10.4621 28.2901 10.5484 28.4766L11.5041 30.5412C11.5233 30.5827 11.5472 30.6213 11.575 30.6561C11.5792 30.6614 11.5832 30.6667 11.5871 30.6722C11.7542 30.8706 12.0327 30.9327 12.2705 30.8226L12.4869 30.7226C12.6561 30.644 12.7303 30.4426 12.652 30.2735L11.5024 27.7905C11.4998 27.7849 11.4973 27.7793 11.495 27.7737C11.418 27.5832 11.5094 27.3648 11.7 27.2878C11.888 27.2117 12.1014 27.2992 12.1808 27.4848L13.3272 29.9607C13.5778 30.5022 13.3411 31.1467 12.7996 31.3979L12.5828 31.4981C12.4032 31.5811 12.2132 31.6212 12.0257 31.6212Z" fill="#C59363"/>
<path d="M18.407 28.5432H17.518C16.7681 28.5432 16.0816 28.1331 15.7261 27.4728L12.8896 22.2047C12.78 22.0017 12.6006 21.8458 12.3844 21.766C12.2799 21.7274 12.1701 21.7078 12.0578 21.7078C11.8286 21.7078 11.6073 21.791 11.4346 21.9421L10.6961 22.589C9.86437 23.3182 8.63686 23.4042 7.7111 22.7978C7.40359 22.5963 7.21997 22.2559 7.21997 21.8872C7.21997 21.6213 7.3172 21.3651 7.49387 21.1659L9.49715 18.9134C10.3043 18.0047 11.4648 17.4834 12.6807 17.4834H13.0008C13.8519 17.4834 14.6753 17.7351 15.382 18.2113L16.6481 19.0651C17.3478 19.5369 18.0226 20.06 18.654 20.6198C18.7335 20.6904 18.7792 20.7918 18.7792 20.8982V28.171C18.779 28.3765 18.6125 28.5432 18.407 28.5432ZM12.0577 20.9637C12.2583 20.9637 12.455 20.9987 12.642 21.0679C13.0282 21.2104 13.3488 21.4888 13.5446 21.8516L16.3813 27.1201C16.6068 27.5389 17.0424 27.799 17.518 27.799H18.0349V21.0667C17.4644 20.5699 16.8585 20.1046 16.2321 19.6822L14.966 18.8284C14.3828 18.4354 13.7031 18.2277 13.0008 18.2277H12.6807C11.6771 18.2277 10.7195 18.6578 10.0533 19.4078L8.05024 21.6602C7.97911 21.7404 7.9641 21.828 7.9641 21.8872C7.9641 22.0042 8.02196 22.1119 8.11888 22.1753C8.76603 22.5991 9.62421 22.5393 10.2057 22.0294L10.9445 21.3822C11.253 21.1123 11.6483 20.9637 12.0577 20.9637Z" fill="#C59363"/>
</svg>
