<svg width="50" height="24" viewBox="0 0 50 24" fill="none" xmlns="http://www.w3.org/2000/svg">
<path d="M31.4093 0.132167C30.8627 0.273376 25.4694 1.60802 22.9732 2.22752L21.5293 2.58282L21.0737 2.96089C20.8232 3.17043 20.6182 3.35263 20.6182 3.3663C20.6137 3.37996 21.1876 3.61227 21.8891 3.88558C22.5906 4.15888 23.1554 4.3912 23.1463 4.40486C23.1281 4.41853 22.6134 4.27276 20.1354 3.5485C19.812 3.45284 18.6823 3.12487 17.6301 2.81968C16.5779 2.51449 15.4117 2.17286 15.0382 2.06353C14.6647 1.95421 14.3504 1.87222 14.3413 1.87677C14.3367 1.88588 14.4278 2.00432 14.5463 2.14097C14.6693 2.27762 15.5621 3.30708 16.5369 4.43675C17.5071 5.56186 18.4136 6.60953 18.5411 6.75985C19.2244 7.54333 22.0941 10.8822 22.3856 11.2239C22.5815 11.4562 21.7616 10.6226 21.0874 9.90288C20.3222 9.08296 19.1788 7.86219 15.8354 4.28643C14.4461 2.80602 13.2982 1.5898 13.28 1.5898C13.2617 1.5898 12.747 2.09997 12.1366 2.71947C11.5262 3.33896 9.65865 5.22934 7.99148 6.91928C6.32431 8.60923 4.74824 10.2172 4.48404 10.4905L4.00576 10.9824L2.04706 11.315C0.972054 11.4972 0.0519222 11.6566 0.00181601 11.6703C-0.0482902 11.6794 0.944724 11.693 2.20649 11.6976L4.49771 11.7021L5.09898 11.1191C5.66382 10.5679 6.05556 10.1898 7.40387 8.90075C7.71362 8.60012 8.21468 8.11727 8.51076 7.8303C8.8114 7.54333 9.08015 7.28369 9.10748 7.26091C9.13936 7.23358 9.43089 6.96028 9.7543 6.64597C11.6492 4.81482 13.3301 3.20687 13.3665 3.1932C13.3984 3.18409 17.9489 7.76198 21.4336 11.3059L22.3218 12.2078L27.8472 12.1941L33.3771 12.1804L33.0628 11.9299L32.753 11.6794L33.9556 11.6657L35.1627 11.6566L37.5769 9.21961L39.9957 6.78263L42.4691 9.24239L44.938 11.7021H47.1108C48.3042 11.7021 49.2699 11.693 49.2608 11.6839C49.2517 11.6748 49.0877 11.6429 48.9009 11.6156C48.7142 11.5883 48.2131 11.5154 47.7849 11.4516C47.3613 11.3878 46.6871 11.2876 46.2908 11.2284C45.8945 11.1646 45.5529 11.1054 45.5392 11.0872C45.5165 11.0599 40.2462 5.85794 40.1779 5.78961C40.1733 5.7805 39.3898 5.93082 38.4469 6.12214C37.504 6.31345 36.7205 6.46377 36.7114 6.45466C36.7023 6.44555 36.9437 6.359 37.2444 6.2679C37.545 6.17224 37.7864 6.07659 37.7773 6.05381C37.7682 6.03103 37.5177 5.76228 37.2171 5.45254C36.9164 5.14279 36.4245 4.63262 36.1284 4.32287C35.8277 4.00857 35.3768 3.53939 35.1217 3.27519C34.5796 2.71036 32.6938 0.742552 32.2793 0.300706C32.1153 0.132167 31.9741 -0.00448594 31.9605 6.91712e-05C31.9468 6.91712e-05 31.6963 0.0592856 31.4093 0.132167ZM32.5253 2.28218C33.0036 2.79235 33.737 3.57583 34.1651 4.02679C34.5888 4.47774 35.0716 4.98791 35.2356 5.16101C35.3996 5.33866 35.7093 5.66663 35.928 5.88983C36.2605 6.24057 36.3151 6.31345 36.265 6.37267C36.2332 6.40911 35.5863 7.15615 34.8256 8.03528C34.0695 8.90986 33.1903 9.92565 32.876 10.2901C32.5617 10.6545 32.2702 10.9915 32.2247 11.0371C32.1472 11.1236 32.1199 11.1009 31.3091 10.3083C30.8536 9.86188 30.1202 9.14217 29.6783 8.71855C29.2411 8.29037 28.5122 7.58433 28.0613 7.14248C27.6103 6.70064 27.1457 6.24968 27.0273 6.14491C26.9043 6.03559 26.8086 5.92627 26.8086 5.89894C26.8086 5.85794 28.6261 4.127 29.1545 3.65782C29.2137 3.60772 29.5371 3.30708 29.8697 2.99278C30.9948 1.93144 31.6143 1.36205 31.637 1.36205C31.6507 1.36205 32.0516 1.77656 32.5253 2.28218ZM24.481 4.04956C24.5037 5.6393 24.563 5.88072 24.5721 4.43675C24.5766 3.40274 24.6085 2.40972 24.6404 2.38239C24.6404 2.37784 24.9365 2.46894 25.2963 2.58282L25.9432 2.7878V5.44798V8.10361H25.2462H24.5493L23.948 7.44312L23.3467 6.78718L23.3559 4.74649L23.3695 2.71036L23.8934 2.54182L24.4172 2.37784L24.44 2.7468C24.4536 2.94723 24.4719 3.53483 24.481 4.04956Z" fill="#fff"/>
<path d="M31.0131 3.97218C30.5986 4.12705 30.2388 4.58256 30.2297 4.96975L30.2251 5.09729H30.8173H31.4094V4.50513V3.91296L31.2864 3.91752C31.2136 3.91752 31.0951 3.94485 31.0131 3.97218Z" fill="#fff"/>
<path d="M31.6829 4.50513V5.09729H32.2796H32.8809L32.849 4.91053C32.7852 4.52335 32.5164 4.17716 32.1384 4.00862C32.0245 3.95851 31.8787 3.91296 31.8104 3.91296H31.6829V4.50513Z" fill="#fff"/>
<path d="M30.2251 5.96265V6.55481H30.8173H31.4094V5.96265V5.37048H30.8173H30.2251V5.96265Z" fill="#fff"/>
<path d="M31.6829 5.96265V6.55481H32.275H32.8672V5.96265V5.37048H32.275H31.6829V5.96265Z" fill="#fff"/>
<path d="M12.9156 6.14957C12.369 6.25889 11.7951 6.70985 11.5673 7.21547C11.4306 7.51155 11.3532 7.96251 11.4306 7.99439C11.4625 8.00806 11.8816 8.00806 12.369 8.0035L13.2572 7.98984V7.05604C13.2572 6.01292 13.28 6.07669 12.9156 6.14957Z" fill="#fff"/>
<path d="M13.7084 6.15867C13.6993 6.19055 13.6947 6.61418 13.6993 7.10157L13.713 7.98982L14.6604 8.00348C15.7218 8.01715 15.6398 8.04904 15.5532 7.63908C15.453 7.15168 15.1296 6.69161 14.6969 6.41375C14.3689 6.20422 13.754 6.04479 13.7084 6.15867Z" fill="#fff"/>
<path d="M11.3989 8.45436C11.3898 8.47714 11.3807 8.87799 11.3852 9.34716C11.3898 9.8209 11.3807 10.2217 11.367 10.24C11.3533 10.2627 11.1438 10.3721 10.9024 10.4859C10.4286 10.7091 10.3603 10.7911 10.4469 11.0234C10.5015 11.1647 10.5744 11.2193 10.7885 11.2922C10.8978 11.3241 10.9844 11.3924 11.0254 11.4744C11.1074 11.6384 11.1119 11.6566 11.0345 11.6566C10.998 11.6566 10.9343 11.6976 10.8842 11.7523C10.7293 11.9254 10.7839 12.1212 11.2486 13.0732C11.49 13.5652 11.6859 13.9797 11.6859 13.9934C11.6859 14.0116 11.6221 14.0571 11.5492 14.0936C11.4718 14.1346 11.3852 14.2166 11.3579 14.2758C11.2941 14.4124 11.0299 14.5491 9.15777 15.3872C7.68191 16.0477 7.41772 16.1662 6.85744 16.4258C6.67068 16.5124 6.34271 16.6627 6.12862 16.7583C5.91453 16.854 5.55923 17.018 5.33147 17.1227C5.10827 17.2275 4.72565 17.4006 4.48878 17.5099C4.25191 17.6147 3.89206 17.7787 3.69164 17.8743C3.49121 17.9654 2.87627 18.2433 2.3251 18.4938C1.02234 19.0814 0.944904 19.1224 0.817361 19.291C0.689818 19.4595 0.680708 19.628 0.785475 19.8877C0.885688 20.1337 1.09067 20.243 1.35486 20.202C1.45052 20.1838 2.42531 19.7191 3.5231 19.168C4.61632 18.6123 6.44748 17.6876 7.58625 17.1091C8.72503 16.5351 10.0597 15.8564 10.5471 15.6059C11.2668 15.2324 11.4854 15.1367 11.7086 15.1139C11.8589 15.0957 12.0275 15.0638 12.0821 15.0502C12.1778 15.0183 12.2051 15.0638 12.442 15.5558C13.1253 16.9997 13.0934 16.9451 13.2437 17.0089C13.3394 17.0453 13.4305 17.0544 13.5261 17.0271C13.6855 16.9815 13.681 16.977 13.7311 17.1546C13.7584 17.2457 13.7493 17.3368 13.7083 17.437C13.6172 17.6511 13.6263 17.7331 13.763 17.8925L13.8814 18.0338H13.4851C12.5377 18.0338 11.7496 18.4665 11.3898 19.1816C11.3032 19.3593 11.2303 19.5415 11.2303 19.587C11.2303 19.6417 11.1985 19.6736 11.1438 19.6736C11.0071 19.6736 10.9343 19.792 10.9935 19.9241C11.0436 20.0335 11.039 20.038 10.8705 20.038C10.6701 20.038 10.579 20.12 10.6017 20.2749L10.6154 20.3796H15.0566H19.4979L19.5115 20.2749C19.5343 20.12 19.4432 20.038 19.2428 20.038C19.0788 20.038 19.0697 20.0289 19.1152 19.9515C19.1836 19.8467 19.138 19.7191 19.0241 19.6873C18.9695 19.6736 18.9194 19.5916 18.8784 19.4595C18.7599 19.0313 18.3135 18.5212 17.858 18.2934C17.398 18.0656 17.3524 18.0565 15.6716 18.0338L14.0773 18.011L14.8061 17.6511C15.207 17.4553 15.7445 17.1956 15.9995 17.0726C16.3776 16.895 16.4733 16.8312 16.496 16.7356C16.5507 16.5124 16.3594 16.2573 16.1271 16.2573C16.0633 16.2573 15.831 16.0067 15.831 15.9339C15.831 15.9111 15.8583 15.8929 15.8902 15.8929C15.9904 15.8929 16.1499 15.6879 16.1499 15.5603C16.1499 15.4328 16.0724 15.2643 15.3755 13.8203C15.1705 13.3921 14.9245 12.8819 14.8289 12.6815C14.7332 12.4811 14.4918 11.9709 14.2868 11.5473C14.0818 11.1282 13.9179 10.7684 13.9179 10.7501C13.9179 10.7319 13.8678 10.6681 13.804 10.6089C13.6901 10.4996 13.5125 10.4723 13.3394 10.5315C13.2619 10.5588 13.2346 10.5452 13.2118 10.4677C13.1936 10.4131 13.2027 10.3584 13.23 10.3402C13.2665 10.3174 13.2801 10.0304 13.271 9.37449L13.2574 8.44525L12.3372 8.43159C11.8316 8.42703 11.408 8.43614 11.3989 8.45436ZM13.1298 11.4152C13.0387 11.4607 13.0205 11.4425 12.8884 11.1647L12.7426 10.8595L12.8383 10.8048C12.9294 10.7592 12.9476 10.7775 13.0797 11.0553L13.2255 11.3605L13.1298 11.4152ZM13.7903 11.693C14.3005 12.7726 14.5237 13.2327 14.8517 13.9114C15.0566 14.335 15.2616 14.7677 15.3072 14.868C15.3527 14.9682 15.3983 15.0638 15.4074 15.0866C15.421 15.1048 15.3573 15.1504 15.2753 15.1868C15.1933 15.2278 15.0931 15.2779 15.0566 15.3007C15.0202 15.3235 14.8562 15.4055 14.6922 15.4783C14.5282 15.5512 14.1411 15.7334 13.8268 15.8837L13.2574 16.1571L13.2027 16.0341C13.1708 15.9703 12.9886 15.5877 12.7973 15.1868C12.606 14.786 12.3509 14.253 12.2325 14.0025C12.114 13.752 11.8999 13.3056 11.7587 13.014C11.6175 12.7179 11.5036 12.4674 11.5036 12.4583C11.5036 12.4446 11.7451 12.3171 12.0412 12.1759C12.3327 12.0347 12.8019 11.8069 13.0752 11.6748C13.353 11.5382 13.599 11.4288 13.6218 11.4288C13.6491 11.4288 13.722 11.5473 13.7903 11.693ZM15.3436 15.7744C15.4393 15.9794 15.4575 16.0523 15.4165 16.1024C15.3892 16.1388 15.3436 16.1662 15.3208 16.1662C15.2616 16.1662 15.002 15.5831 15.0339 15.5239C15.0976 15.4237 15.2206 15.5193 15.3436 15.7744Z" fill="#fff"/>
<path d="M13.7218 8.45431C13.7036 8.46798 13.6899 8.90071 13.6899 9.41088V10.3356H14.6465H15.6031V9.379V8.42243H14.6784C14.1682 8.42243 13.7355 8.43609 13.7218 8.45431Z" fill="#fff"/>
<path d="M39.3261 8.969C39.1166 9.08288 38.9071 9.33341 38.8387 9.55661C38.7567 9.83902 38.7431 9.83447 39.2897 9.83447H39.7907V9.35618V8.8779H39.645C39.563 8.88245 39.4218 8.92345 39.3261 8.969Z" fill="#fff"/>
<path d="M40.0183 9.35619V9.83447H40.5239H41.0341L41.0022 9.69326C40.9157 9.25142 40.5148 8.8779 40.1322 8.8779H40.0183V9.35619Z" fill="#fff"/>
<path d="M38.7886 10.5862V11.0645H39.2896H39.7907V10.5862V10.1079H39.2896H38.7886V10.5862Z" fill="#fff"/>
<path d="M40.0183 10.5862V11.0645H40.5194H41.0204V10.5862V10.1079H40.5194H40.0183V10.5862Z" fill="#fff"/>
<path d="M25.3147 14.6721L25.3284 15.0957L25.547 15.1094L25.7611 15.1231V16.1708V17.2139H25.5333H25.3056V17.6466V18.0793H26.2849H27.2643V17.6967V17.3095L27.073 17.2959L26.8771 17.2822L26.8634 17.0636L26.8498 16.8495H27.0684H27.2871L27.5285 17.2048C27.7471 17.5282 27.7653 17.5783 27.7653 17.8151V18.0793H28.5397H29.3186L29.305 17.6557L29.2913 17.2367L29.0317 17.2139C28.7811 17.1911 28.7675 17.182 28.5898 16.9451L28.4076 16.7037L28.6217 16.5534C28.7401 16.4759 28.8996 16.3074 28.9724 16.189C29.0954 15.9886 29.1091 15.9339 29.1091 15.5786C29.1091 15.2643 29.0863 15.1504 29.0089 15.0046C28.8768 14.7541 28.608 14.5036 28.3347 14.3806C28.1161 14.2804 28.0569 14.2758 26.704 14.2622L25.301 14.2485L25.3147 14.6721ZM27.9521 15.2506C28.0842 15.4146 28.0705 15.7745 27.9248 15.9157C27.82 16.0204 27.7836 16.0295 27.3326 16.0295H26.8543V15.5695V15.1094L27.3599 15.1276C27.8246 15.1413 27.8701 15.1504 27.9521 15.2506Z" fill="#fff"/>
<path d="M29.6877 14.6721L29.7014 15.0957L29.92 15.1094L30.1341 15.1231V16.1662V17.2093L29.92 17.223L29.7014 17.2367L29.6877 17.6557L29.6741 18.0793H31.4096H33.1405V17.4416V16.7994L32.7214 16.813L32.2978 16.8267L32.2841 16.9952L32.2705 17.1683H31.7239H31.1818V16.8722V16.5762H31.6373H32.0928V16.1662V15.7562H31.6373H31.1818V15.4602V15.1641H31.7057H32.2295V15.3463V15.5285H32.6394H33.0494V14.8908V14.2531H31.364H29.6741L29.6877 14.6721Z" fill="#fff"/>
<path d="M33.55 14.6812V15.1185H33.7778H34.0056V16.1662V17.2139H33.7778H33.55V17.6466V18.0793H34.5294H35.5087V17.6922V17.305H35.3038H35.0988V17.0772V16.8495H35.3038C35.5042 16.8495 35.5087 16.854 35.7365 17.1774C35.9506 17.4826 35.9643 17.5191 35.9643 17.7924V18.0793H36.7386H37.513V17.6466V17.2139H37.267C37.0256 17.2139 37.021 17.2139 36.8343 16.9633C36.7341 16.8267 36.6475 16.7083 36.6475 16.6946C36.6475 16.6855 36.7341 16.6263 36.8434 16.5625C37.4902 16.1844 37.5494 15.1732 36.9573 14.6402C36.5701 14.2849 36.5245 14.2758 34.953 14.2622L33.55 14.2485V14.6812ZM36.069 15.1686C36.3514 15.2962 36.3514 15.8519 36.069 15.9794C36.0098 16.0068 35.7684 16.0295 35.5315 16.0295H35.0988V15.574V15.1185H35.5315C35.7684 15.1185 36.0098 15.1413 36.069 15.1686Z" fill="#fff"/>
<path d="M38.7065 14.6721L38.7202 15.0957L38.916 15.1094C39.08 15.1231 39.1073 15.1367 39.0846 15.2051C39.0709 15.2461 38.8705 15.7107 38.6336 16.2345L38.2054 17.1911L37.9959 17.2048C37.882 17.2139 37.7818 17.2321 37.7818 17.2503C37.7773 17.2685 37.7727 17.4599 37.7681 17.6785L37.759 18.0793H38.7293H39.6995V17.6922V17.305H39.5128C39.3579 17.305 39.3305 17.2913 39.3533 17.2321C39.367 17.1911 39.3943 17.1091 39.408 17.0499L39.4353 16.9406H40.114H40.7927L40.8428 17.0636C40.9066 17.2321 40.8656 17.305 40.7016 17.305H40.565V17.6922V18.0793H41.5216H42.4781V17.6512V17.2184L42.264 17.2048L42.0499 17.1911L41.394 15.7198L40.7335 14.2531H39.7132H38.6928L38.7065 14.6721ZM40.1414 16.066C39.9683 16.0751 39.8179 16.0705 39.8088 16.0614C39.7906 16.0478 39.8908 15.7654 40.0639 15.3235C40.1186 15.1869 40.1186 15.1914 40.2871 15.6196L40.4557 16.0523L40.1414 16.066Z" fill="#fff"/>
<path d="M1.58255 21.3681C1.59166 21.4455 1.63266 21.4774 1.72376 21.4865L1.84675 21.5002V22.2245V22.9487L1.72376 22.9624C1.63266 22.9715 1.59166 23.0034 1.58255 23.0763C1.56889 23.1765 1.578 23.181 1.95607 23.181C2.34326 23.181 2.34781 23.181 2.34781 23.0672C2.34781 22.9715 2.32504 22.9533 2.21116 22.9533C2.07451 22.9533 2.07451 22.9487 2.07451 22.7027V22.4522H2.27038C2.45714 22.4522 2.47536 22.4659 2.68034 22.7301C2.79877 22.8849 2.89443 23.0489 2.89443 23.0945C2.89443 23.1674 2.93087 23.181 3.14496 23.181C3.38182 23.181 3.39549 23.1765 3.39549 23.0672C3.39549 22.9715 3.37271 22.9533 3.26339 22.9533C3.16318 22.9533 3.09485 22.9032 2.94909 22.7164C2.75777 22.4704 2.74866 22.4067 2.89443 22.4067C3.02652 22.4067 3.24972 22.188 3.29983 22.0195C3.34538 21.8509 3.29983 21.5776 3.20873 21.4683C3.07208 21.2998 2.91265 21.2679 2.23394 21.2679C1.56889 21.2679 1.56889 21.2679 1.58255 21.3681ZM2.97186 21.5959C3.12218 21.7371 3.11763 22.0058 2.9582 22.1288C2.85799 22.2062 2.77144 22.2245 2.45714 22.2245H2.07451V21.86V21.4956H2.4708C2.81243 21.4956 2.88076 21.5093 2.97186 21.5959Z" fill="#fff"/>
<path d="M7.08496 21.359C7.08496 21.4273 7.11685 21.4501 7.19884 21.4501H7.31272V22.2017V22.9533H7.19884C7.10774 22.9533 7.08496 22.9761 7.08496 23.0672C7.08496 23.1765 7.09407 23.181 7.40382 23.181C7.71812 23.181 7.72268 23.181 7.72268 23.0626C7.72268 22.9669 7.70446 22.9487 7.63157 22.9669C7.54503 22.9897 7.54047 22.9669 7.54047 22.1288V21.2679H7.31272C7.11685 21.2679 7.08496 21.2815 7.08496 21.359Z" fill="#fff"/>
<path d="M8.64282 21.3681C8.65193 21.4455 8.69292 21.4774 8.78402 21.4865L8.90701 21.5002V22.229V22.9533H8.77036C8.65648 22.9533 8.63371 22.9715 8.63371 23.0672V23.181H9.45363H10.2735V22.9305C10.2735 22.6936 10.269 22.68 10.1597 22.68C10.064 22.68 10.0458 22.7027 10.0458 22.8166V22.9533H9.59028H9.13477V22.6344V22.3156H9.5675C10.0002 22.3156 10.0002 22.3156 10.0002 22.2017C10.0002 22.0878 10.0002 22.0878 9.5675 22.0878H9.13477V21.7917V21.4956H9.5675H10.0002V21.6323C10.0002 21.7462 10.0185 21.7689 10.1141 21.7689C10.2234 21.7689 10.228 21.7553 10.228 21.5184V21.2679H9.42629H8.62915L8.64282 21.3681Z" fill="#fff"/>
<path d="M18.2085 21.3681C18.2176 21.4455 18.2586 21.4774 18.3497 21.4865L18.4727 21.5002V22.2245V22.9487L18.3497 22.9624C18.2586 22.9715 18.2176 23.0034 18.2085 23.0763C18.1949 23.1765 18.204 23.181 18.5821 23.181C18.9692 23.181 18.9738 23.181 18.9738 23.0672C18.9738 22.9715 18.951 22.9533 18.8371 22.9533C18.7005 22.9533 18.7005 22.9487 18.7005 22.7027V22.4522H18.8964C19.0831 22.4522 19.1013 22.4659 19.3063 22.7301C19.4247 22.8849 19.5204 23.0489 19.5204 23.0945C19.5204 23.1674 19.5568 23.181 19.7709 23.181C20.0078 23.181 20.0215 23.1765 20.0215 23.0672C20.0215 22.9715 19.9987 22.9533 19.8894 22.9533C19.7892 22.9533 19.7208 22.9032 19.5751 22.7164C19.3837 22.4704 19.3746 22.4067 19.5204 22.4067C19.6525 22.4067 19.8757 22.188 19.9258 22.0195C19.9714 21.8509 19.9258 21.5776 19.8347 21.4683C19.6981 21.2998 19.5386 21.2679 18.8599 21.2679C18.1949 21.2679 18.1949 21.2679 18.2085 21.3681ZM19.5978 21.5959C19.7482 21.7371 19.7436 22.0058 19.5842 22.1288C19.484 22.2062 19.3974 22.2245 19.0831 22.2245H18.7005V21.86V21.4956H19.0968C19.4384 21.4956 19.5067 21.5093 19.5978 21.5959Z" fill="#fff"/>
<path d="M25.3372 21.3317C25.3053 21.4136 25.3417 21.4501 25.451 21.4501C25.5285 21.4501 25.533 21.5048 25.533 22.2153C25.533 22.9806 25.533 22.9852 25.4328 22.9806C25.3554 22.9761 25.3235 23.0034 25.3144 23.0763C25.3007 23.1765 25.3144 23.181 25.6423 23.181C25.984 23.181 25.9885 23.181 25.9885 23.0672C25.9885 22.9988 25.9658 22.9533 25.9339 22.9578C25.7608 22.9806 25.7608 22.9715 25.7608 22.1106V21.2679H25.5604C25.4328 21.2679 25.3508 21.2907 25.3372 21.3317Z" fill="#fff"/>
<path d="M35.0081 21.3818C35.0081 21.4683 35.0309 21.4956 35.1037 21.4956C35.2222 21.4956 35.2222 21.4911 34.8532 22.2973C34.6254 22.7847 34.5389 22.9351 34.466 22.9442C34.3977 22.9533 34.3704 22.9943 34.3704 23.0717C34.3704 23.1765 34.3795 23.181 34.712 23.181C35.0445 23.181 35.0536 23.1765 35.0536 23.0672C35.0536 22.9761 35.0309 22.9533 34.9398 22.9533C34.8077 22.9533 34.8031 22.9442 34.8942 22.7711L34.9671 22.6344H35.4545H35.9464L36.0239 22.7938L36.1013 22.9533H35.9874C35.8963 22.9533 35.8735 22.9761 35.8735 23.0672C35.8735 23.1765 35.8827 23.181 36.2152 23.181C36.5477 23.181 36.5568 23.1765 36.5568 23.0672C36.5568 22.9806 36.534 22.9533 36.4566 22.9533C36.3655 22.9533 36.3017 22.844 35.9829 22.1197L35.6185 21.2907L35.3133 21.277C35.0126 21.2633 35.0081 21.2679 35.0081 21.3818ZM35.6595 21.9512C35.7506 22.1744 35.828 22.3702 35.828 22.3839C35.828 22.3976 35.6549 22.4067 35.4454 22.4067H35.0582L35.2495 21.9739C35.3543 21.7371 35.4499 21.5412 35.4681 21.5412C35.4818 21.5412 35.5684 21.7234 35.6595 21.9512Z" fill="#fff"/>
<path d="M39.5173 21.359C39.5173 21.4273 39.5492 21.4501 39.6312 21.4501H39.7451V22.2245V22.9988H39.6312C39.5492 22.9988 39.5173 23.0216 39.5173 23.0899C39.5173 23.1719 39.5492 23.181 39.859 23.181C40.1687 23.181 40.2006 23.1719 40.2006 23.0899C40.2006 23.0216 40.1687 22.9988 40.0867 22.9988C39.9774 22.9988 39.9728 22.9897 39.9728 22.6526C39.9728 22.4659 39.9956 22.27 40.0184 22.2199C40.0913 22.0924 40.3236 21.9876 40.4739 22.0195C40.6971 22.0696 40.7609 22.188 40.7837 22.5934C40.8019 22.9351 40.7973 22.9624 40.7062 22.9852C40.6516 22.9988 40.6106 23.0444 40.6106 23.0945C40.6106 23.1719 40.647 23.181 40.9294 23.181C41.2164 23.181 41.2483 23.1719 41.2483 23.0899C41.2483 23.0262 41.2164 22.9988 41.139 22.9988C41.0387 22.9988 41.0342 22.9806 41.0114 22.5934C40.975 21.9921 40.8383 21.8145 40.4101 21.8145C40.278 21.8145 40.1733 21.8464 40.0913 21.9102L39.9728 22.0013V21.6368V21.2679H39.7451C39.5492 21.2679 39.5173 21.2815 39.5173 21.359Z" fill="#fff"/>
<path d="M44.5464 21.3317C44.5008 21.4502 44.5646 21.5504 44.6739 21.5322C44.7513 21.523 44.7787 21.4866 44.7787 21.4046C44.7787 21.3226 44.7513 21.2862 44.6739 21.2771C44.6147 21.268 44.56 21.2907 44.5464 21.3317Z" fill="#fff"/>
<path d="M12.0958 21.6324C12.0958 21.8055 12.0867 21.8146 11.9592 21.8146C11.8544 21.8146 11.8225 21.8329 11.8225 21.9057C11.8225 21.9786 11.8544 21.9968 11.9592 21.9968H12.0958V22.4159C12.0958 23.0582 12.2507 23.2768 12.6515 23.1948C12.7518 23.1766 12.7791 23.1493 12.77 23.0718C12.7563 22.9899 12.729 22.9807 12.5878 22.9899C12.36 23.0126 12.3145 22.917 12.3327 22.4159L12.3463 22.0196L12.565 22.0059C12.7426 21.9923 12.7836 21.9786 12.77 21.9148C12.7609 21.8556 12.6971 21.8329 12.5377 21.8237L12.3236 21.8101V21.6279C12.3236 21.4684 12.3099 21.4502 12.2097 21.4502C12.1095 21.4502 12.0958 21.4684 12.0958 21.6324Z" fill="#fff"/>
<path d="M15.0111 21.6324C15.0111 21.8055 15.002 21.8146 14.8744 21.8146C14.7697 21.8146 14.7378 21.8329 14.7378 21.9057C14.7378 21.9786 14.7697 21.9968 14.8744 21.9968H15.0111V22.4159C15.0111 23.0582 15.166 23.2768 15.5668 23.1948C15.667 23.1766 15.6944 23.1493 15.6853 23.0718C15.6716 22.9899 15.6443 22.9807 15.5031 22.9899C15.2753 23.0126 15.2297 22.917 15.248 22.4159L15.2616 22.0196L15.4803 22.0059C15.6579 21.9923 15.6989 21.9786 15.6853 21.9148C15.6761 21.8556 15.6124 21.8329 15.4529 21.8237L15.2389 21.8101V21.6279C15.2389 21.4684 15.2252 21.4502 15.125 21.4502C15.0248 21.4502 15.0111 21.4684 15.0111 21.6324Z" fill="#fff"/>
<path d="M28.2665 21.6324C28.2665 21.8055 28.2574 21.8146 28.1298 21.8146C28.025 21.8146 27.9932 21.8374 27.9932 21.9011C27.9932 21.9649 28.0296 21.9968 28.1207 22.0059L28.2437 22.0196L28.2665 22.507C28.2847 22.9351 28.3029 23.008 28.3895 23.0991C28.558 23.2631 28.9634 23.2267 28.9179 23.049C28.8996 22.9761 28.8677 22.9625 28.763 22.9852C28.5352 23.0308 28.4942 22.9488 28.4942 22.4477V21.9968H28.6992C28.8723 21.9968 28.9042 21.9831 28.9042 21.9057C28.9042 21.8282 28.8723 21.8146 28.6992 21.8146H28.4942V21.6324C28.4942 21.4684 28.4851 21.4502 28.3803 21.4502C28.2801 21.4502 28.2665 21.4684 28.2665 21.6324Z" fill="#fff"/>
<path d="M38.6974 21.6324C38.6974 21.8055 38.6883 21.8146 38.5607 21.8146C38.456 21.8146 38.4241 21.8374 38.4241 21.9011C38.4241 21.9649 38.4605 21.9968 38.5516 22.0059L38.6746 22.0196L38.6974 22.507C38.7156 22.9351 38.7338 23.008 38.8204 23.0991C38.9889 23.2631 39.3943 23.2267 39.3488 23.049C39.3305 22.9761 39.2987 22.9625 39.1939 22.9852C38.9661 23.0308 38.9251 22.9488 38.9251 22.4477V21.9968H39.1301C39.3032 21.9968 39.3351 21.9831 39.3351 21.9057C39.3351 21.8282 39.3032 21.8146 39.1301 21.8146H38.9251V21.6324C38.9251 21.4684 38.916 21.4502 38.8113 21.4502C38.711 21.4502 38.6974 21.4684 38.6974 21.6324Z" fill="#fff"/>
<path d="M45.3934 21.6322C45.3934 21.8053 45.3843 21.8144 45.2568 21.8144C45.152 21.8144 45.1201 21.8372 45.1201 21.9009C45.1201 21.9647 45.1566 21.9966 45.2477 22.0057L45.3706 22.0194L45.3798 22.4521C45.3889 22.689 45.4025 22.9304 45.4162 22.9896C45.4481 23.1217 45.7077 23.2401 45.8854 23.1992C46.0676 23.1536 46.0812 23.1399 46.0357 23.0488C46.0038 22.9942 45.9537 22.9759 45.858 22.9896C45.6622 23.0169 45.6166 22.9213 45.6121 22.4886C45.6121 22.279 45.6121 22.0831 45.6166 22.0513C45.6212 22.0194 45.6941 21.9966 45.8262 21.9966C45.9993 21.9966 46.0311 21.9829 46.0311 21.9055C46.0311 21.8281 45.9993 21.8144 45.8262 21.8144H45.6212V21.6322C45.6212 21.4682 45.6121 21.45 45.5073 21.45C45.4071 21.45 45.3934 21.4682 45.3934 21.6322Z" fill="#fff"/>
<path d="M23.0371 21.8145C22.9915 21.8874 22.9642 21.8965 22.8913 21.8601C22.8458 21.8373 22.7 21.8145 22.5679 21.8145C22.1489 21.8145 21.871 22.0833 21.8801 22.4796C21.8847 22.8759 22.0896 23.0672 22.5907 23.1355C23.0325 23.1993 23.192 23.4635 22.9278 23.6912C22.7911 23.8097 22.3948 23.8006 22.2354 23.6776C22.1716 23.6275 22.117 23.5455 22.117 23.4954C22.117 23.4316 22.0851 23.4088 22.0031 23.4088C21.7571 23.4088 21.9348 23.8097 22.2354 23.9372C22.6044 24.0921 23.1145 23.9463 23.2375 23.6548C23.3241 23.4453 23.2557 23.2038 23.0735 23.0991L22.946 23.0262L23.0599 22.9351C23.1874 22.8394 23.3013 22.6026 23.3013 22.4431C23.3013 22.3839 23.2603 22.2655 23.2147 22.1744C23.1328 22.0241 23.1328 22.0013 23.1965 21.9375C23.2557 21.8783 23.2603 21.851 23.2102 21.7963C23.1373 21.7007 23.1054 21.7052 23.0371 21.8145ZM22.9506 22.1789C23.2239 22.4887 23.0052 22.9214 22.5725 22.9214C22.3356 22.9214 22.1762 22.8121 22.1215 22.6117C21.9849 22.1106 22.5998 21.7872 22.9506 22.1789Z" fill="#fff"/>
<path d="M3.94178 21.9149C3.4316 22.261 3.57281 23.0536 4.16953 23.1857C4.38818 23.2358 4.65237 23.1812 4.8118 23.0491C4.89835 22.9808 4.90746 22.9534 4.86191 22.8942C4.8118 22.835 4.78447 22.8395 4.63871 22.9124C4.37451 23.0445 4.18775 23.0263 4.00555 22.8441C3.919 22.7576 3.85067 22.6665 3.85067 22.6391C3.85067 22.6072 4.04199 22.589 4.44739 22.589H5.04411L5.01223 22.3931C4.97123 22.1608 4.93935 22.0971 4.78903 21.9513C4.60682 21.7873 4.16498 21.7645 3.94178 21.9149ZM4.55216 22.0424C4.64782 22.0788 4.80725 22.2884 4.80725 22.384C4.80725 22.3977 4.59316 22.4068 4.32896 22.4068C4.06476 22.4068 3.85067 22.3886 3.85067 22.3658C3.85067 22.2975 4.04199 22.0834 4.1422 22.0424C4.2743 21.9877 4.41551 21.9877 4.55216 22.0424Z" fill="#fff"/>
<path d="M5.55024 21.9055C5.14939 22.147 5.14483 22.8029 5.54568 23.1035C5.72333 23.2356 6.11052 23.2311 6.30183 23.0944C6.4476 22.9942 6.4476 22.9942 6.4476 23.0853C6.4476 23.1673 6.47493 23.181 6.67535 23.181C6.87122 23.181 6.90311 23.1673 6.90311 23.0899C6.90311 23.0215 6.87122 22.9988 6.78923 22.9988H6.67535V22.525C6.67535 22.065 6.67991 22.0468 6.78012 22.0331C6.84389 22.024 6.88033 21.9875 6.88033 21.9283C6.88033 21.8509 6.84389 21.8372 6.66624 21.8236C6.45671 21.8099 6.4476 21.8144 6.4476 21.9283V22.0513L6.30639 21.9329C6.12874 21.7826 5.77344 21.7689 5.55024 21.9055ZM6.25628 22.1196C6.4977 22.27 6.4977 22.6617 6.26084 22.8803C6.13329 22.9897 6.08774 23.0079 5.91465 22.9851C5.67323 22.9578 5.55479 22.8576 5.48647 22.6298C5.44092 22.484 5.44547 22.4339 5.52291 22.2836C5.66412 22.0149 5.97386 21.942 6.25628 22.1196Z" fill="#fff"/>
<path d="M10.6927 21.9284C10.4103 22.1653 10.5288 22.4613 10.9478 22.5433C11.3578 22.6299 11.458 22.68 11.458 22.7939C11.458 22.9032 11.2986 22.9988 11.1209 22.9988C10.9296 22.9988 10.7292 22.9032 10.7292 22.8121C10.7292 22.7574 10.6973 22.7255 10.6381 22.7255C10.5652 22.7255 10.547 22.7574 10.547 22.8804C10.547 23.0672 10.6016 23.1173 10.8841 23.1811C11.4443 23.304 11.8771 22.9351 11.5947 22.5752C11.5263 22.4887 11.4307 22.4431 11.2394 22.4067C10.8795 22.3384 10.7747 22.2883 10.7747 22.1835C10.7747 22.0696 10.9023 21.9967 11.1118 21.9967C11.3396 21.9967 11.4125 22.0377 11.4125 22.1607C11.4125 22.2381 11.4398 22.27 11.499 22.27C11.5628 22.27 11.5901 22.229 11.6038 22.1106C11.6311 21.8874 11.5537 21.8419 11.1665 21.8236C10.8658 21.8054 10.8248 21.8145 10.6927 21.9284Z" fill="#fff"/>
<path d="M13.2936 21.9055C12.8928 22.147 12.8882 22.8029 13.2891 23.1035C13.4667 23.2356 13.8539 23.2311 14.0452 23.0944C14.191 22.9942 14.191 22.9942 14.191 23.0853C14.191 23.1673 14.2183 23.181 14.4188 23.181C14.6146 23.181 14.6465 23.1673 14.6465 23.0899C14.6465 23.0215 14.6146 22.9988 14.5326 22.9988H14.4188V22.525C14.4188 22.065 14.4233 22.0468 14.5235 22.0331C14.5873 22.024 14.6237 21.9875 14.6237 21.9283C14.6237 21.8509 14.5873 21.8372 14.4096 21.8236C14.2001 21.8099 14.191 21.8144 14.191 21.9283V22.0513L14.0498 21.9329C13.8721 21.7826 13.5168 21.7689 13.2936 21.9055ZM13.9997 22.1196C14.2411 22.27 14.2411 22.6617 14.0042 22.8803C13.8767 22.9897 13.8312 23.0079 13.6581 22.9851C13.4166 22.9578 13.2982 22.8576 13.2299 22.6298C13.1843 22.484 13.1889 22.4339 13.2663 22.2836C13.4075 22.0149 13.7173 21.942 13.9997 22.1196Z" fill="#fff"/>
<path d="M16.2088 21.9057C15.7897 22.1608 15.8079 22.8577 16.2407 23.1083C16.4548 23.2358 16.8146 23.2267 17.0378 23.09C17.1927 22.9944 17.1972 22.9853 17.1289 22.9078C17.056 22.8258 17.0469 22.8258 16.8966 22.9169C16.6187 23.0809 16.1496 22.9261 16.1496 22.671C16.1496 22.5981 16.1997 22.589 16.719 22.589H17.2884V22.4751C17.2884 22.2701 17.1471 22.0014 16.9923 21.9057C16.7964 21.7827 16.4092 21.7827 16.2088 21.9057ZM16.9558 22.1562C17.1471 22.3794 17.1107 22.4068 16.6051 22.4068C16.1951 22.4068 16.1496 22.3977 16.1496 22.3248C16.1496 22.2382 16.2999 22.0742 16.4229 22.0287C16.5732 21.9695 16.8556 22.0378 16.9558 22.1562Z" fill="#fff"/>
<path d="M20.5682 21.9149C20.0581 22.261 20.1993 23.0536 20.796 23.1857C21.0146 23.2358 21.2788 23.1812 21.4383 23.0491C21.5248 22.9808 21.5339 22.9534 21.4884 22.8942C21.4383 22.835 21.4109 22.8395 21.2652 22.9124C21.001 23.0445 20.8142 23.0263 20.632 22.8441C20.5455 22.7576 20.4771 22.6665 20.4771 22.6391C20.4771 22.6072 20.6685 22.589 21.0739 22.589H21.6706L21.6387 22.3931C21.5977 22.1608 21.5658 22.0971 21.4155 21.9513C21.2333 21.7873 20.7914 21.7645 20.5682 21.9149ZM21.1786 22.0424C21.2743 22.0788 21.4337 22.2884 21.4337 22.384C21.4337 22.3977 21.2196 22.4068 20.9554 22.4068C20.6912 22.4068 20.4771 22.3886 20.4771 22.3658C20.4771 22.2975 20.6685 22.0834 20.7687 22.0424C20.9008 21.9877 21.042 21.9877 21.1786 22.0424Z" fill="#fff"/>
<path d="M23.456 21.8829C23.4195 21.9694 23.4696 22.0423 23.5698 22.0423C23.6427 22.0423 23.6564 22.0924 23.6746 22.4522C23.6974 22.9305 23.7748 23.0763 24.0527 23.172C24.244 23.2357 24.5219 23.1856 24.6403 23.0672C24.7314 22.9761 24.7587 22.9806 24.7587 23.09C24.7587 23.1674 24.7906 23.1811 24.9637 23.1811C25.1505 23.1811 25.1687 23.172 25.1687 23.0672C25.1687 22.9761 25.1459 22.9533 25.0548 22.9533H24.9409V22.3839V21.8145H24.7086C24.4945 21.8145 24.4809 21.8236 24.4945 21.9147C24.5036 21.9831 24.5446 22.0241 24.613 22.0332C24.7086 22.0468 24.7132 22.0696 24.7132 22.3885C24.7132 22.7073 24.7041 22.7438 24.5811 22.8668C24.4399 23.008 24.2895 23.0307 24.1073 22.9487C23.9388 22.8713 23.8933 22.721 23.8933 22.2473V21.8145H23.6883C23.5471 21.8145 23.4742 21.8373 23.456 21.8829Z" fill="#fff"/>
<path d="M26.5124 21.9056C26.2209 22.0969 26.1206 22.5889 26.3074 22.8941C26.4896 23.1947 26.9907 23.2995 27.264 23.0991C27.4006 22.9988 27.4006 22.9988 27.4006 23.0899C27.4006 23.1674 27.428 23.181 27.6284 23.181C27.8243 23.181 27.8561 23.1674 27.8561 23.0899C27.8561 23.0216 27.8243 22.9988 27.7423 22.9988H27.6284V22.5206V22.0423H27.7423C27.8334 22.0423 27.8561 22.0195 27.8561 21.9284C27.8561 21.8236 27.8425 21.8145 27.6284 21.8145C27.4097 21.8145 27.4006 21.8191 27.3961 21.9375C27.3961 22.0104 27.3824 22.0377 27.3687 22.0058C27.2913 21.8145 26.7492 21.7507 26.5124 21.9056ZM27.0681 22.0423C27.1045 22.0423 27.1956 22.1015 27.2685 22.1744C27.4188 22.3292 27.4462 22.5524 27.3323 22.7665C27.2002 23.0307 26.7492 23.0717 26.5488 22.8394C26.2801 22.5297 26.5716 21.9284 26.936 22.024C26.9724 22.0332 27.0271 22.0423 27.0681 22.0423Z" fill="#fff"/>
<path d="M29.4596 21.9057C29.1407 22.1015 29.036 22.5206 29.2273 22.8622C29.4733 23.295 30.111 23.3132 30.4253 22.8941C30.5483 22.7256 30.5574 22.2974 30.4389 22.1152C30.2431 21.8191 29.7693 21.7189 29.4596 21.9057ZM30.0153 22.0423C30.193 22.1106 30.3251 22.3475 30.2977 22.557C30.2567 22.9032 29.906 23.0945 29.6099 22.9306C29.1817 22.7028 29.3412 22.0195 29.824 22.0013C29.865 21.9968 29.9515 22.015 30.0153 22.0423Z" fill="#fff"/>
<path d="M30.7716 21.9284C30.7716 22.0149 30.7944 22.0423 30.8764 22.0423C30.9766 22.0423 30.9766 22.0514 30.972 22.4841C30.9629 23.0353 30.972 22.9897 30.8536 23.0079C30.8035 23.017 30.7534 23.058 30.7443 23.099C30.7352 23.1719 30.7762 23.181 31.0723 23.181C31.3774 23.181 31.4093 23.1719 31.4093 23.0899C31.4093 23.0307 31.3774 22.9988 31.3182 22.9988C31.2362 22.9988 31.2271 22.9669 31.2271 22.6116C31.2271 22.2791 31.2408 22.2108 31.3228 22.1288C31.4048 22.0468 31.4594 22.0377 31.6416 22.0514C31.833 22.0696 31.8648 22.0605 31.8922 21.983C31.9286 21.8646 31.8421 21.8145 31.6098 21.8145C31.4868 21.8145 31.3774 21.8464 31.3 21.9102L31.1816 22.0013V21.9102C31.1816 21.8282 31.1542 21.8145 30.9766 21.8145C30.7898 21.8145 30.7716 21.8236 30.7716 21.9284Z" fill="#fff"/>
<path d="M32.0105 21.9148C32.0196 21.9786 32.0606 22.0241 32.1153 22.0332C32.1881 22.0424 32.2656 22.1745 32.4523 22.6117L32.6938 23.1766L32.5981 23.3861C32.5116 23.5865 32.4933 23.6002 32.3658 23.582C32.2565 23.5638 32.2109 23.582 32.1745 23.6503C32.1153 23.7642 32.1927 23.8188 32.4159 23.8188C32.5207 23.8188 32.6072 23.787 32.6573 23.7323C32.7029 23.6822 32.8896 23.2859 33.0718 22.8532C33.3406 22.2109 33.418 22.0606 33.5 22.0515C33.5683 22.0424 33.5957 22.0014 33.5957 21.9239C33.5957 21.8192 33.582 21.8146 33.2768 21.8146C32.9671 21.8146 32.958 21.8192 32.958 21.9285C32.958 22.015 32.9807 22.0424 33.0536 22.0424C33.1128 22.0424 33.1402 22.0651 33.1265 22.097C33.1174 22.1289 33.0491 22.3157 32.9762 22.507C32.9033 22.7028 32.835 22.8623 32.8213 22.8623C32.8076 22.8623 32.7256 22.6801 32.6345 22.4569C32.4797 22.0788 32.4706 22.0469 32.5526 22.0287C32.6027 22.015 32.6391 21.9649 32.6391 21.9103C32.6391 21.8237 32.6118 21.8146 32.3157 21.8146C32.0105 21.8146 31.9968 21.8192 32.0105 21.9148Z" fill="#fff"/>
<path d="M36.6021 21.9285C36.6021 22.0105 36.6248 22.0424 36.6886 22.0424C36.7615 22.0424 36.7751 22.0925 36.7934 22.4204C36.8207 22.8395 36.8981 23.0399 37.0758 23.1356C37.258 23.2312 37.5677 23.213 37.7272 23.0991C37.8638 23.0035 37.8684 23.0035 37.8911 23.09C37.9094 23.1629 37.9549 23.1811 38.128 23.1811C38.3193 23.1811 38.3375 23.172 38.3239 23.0764C38.3148 23.0126 38.2738 22.9716 38.21 22.9625C38.1098 22.9488 38.1052 22.9352 38.1052 22.3794V21.8146H37.8775C37.6634 21.8146 37.6497 21.8237 37.6497 21.9285C37.6497 22.0196 37.6725 22.0424 37.7682 22.0424H37.8911L37.8684 22.3703C37.8456 22.7302 37.7818 22.8759 37.6178 22.9488C37.4447 23.0263 37.299 23.008 37.1623 22.8896C37.0439 22.7848 37.0348 22.7621 37.0211 22.2974L37.0029 21.8146H36.8025C36.6203 21.8146 36.6021 21.8237 36.6021 21.9285Z" fill="#fff"/>
<path d="M41.713 21.9057C41.3941 22.1015 41.2894 22.5206 41.4807 22.8622C41.7267 23.295 42.3644 23.3132 42.6787 22.8941C42.8017 22.7256 42.8108 22.2974 42.6924 22.1152C42.4965 21.8191 42.0228 21.7189 41.713 21.9057ZM42.2687 22.0423C42.4464 22.1106 42.5785 22.3475 42.5511 22.557C42.5101 22.9032 42.1594 23.0945 41.8633 22.9306C41.4351 22.7028 41.5946 22.0195 42.0774 22.0013C42.1184 21.9968 42.205 22.015 42.2687 22.0423Z" fill="#fff"/>
<path d="M43.025 21.9284C43.025 22.0149 43.0478 22.0423 43.1298 22.0423C43.23 22.0423 43.23 22.0514 43.2255 22.4841C43.2163 23.0353 43.2255 22.9897 43.107 23.0079C43.0569 23.017 43.0068 23.058 42.9977 23.099C42.9886 23.1719 43.0296 23.181 43.3257 23.181C43.6309 23.181 43.6627 23.1719 43.6627 23.0899C43.6627 23.0307 43.6309 22.9988 43.5716 22.9988C43.4897 22.9988 43.4805 22.9669 43.4805 22.6116C43.4805 22.2791 43.4942 22.2108 43.5762 22.1288C43.6582 22.0468 43.7129 22.0377 43.8951 22.0514C44.0864 22.0696 44.1183 22.0605 44.1456 21.983C44.182 21.8646 44.0955 21.8145 43.8632 21.8145C43.7402 21.8145 43.6309 21.8464 43.5534 21.9102L43.435 22.0013V21.9102C43.435 21.8282 43.4077 21.8145 43.23 21.8145C43.0433 21.8145 43.025 21.8236 43.025 21.9284Z" fill="#fff"/>
<path d="M44.3458 21.9284C44.3458 22.0104 44.3686 22.0423 44.4369 22.0423C44.528 22.0423 44.5326 22.065 44.5189 22.5069C44.5053 22.9259 44.4962 22.9761 44.4278 22.9624C44.3823 22.9533 44.3458 22.9669 44.3413 22.9852C44.3413 23.0034 44.3322 23.058 44.3231 23.099C44.3094 23.1719 44.3504 23.181 44.6465 23.181C44.9744 23.181 44.9836 23.1765 44.9836 23.0672C44.9836 22.9761 44.9608 22.9533 44.8742 22.9533C44.7649 22.9533 44.7649 22.9442 44.7649 22.598C44.7649 22.4067 44.7604 22.1516 44.7604 22.0286L44.7558 21.8145H44.5508C44.3641 21.8145 44.3458 21.8236 44.3458 21.9284Z" fill="#fff"/>
<path d="M46.168 21.9284C46.168 22.015 46.1907 22.0423 46.2727 22.0423C46.3593 22.0423 46.4048 22.1243 46.6053 22.6026L46.8376 23.1583L46.7647 23.3633C46.6918 23.5546 46.6781 23.5682 46.5187 23.5682C46.3912 23.5682 46.3411 23.591 46.3228 23.6548C46.3046 23.7003 46.3228 23.755 46.3547 23.7778C46.4549 23.837 46.6827 23.8279 46.7875 23.755C46.8467 23.714 47.0152 23.3633 47.2202 22.8668C47.4844 22.2199 47.5755 22.0423 47.6484 22.0332C47.703 22.0241 47.744 21.9785 47.7531 21.9147C47.7668 21.8191 47.7531 21.8145 47.448 21.8145C47.1337 21.8145 47.1245 21.8191 47.1245 21.9239C47.1245 22.0013 47.1519 22.0423 47.2111 22.0514C47.2976 22.0651 47.2931 22.0833 47.161 22.4295C47.0835 22.6299 47.0061 22.8121 46.9879 22.8303C46.9697 22.8531 46.8831 22.6891 46.792 22.4659C46.6371 22.0787 46.6371 22.0651 46.7237 22.0332C46.7738 22.0104 46.8057 21.9648 46.7966 21.9193C46.7829 21.851 46.7237 21.8327 46.4732 21.8236C46.1725 21.81 46.168 21.81 46.168 21.9284Z" fill="#fff"/>
</svg>
