<svg width="24" height="24" viewBox="0 0 24 24" fill="none" xmlns="http://www.w3.org/2000/svg">
<path d="M11.7377 15.3888C11.4872 15.271 11.2226 15.1465 10.9445 15.0069C10.9419 15.0055 10.9391 15.0042 10.9364 15.0029C10.5995 14.8335 10.2429 14.6419 9.86709 14.4122V13.8526C10.0789 13.6905 10.2777 13.5121 10.4618 13.3191C11.1477 12.6033 11.6734 11.6649 11.868 10.8091C11.921 10.5765 11.9689 10.3458 12.0053 10.0996C12.2936 10.0488 12.5628 9.92077 12.7841 9.7292C13.0055 9.53763 13.1708 9.28965 13.2625 9.01164C13.3542 8.73363 13.3689 8.43596 13.3049 8.15028C13.241 7.8646 13.1008 7.60159 12.8994 7.38919V5.57812C12.8994 4.57861 12.4634 3.6367 11.7329 3.05855C11.0684 2.53256 10.2392 2.35205 9.39717 2.5507C9.01082 2.64178 8.61515 2.46712 8.2432 2.28052C7.08337 1.698 5.81906 1.73358 4.77445 2.37792C4.23086 2.71688 3.78225 3.18833 3.4707 3.74808C3.15914 4.30782 2.99484 4.93752 2.9932 5.57812V7.39814C2.90575 7.49137 2.82957 7.59457 2.76623 7.70559C2.63822 7.93074 2.5661 8.18332 2.55593 8.44211C2.54577 8.70091 2.59785 8.95837 2.7078 9.19286C2.81775 9.42736 2.98236 9.63205 3.18781 9.78975C3.39327 9.94744 3.63356 10.0535 3.88851 10.0991C3.92498 10.3455 3.97288 10.5763 4.0259 10.8091C4.22048 11.6649 4.74613 12.6033 5.43215 13.3191C5.61772 13.5138 5.81834 13.6936 6.03215 13.8569V14.4122C5.5509 14.702 5.05523 14.9671 4.54706 15.2065C4.41487 15.2699 4.28606 15.3304 4.16076 15.3893C3.00248 15.9343 2.08771 16.3647 1.43873 17.5228C0.779852 18.6984 0.454868 20.5343 0.351743 23.661C0.350284 23.705 0.357693 23.7488 0.373528 23.7899C0.389363 23.8309 0.413301 23.8684 0.443917 23.9C0.474533 23.9317 0.5112 23.9568 0.551736 23.974C0.592272 23.9911 0.635847 24 0.679868 24H15.2191C15.2631 24 15.3067 23.9911 15.3472 23.974C15.3878 23.9568 15.4244 23.9317 15.455 23.9C15.4857 23.8684 15.5096 23.8309 15.5254 23.7899C15.5413 23.7488 15.5487 23.705 15.5472 23.661C15.4441 20.5334 15.119 18.6974 14.4602 17.5217C13.811 16.3635 12.896 15.9334 11.7377 15.3888ZM10.3763 15.4535L9.67321 17.2441L8.44228 16.5629L9.61954 15.0301C9.8819 15.1872 10.134 15.3268 10.3762 15.4535H10.3763ZM8.80706 17.5148L8.42812 18.2742H7.47088L7.09195 17.5148L7.94948 17.0403L8.80706 17.5148ZM6.68854 14.4844V14.2659C7.07737 14.4661 7.50642 14.5758 7.94362 14.5869H7.95004C8.38924 14.5758 8.82019 14.4652 9.21046 14.2635V14.4844L7.94952 16.1264L6.68854 14.4844ZM12.5617 8.98125C12.4517 9.17485 12.2778 9.32419 12.0698 9.40369C12.0891 8.91225 12.0577 8.32941 11.9429 7.56778C12.089 7.60146 12.2252 7.66885 12.3406 7.76456C12.456 7.86027 12.5475 7.98165 12.6076 8.119C12.6677 8.25634 12.6949 8.40585 12.6869 8.55557C12.6789 8.70528 12.6361 8.85106 12.5617 8.98125H12.5617ZM3.82363 9.40247C3.78059 9.38554 3.73881 9.36555 3.69862 9.34266C3.5306 9.24727 3.39518 9.10353 3.30995 8.93014C3.22472 8.75676 3.19363 8.56173 3.22073 8.37044C3.24783 8.17915 3.33185 8.00043 3.46188 7.85753C3.59191 7.71463 3.76193 7.61416 3.94982 7.56919C3.83573 8.32969 3.80441 8.91164 3.82363 9.40247ZM4.20988 6.17803C4.15504 6.43022 4.10713 6.66689 4.06509 6.89053C3.92356 6.89985 3.78388 6.92775 3.64963 6.9735V5.57812C3.65083 5.04943 3.78627 4.5297 4.04327 4.06767C4.30026 3.60564 4.67038 3.21644 5.11893 2.93658C5.97777 2.40689 6.98277 2.38209 7.94863 2.86716C8.27999 3.03347 8.89663 3.34298 9.54778 3.18956C9.85358 3.11242 10.1731 3.1069 10.4814 3.17344C10.7896 3.23998 11.0784 3.37678 11.3252 3.57319C11.8996 4.02787 12.2426 4.77745 12.2426 5.57812V6.97092C12.1084 6.92533 11.9687 6.89785 11.8272 6.88922C11.785 6.66591 11.7372 6.42984 11.6823 6.17789C11.6645 6.09623 11.6162 6.02443 11.5473 5.97715C11.4784 5.92987 11.394 5.91066 11.3114 5.92345C9.39557 6.21989 8.00882 5.84606 7.0717 4.78069C7.03997 4.7454 7.00114 4.71723 6.95774 4.69802C6.91435 4.67882 6.86738 4.66902 6.81993 4.66927C6.7724 4.67005 6.7256 4.68115 6.68277 4.70179C6.63994 4.72242 6.6021 4.75211 6.57187 4.7888C5.91759 5.58337 5.42896 5.74528 4.46999 5.92523C4.40657 5.93714 4.34807 5.96748 4.30181 6.01246C4.25555 6.05744 4.22357 6.11507 4.20988 6.17813V6.17803ZM4.66593 10.6635C4.47843 9.83855 4.35909 9.03698 4.65777 7.30298C4.66085 7.29063 4.66323 7.27811 4.6649 7.26548C4.66513 7.26375 4.6649 7.26206 4.66527 7.26038C4.70502 7.0328 4.75148 6.79017 4.80623 6.5287C5.59682 6.36989 6.18262 6.17245 6.8354 5.48255C7.86121 6.46964 9.2639 6.84141 11.1041 6.61486C11.152 6.84708 11.1932 7.06406 11.229 7.26891V7.26937C11.4284 8.41134 11.448 9.15225 11.3852 9.75844C11.3852 9.76003 11.3849 9.76163 11.3847 9.76312C11.3509 10.0661 11.2984 10.3666 11.2276 10.6631C10.8869 12.1614 9.3801 13.9137 7.94676 13.9303C6.51341 13.9141 5.00643 12.1619 4.66593 10.6635ZM6.27942 15.0294L7.45696 16.5627L6.22598 17.2439L5.52243 15.4526C5.7621 15.3271 6.01513 15.1875 6.27942 15.0294ZM6.21506 23.3438H1.02018C1.1302 20.5705 1.43831 18.8665 2.01131 17.844C2.5574 16.8694 3.34724 16.4978 4.44018 15.9836C4.56674 15.924 4.69687 15.8628 4.83084 15.7987C4.86426 15.7826 4.89923 15.7656 4.93354 15.7489L5.75184 17.8325C5.76891 17.876 5.79508 17.9154 5.82859 17.9479C5.8621 17.9805 5.90218 18.0055 5.94614 18.0214C5.99011 18.0372 6.03695 18.0434 6.08353 18.0397C6.13011 18.036 6.17535 18.0223 6.21623 17.9997L6.51712 17.8332L6.92774 18.6562L6.21506 23.3438ZM6.87904 23.3438L7.54992 18.931H8.34904L9.01996 23.3438H6.87904ZM9.6839 23.3438L8.9714 18.6562L9.38202 17.8332L9.68292 17.9997C9.72379 18.0223 9.76903 18.0359 9.8156 18.0397C9.86218 18.0434 9.90901 18.0372 9.95297 18.0213C9.99693 18.0055 10.037 17.9805 10.0705 17.9479C10.104 17.9153 10.1302 17.876 10.1473 17.8325L10.9655 15.7491C11.1353 15.8311 11.2996 15.9085 11.4584 15.983C12.5515 16.497 13.3414 16.8683 13.8876 17.8429C14.4606 18.8654 14.7688 20.5697 14.8789 23.3438H9.6839ZM22.4688 3.62484C22.4688 3.71187 22.4343 3.79533 22.3727 3.85686C22.3112 3.9184 22.2277 3.95297 22.1407 3.95297H15.5845C15.4975 3.95297 15.414 3.9184 15.3525 3.85686C15.2909 3.79533 15.2564 3.71187 15.2564 3.62484C15.2564 3.53782 15.2909 3.45436 15.3525 3.39282C15.414 3.33129 15.4975 3.29672 15.5845 3.29672H22.1406C22.1837 3.29671 22.2264 3.30518 22.2662 3.32167C22.306 3.33815 22.3422 3.36232 22.3727 3.39279C22.4032 3.42326 22.4273 3.45944 22.4438 3.49925C22.4603 3.53907 22.4688 3.58175 22.4688 3.62484ZM22.7955 0H14.9294C14.7034 0.000372559 14.4867 0.0904195 14.3271 0.250371C14.1674 0.410323 14.0777 0.627106 14.0777 0.853125V6.39661C14.0778 6.62261 14.1675 6.83935 14.3271 6.99928C14.4868 7.15922 14.7034 7.24929 14.9294 7.24973H16.1187V8.53191C16.1186 8.58952 16.1338 8.64612 16.1626 8.69601C16.1914 8.74591 16.2328 8.78736 16.2827 8.81617C16.3326 8.84499 16.3891 8.86016 16.4468 8.86016C16.5044 8.86017 16.561 8.84501 16.6109 8.8162L19.3249 7.24973H22.7955C23.0217 7.24949 23.2385 7.15952 23.3985 6.99959C23.5584 6.83965 23.6484 6.6228 23.6486 6.39661V0.853125C23.6484 0.626935 23.5584 0.410076 23.3985 0.250135C23.2385 0.090194 23.0217 0.000235764 22.7955 0ZM22.9924 6.39661C22.9918 6.44859 22.9708 6.49827 22.9341 6.53505C22.8974 6.57184 22.8477 6.5928 22.7957 6.59348H19.2373C19.1797 6.59347 19.1231 6.60862 19.0732 6.63741L16.7751 7.96397V6.92194C16.7751 6.83491 16.7405 6.75145 16.679 6.68992C16.6175 6.62838 16.534 6.59381 16.447 6.59381H14.9294C14.8776 6.59296 14.8282 6.57189 14.7917 6.53511C14.7552 6.49833 14.7346 6.44874 14.7341 6.39694V0.853125C14.7346 0.801319 14.7552 0.751734 14.7917 0.714952C14.8282 0.67817 14.8776 0.657104 14.9294 0.65625H22.7955C22.8475 0.65687 22.8972 0.677812 22.934 0.714599C22.9708 0.751387 22.9917 0.801103 22.9924 0.853125V6.39661ZM22.4688 5.26453C22.4688 5.35156 22.4343 5.43502 22.3727 5.49655C22.3112 5.55809 22.2277 5.59266 22.1407 5.59266H15.5845C15.4975 5.59266 15.414 5.55809 15.3525 5.49655C15.2909 5.43502 15.2564 5.35156 15.2564 5.26453C15.2564 5.17751 15.2909 5.09405 15.3525 5.03251C15.414 4.97098 15.4975 4.93641 15.5845 4.93641H22.1406C22.1837 4.93639 22.2264 4.94487 22.2662 4.96136C22.306 4.97784 22.3422 5.00201 22.3727 5.03248C22.4032 5.06295 22.4273 5.09913 22.4438 5.13894C22.4603 5.17876 22.4688 5.22143 22.4688 5.26453ZM15.4384 11.0452L15.259 10.7344C15.2155 10.659 15.2037 10.5694 15.2263 10.4853C15.2488 10.4012 15.3038 10.3295 15.3793 10.286C15.4547 10.2425 15.5443 10.2307 15.6284 10.2532C15.7125 10.2758 15.7842 10.3308 15.8277 10.4062L16.007 10.7172C16.0286 10.7546 16.0425 10.7958 16.0482 10.8385C16.0538 10.8813 16.0509 10.9247 16.0397 10.9663C16.0286 11.008 16.0093 11.047 15.9831 11.0812C15.9568 11.1154 15.9241 11.1441 15.8868 11.1656C15.8494 11.1871 15.8082 11.2011 15.7655 11.2067C15.7227 11.2124 15.6793 11.2095 15.6377 11.1983C15.596 11.1872 15.557 11.1679 15.5228 11.1417C15.4886 11.1154 15.4599 11.0827 15.4384 11.0453V11.0452ZM17.8035 11.1774C16.9302 11.1784 16.0929 11.5258 15.4754 12.1433C14.8578 12.7609 14.5105 13.5982 14.5095 14.4715C14.5095 15.567 15.033 16.2431 15.5392 16.8969C15.8902 17.3501 16.2264 17.7847 16.3736 18.3566L16.3744 18.3595C16.4261 18.564 16.4519 18.7743 16.451 18.9852C16.45 19.1634 16.4842 19.3401 16.5516 19.5051C16.6191 19.67 16.7185 19.82 16.8442 19.9464C16.9698 20.0728 17.1192 20.1731 17.2838 20.2416C17.4484 20.31 17.6248 20.3452 17.803 20.3452C17.9813 20.3452 18.1577 20.31 18.3223 20.2416C18.4869 20.1731 18.6363 20.0728 18.7619 19.9464C18.8876 19.82 18.987 19.67 19.0545 19.5051C19.1219 19.3401 19.1561 19.1634 19.1551 18.9852C19.1542 18.774 19.18 18.5635 19.232 18.3587C19.3787 17.7863 19.7152 17.3514 20.0664 16.8978C20.5726 16.2437 21.0963 15.5673 21.0963 14.4716C21.0955 13.5984 20.7484 12.7611 20.131 12.1435C19.5137 11.526 18.6765 11.1785 17.8033 11.1774H17.8035ZM18.4985 18.9852C18.4992 19.077 18.4818 19.1681 18.4472 19.2532C18.4125 19.3382 18.3614 19.4156 18.2968 19.4808C18.2321 19.546 18.1552 19.5977 18.0704 19.6331C17.9856 19.6684 17.8947 19.6866 17.8029 19.6866C17.711 19.6866 17.6201 19.6684 17.5353 19.6331C17.4506 19.5977 17.3736 19.546 17.309 19.4808C17.2443 19.4156 17.1932 19.3382 17.1586 19.2532C17.1239 19.1681 17.1065 19.077 17.1073 18.9852C17.1073 18.8529 17.0994 18.7207 17.0835 18.5893H18.5222C18.5063 18.7207 18.4984 18.8529 18.4985 18.9852ZM19.5471 16.4959C19.2275 16.9087 18.8803 17.3576 18.6764 17.9328H18.1318V15.2826C18.3826 15.2109 18.6033 15.0595 18.7605 14.8513C18.9177 14.6432 19.003 14.3895 19.0033 14.1286C19.0033 14.0416 18.9687 13.9582 18.9072 13.8966C18.8457 13.8351 18.7622 13.8005 18.6752 13.8005C18.5882 13.8005 18.5047 13.8351 18.4432 13.8966C18.3816 13.9582 18.3471 14.0416 18.3471 14.1286C18.3457 14.2721 18.2878 14.4092 18.1859 14.5101C18.084 14.6111 17.9464 14.6677 17.803 14.6677C17.6595 14.6677 17.5219 14.6111 17.42 14.5101C17.3181 14.4092 17.2602 14.2721 17.2589 14.1286C17.2589 14.0416 17.2243 13.9582 17.1627 13.8966C17.1012 13.8351 17.0178 13.8005 16.9307 13.8005C16.8437 13.8005 16.7602 13.8351 16.6987 13.8966C16.6372 13.9582 16.6026 14.0416 16.6026 14.1286C16.603 14.3896 16.6884 14.6434 16.8458 14.8516C17.0033 15.0598 17.2242 15.2111 17.4752 15.2826V17.9328H16.9294C16.7255 17.3571 16.378 16.908 16.0582 16.495C15.5993 15.9024 15.1659 15.3427 15.1659 14.4715C15.1659 13.7721 15.4437 13.1014 15.9383 12.6069C16.4328 12.1124 17.1035 11.8346 17.8028 11.8346C18.5022 11.8346 19.1729 12.1124 19.6674 12.6069C20.1619 13.1014 20.4397 13.7721 20.4397 14.4715C20.4397 15.3428 20.0064 15.9029 19.5471 16.4959ZM15.2563 1.98516C15.2563 1.89813 15.2908 1.81467 15.3524 1.75314C15.4139 1.6916 15.4974 1.65703 15.5844 1.65703H18.8627C18.9058 1.65703 18.9484 1.66552 18.9883 1.68201C19.0281 1.6985 19.0642 1.72267 19.0947 1.75314C19.1252 1.78361 19.1493 1.81978 19.1658 1.85959C19.1823 1.8994 19.1908 1.94207 19.1908 1.98516C19.1908 2.02825 19.1823 2.07091 19.1658 2.11072C19.1493 2.15053 19.1252 2.18671 19.0947 2.21718C19.0642 2.24764 19.0281 2.27181 18.9883 2.2883C18.9484 2.30479 18.9058 2.31328 18.8627 2.31328H15.5845C15.5414 2.31329 15.4987 2.30482 15.4589 2.28833C15.4191 2.27185 15.3829 2.24768 15.3524 2.21721C15.3219 2.18674 15.2977 2.15056 15.2812 2.11075C15.2647 2.07093 15.2563 2.02825 15.2563 1.98516ZM17.7875 10.6726C17.7444 10.6726 17.7018 10.6641 17.6619 10.6476C17.6221 10.6311 17.586 10.607 17.5555 10.5765C17.525 10.546 17.5009 10.5098 17.4844 10.47C17.4679 10.4302 17.4594 10.3876 17.4594 10.3445V9.94847C17.4594 9.86144 17.494 9.77798 17.5555 9.71645C17.617 9.65491 17.7005 9.62034 17.7875 9.62034C17.8745 9.62034 17.958 9.65491 18.0195 9.71645C18.0811 9.77798 18.1156 9.86144 18.1156 9.94847V10.3445C18.1156 10.4315 18.0811 10.5149 18.0195 10.5765C17.958 10.638 17.8745 10.6726 17.7875 10.6726ZM19.6736 11.1918C19.6363 11.1702 19.6036 11.1415 19.5774 11.1072C19.5512 11.073 19.532 11.034 19.5209 10.9923C19.5098 10.9507 19.507 10.9073 19.5127 10.8645C19.5184 10.8218 19.5324 10.7806 19.554 10.7433L19.7786 10.3553C19.8002 10.318 19.8289 10.2853 19.8632 10.2591C19.8974 10.2329 19.9364 10.2137 19.9781 10.2026C20.0197 10.1915 20.0632 10.1887 20.1059 10.1944C20.1486 10.2001 20.1898 10.2141 20.2271 10.2357C20.2644 10.2573 20.2971 10.286 20.3233 10.3202C20.3495 10.3545 20.3687 10.3935 20.3798 10.4352C20.3909 10.4768 20.3937 10.5202 20.388 10.563C20.3823 10.6057 20.3683 10.6469 20.3467 10.6842L20.1221 11.0722C20.1005 11.1095 20.0718 11.1422 20.0376 11.1684C20.0034 11.1946 19.9643 11.2138 19.9227 11.2249C19.881 11.236 19.8376 11.2388 19.7948 11.2331C19.7521 11.2274 19.7109 11.2134 19.6736 11.1918Z" fill="#fff"/>
</svg>
