<svg width="32" height="41" viewBox="0 0 32 41" fill="none" xmlns="http://www.w3.org/2000/svg">
<path d="M16 20.5C17.1 20.5 18.0417 20.1083 18.825 19.325C19.6083 18.5417 20 17.6 20 16.5C20 15.4 19.6083 14.4583 18.825 13.675C18.0417 12.8917 17.1 12.5 16 12.5C14.9 12.5 13.9583 12.8917 13.175 13.675C12.3917 14.4583 12 15.4 12 16.5C12 17.6 12.3917 18.5417 13.175 19.325C13.9583 20.1083 14.9 20.5 16 20.5ZM16 35.2C20.0667 31.4667 23.0833 28.075 25.05 25.025C27.0167 21.975 28 19.2667 28 16.9C28 13.2667 26.8417 10.2917 24.525 7.975C22.2083 5.65833 19.3667 4.5 16 4.5C12.6333 4.5 9.79167 5.65833 7.475 7.975C5.15833 10.2917 4 13.2667 4 16.9C4 19.2667 4.98333 21.975 6.95 25.025C8.91667 28.075 11.9333 31.4667 16 35.2ZM16 40.5C10.6333 35.9333 6.625 31.6917 3.975 27.775C1.325 23.8583 0 20.2333 0 16.9C0 11.9 1.60833 7.91667 4.825 4.95C8.04167 1.98333 11.7667 0.5 16 0.5C20.2333 0.5 23.9583 1.98333 27.175 4.95C30.3917 7.91667 32 11.9 32 16.9C32 20.2333 30.675 23.8583 28.025 27.775C25.375 31.6917 21.3667 35.9333 16 40.5Z" fill="#E8EAED"/>
</svg>
