<svg width="95" height="96" viewBox="0 0 95 96" fill="none" xmlns="http://www.w3.org/2000/svg">
<path d="M43.8883 0.0708923C43.8183 0.0988922 43.1884 0.182888 42.4884 0.252888C36.9026 0.840866 31.3728 2.45081 26.319 4.92871C23.1131 6.49665 19.6973 8.70857 17.2194 10.7805C14.5035 13.0764 10.5976 17.1922 9.09966 19.3622C8.83367 19.7542 8.44169 20.3001 8.23169 20.5661C6.83175 22.4141 4.12985 27.5519 3.10789 30.2958C1.06397 35.7975 6.33747e-06 41.1313 6.33747e-06 45.8212C6.33747e-06 47.8231 -0.0139932 47.7951 1.27396 47.6971L1.88993 47.6551L1.90393 46.3951C1.93193 44.5752 2.22592 41.1733 2.44991 39.9974C3.14989 36.4695 3.34588 35.7276 4.22785 33.0257C6.01978 27.5659 8.87567 22.512 12.8235 17.8362C19.1093 10.3745 28.4749 4.85872 38.2606 2.87079C41.2564 2.25481 42.4884 2.12881 45.9883 2.00282C51.5461 1.80683 56.6839 2.5348 61.7097 4.24274C65.8395 5.65668 68.1774 6.76264 71.6773 8.97456C76.3531 11.9284 79.237 14.4764 82.8069 18.8302C85.5928 22.2181 88.4767 27.2439 90.1006 31.5837C90.8426 33.5436 91.8085 37.2395 92.2425 39.6754C92.6765 42.2233 92.9845 45.7372 92.8585 46.6891C92.7605 47.4591 93.0405 47.7251 93.9225 47.7251C94.9024 47.7251 94.9724 47.5991 94.8604 45.7932C94.7064 43.0213 94.2024 38.8914 93.8105 37.2535C93.6285 36.5115 92.8865 33.8516 92.4945 32.5357C91.1226 28.0698 87.4827 21.3221 84.5008 17.7662C83.0589 16.0443 82.4849 15.4143 80.9169 13.8464C78.1031 11.0325 74.9252 8.54057 71.7893 6.69265C70.2074 5.75468 65.7835 3.61276 64.6076 3.19278C63.9916 2.98278 63.0676 2.6468 62.5496 2.45081C60.5617 1.70883 56.6419 0.812866 53.688 0.406879C53.072 0.322884 52.148 0.196888 51.6161 0.126892C50.7201 0.000896454 44.1823 -0.0550995 43.8883 0.0708923Z" fill="#340068"/>
<path d="M44.5183 15.0503C44.3223 15.0782 43.6084 15.1762 42.9084 15.2602C40.2765 15.5822 36.9166 16.5482 33.9907 17.8361C31.9468 18.7321 28.9929 20.51 27.705 21.602C27.425 21.84 26.501 22.624 25.633 23.3519C24.7791 24.0799 23.7431 25.0739 23.3371 25.5639C22.9451 26.0538 22.3432 26.7958 22.0072 27.1878C20.9992 28.4337 19.0953 31.4016 18.2413 33.0956C17.5973 34.3415 16.5614 37.1134 16.1414 38.6954C15.0074 42.8532 14.7974 45.8911 15.2594 50.7349C15.7634 55.7887 17.9333 61.6545 20.7472 65.4764C23.6171 69.3822 25.997 71.7481 29.3569 73.974C31.2608 75.248 33.8087 76.5779 35.8947 77.3899C38.5826 78.4399 42.6284 79.3498 44.7143 79.3778C45.3443 79.3778 46.1983 79.4338 46.6182 79.4898C47.3322 79.5738 51.0281 79.3638 52.498 79.1538C52.848 79.0978 54.08 78.8179 55.2419 78.5239C62.4936 76.7039 68.9334 72.4061 73.4412 66.3443C74.7572 64.5944 75.3032 63.6984 76.2131 61.8925C77.5711 59.1766 78.271 57.3007 78.887 54.6548C79.083 53.8008 79.279 52.9888 79.321 52.8348C79.503 52.0369 79.797 49.013 79.797 47.767C79.797 46.0451 79.573 43.0492 79.363 41.9852C78.803 39.1293 78.173 36.9314 77.3191 34.8455C74.7572 28.6297 70.0254 23.1559 64.1176 19.5581C60.7577 17.5142 56.1519 15.8482 52.218 15.2462C51.1681 15.0922 45.1763 14.9383 44.5183 15.0503ZM52.428 16.5762C55.7179 17.1642 58.6018 18.1441 61.5697 19.6561C66.6795 22.26 71.0193 26.3198 74.0432 31.3316C75.6391 33.9635 77.1231 37.7014 77.6691 40.5153C77.8231 41.2853 77.9911 42.0972 78.0331 42.3352C78.0891 42.5592 78.187 43.3572 78.257 44.0852C78.327 44.8131 78.425 45.8491 78.481 46.3811C78.691 48.397 77.9771 53.3108 77.0531 56.3767C74.8832 63.5304 69.5074 70.2222 62.9276 73.932C58.9238 76.1999 57.0199 76.8719 51.868 77.8519C51.2241 77.9779 49.7121 78.0339 47.3882 78.0339C44.3503 78.0339 43.6644 77.9919 42.2644 77.7259C38.4286 76.9839 35.3907 75.962 32.9968 74.604C29.5249 72.6301 28.3769 71.7761 25.927 69.3682C23.1271 66.6243 21.6572 64.7204 20.1172 61.8365C17.1914 56.3627 15.8474 49.503 16.5754 43.6652C17.2754 38.0374 19.3753 32.8436 22.6932 28.4617C23.8131 26.9778 26.543 24.1919 28.1109 22.9319C32.0308 19.7681 38.3166 17.0802 43.1184 16.5202C43.8464 16.4362 44.6023 16.3382 44.7983 16.2962C45.6523 16.1562 51.2381 16.3662 52.428 16.5762Z" fill="#340068"/>
<path d="M45.6383 17.5004C43.6364 17.6544 40.9065 18.1164 39.3385 18.5643C37.6586 19.0403 34.8307 20.1883 34.6627 20.4683C34.3827 20.9163 34.7327 20.8743 36.1466 20.3283C40.5985 18.5783 42.6564 18.1864 47.4302 18.1864C52.078 18.1864 55.4379 18.8303 58.7838 20.3703C59.8897 20.8883 60.1277 20.9302 60.2817 20.6923C60.4357 20.4403 60.0577 20.2163 58.3778 19.5443C56.4879 18.8163 54.7239 18.2843 53.058 17.9764C51.994 17.7804 47.7382 17.3184 47.3882 17.3744C47.3182 17.3744 46.5202 17.4444 45.6383 17.5004Z" fill="#340068"/>
<path d="M32.5208 21.406C31.9888 21.728 31.9048 22.106 32.3808 22.106C32.8008 22.106 33.5987 21.602 33.5987 21.336C33.5987 21.042 33.0528 21.07 32.5208 21.406Z" fill="#340068"/>
<path d="M61.3457 21.3643C61.4017 21.6583 62.4096 22.2463 62.6756 22.1483C63.0396 22.0083 62.8436 21.7003 62.2136 21.4063C61.4157 21.0703 61.2897 21.0563 61.3457 21.3643Z" fill="#340068"/>
<path d="M63.9356 22.6241C63.6976 22.8481 63.9076 23.1141 64.9295 23.8281C66.3715 24.864 69.4094 27.8879 70.6413 29.5259C73.5812 33.4597 75.5411 38.1775 76.2271 42.8954C76.5071 44.8973 76.5211 44.9253 76.9551 44.9253C77.2911 44.9253 77.3051 44.8973 77.2211 44.4633C77.1651 44.2253 77.0671 43.6373 76.9971 43.1754C76.1851 37.7296 74.0292 32.6058 70.9213 28.7559C69.9134 27.4959 66.8755 24.4861 65.7975 23.6741C64.3276 22.5541 64.1176 22.4281 63.9356 22.6241Z" fill="#340068"/>
<path d="M29.3289 23.5201C26.879 25.382 23.7711 28.7839 22.1472 31.3458C21.4052 32.5078 20.0192 35.2097 19.5573 36.3856C18.8153 38.2615 18.1713 40.7255 17.8493 42.8114C17.5553 44.8273 17.5693 44.9253 17.9893 44.9253C18.3813 44.9253 18.4093 44.8273 18.5493 43.3854C18.8573 40.1935 20.4672 35.5316 22.4132 32.1858C23.6871 30.0019 27.299 25.844 28.8109 24.836C29.8049 24.1641 31.0088 23.1281 31.0508 22.9041C31.1488 22.4141 30.4348 22.6801 29.3289 23.5201Z" fill="#340068"/>
<path d="M29.5809 37.7997C26.263 38.5276 23.7851 41.0895 23.0151 44.5754C22.6511 46.1993 22.6931 49.0972 23.0851 50.6372C24.0651 54.543 26.809 56.5869 31.3448 56.7829C32.9968 56.8669 33.2487 56.8249 36.0766 56.167C37.7566 55.761 37.8826 55.775 38.8205 56.433C39.2825 56.7689 39.3385 56.335 39.3105 52.6531C39.2965 50.6512 39.3525 49.0692 39.4225 48.9992C39.4925 48.9292 39.7025 48.8452 39.8845 48.8172C40.0805 48.8032 40.2485 48.6912 40.2905 48.5932C40.3325 48.4673 39.4785 48.4253 36.3426 48.4253C32.8708 48.4253 32.3388 48.4533 32.3388 48.6352C32.3388 48.7892 32.5068 48.8452 33.0108 48.8452C34.3967 48.8452 34.2987 48.6212 34.2847 51.8411C34.2847 54.137 34.2427 54.767 34.0467 55.285C33.6687 56.265 32.6608 56.6429 31.4848 56.237C30.1689 55.803 29.3709 54.781 28.8109 52.8351C28.5029 51.7571 28.4889 51.5051 28.4889 47.0253V42.3355L28.9229 41.1315C29.4129 39.7736 29.8469 39.1156 30.6868 38.5416C31.2048 38.1776 31.3868 38.1356 32.3248 38.1356C33.2347 38.1356 33.4867 38.1916 34.0327 38.5136C35.1527 39.1716 36.4826 40.8095 37.5186 42.7835C37.8406 43.3994 38.0646 43.6654 38.2466 43.6654C38.5125 43.6654 38.5265 43.5534 38.4706 40.9635C38.4286 38.2056 38.3166 37.5477 37.9526 37.9816C37.6866 38.2896 37.0286 38.2616 35.0687 37.8557C33.0668 37.4357 31.2748 37.4217 29.5809 37.7997Z" fill="#340068"/>
<path d="M46.7582 37.7016C45.2743 38.1215 44.0843 38.9195 43.3424 40.0255C42.5304 41.2294 42.2224 42.3774 42.3204 43.8753C42.4464 45.8213 43.1464 47.1372 44.5043 48.0192C45.6243 48.7471 45.6943 48.7891 48.0602 49.5731C49.2221 49.9511 50.4401 50.3711 50.7481 50.4971C51.5461 50.8051 52.33 51.449 52.638 52.079C53.016 52.807 53.016 54.2069 52.652 54.8229C52.26 55.4669 51.2661 56.0829 50.3141 56.2789C49.5581 56.4329 49.3901 56.4189 48.5082 56.1389C47.5002 55.8169 46.6182 55.3549 45.7923 54.7389C45.2043 54.3049 43.7764 52.541 43.1184 51.463C42.4044 50.2731 42.2784 50.3851 42.2784 52.233C42.2784 53.661 42.5304 56.6568 42.6564 56.8248C42.6844 56.8528 42.8524 56.6988 43.0344 56.4749L43.3704 56.0549L45.2323 56.4049C47.8502 56.8668 50.0761 56.9368 51.3781 56.5589C53.24 56.0409 54.5419 54.9069 55.2419 53.213C55.6059 52.345 55.6339 52.121 55.6479 50.4551C55.6479 48.7051 55.6339 48.6072 55.2139 47.7112C54.416 46.0312 53.184 45.1633 50.3981 44.3093C46.6042 43.1614 46.4923 43.1054 45.6803 42.2234C44.9663 41.4534 44.8403 40.9494 45.1483 40.0255C45.4143 39.2135 46.0723 38.5975 47.0242 38.2755C49.3621 37.4776 51.6301 38.8355 53.646 42.2234C53.982 42.7834 54.332 43.2454 54.43 43.2454C54.5699 43.2454 54.6119 42.6994 54.5839 40.5855C54.5699 39.1155 54.4999 37.8836 54.43 37.8416C54.36 37.7996 54.178 37.8696 54.038 37.9956C53.716 38.2895 53.114 38.2475 51.1121 37.7996C49.6281 37.4636 47.7522 37.4356 46.7582 37.7016Z" fill="#340068"/>
<path d="M64.3836 38.3736C63.9356 39.2696 61.2197 44.0854 58.9098 48.0752C57.7478 50.0772 57.1178 51.2811 57.1178 51.5051C57.1178 51.6031 58.3638 51.6451 60.8137 51.6451H64.4956L64.4396 53.703C64.3976 54.851 64.3556 55.8589 64.3276 55.9429C64.2856 56.0689 63.9076 56.1249 63.0676 56.1249C62.1017 56.1249 61.8777 56.1669 61.8777 56.3349C61.8777 56.5169 62.4936 56.5449 66.5675 56.5449C70.6413 56.5449 71.2573 56.5169 71.2573 56.3349C71.2573 56.1669 71.0753 56.1249 70.4173 56.1249H69.5774V54.109C69.5774 53.0031 69.5354 51.9951 69.4934 51.8691C69.4234 51.6731 69.5774 51.6451 70.6693 51.6451C72.1113 51.6451 72.0973 51.6451 72.0973 52.8491C72.0973 53.563 72.1113 53.605 72.4473 53.605H72.7973V51.1691C72.7973 49.0272 72.7693 48.7192 72.5593 48.6492C72.1813 48.4952 72.0833 48.7472 71.9993 49.9512L71.9153 51.0851H70.7113H69.5074V44.4774V37.8556L67.0995 37.8136L64.6916 37.7856L64.3836 38.3736ZM64.4676 45.6953V51.0851H61.2757H58.0698L58.3778 50.5531C59.2038 49.1812 60.8697 46.2833 61.3877 45.3453C61.7097 44.7714 62.2836 43.7634 62.6476 43.1054C63.0256 42.4475 63.5156 41.5515 63.7536 41.1175C63.9916 40.6695 64.2576 40.3055 64.3276 40.3055C64.4116 40.3055 64.4676 42.1955 64.4676 45.6953Z" fill="#340068"/>
<path d="M17.6393 47.0252C17.6393 47.8792 17.6393 47.8792 18.0173 47.8372C18.3813 47.7952 18.4093 47.7532 18.4093 47.0252C18.4093 46.2833 18.3953 46.2553 18.0313 46.2133C17.6393 46.1713 17.6393 46.1713 17.6393 47.0252Z" fill="#340068"/>
<path d="M76.4931 46.3675C76.4511 46.4795 76.4371 46.8434 76.4651 47.1794C76.5071 47.7254 76.5491 47.7954 76.8571 47.7954C77.1931 47.7954 77.2071 47.7534 77.2071 47.0254C77.2071 46.3395 77.1791 46.2555 76.8851 46.2135C76.7171 46.1855 76.5491 46.2555 76.4931 46.3675Z" fill="#340068"/>
<path d="M17.6393 49.5592C17.6393 50.1332 17.8493 51.4072 18.3113 53.6051C18.9553 56.755 20.2712 59.9888 22.0912 62.9147C22.9031 64.2307 24.4291 66.2746 24.8491 66.6246C24.9891 66.7366 25.409 67.1986 25.773 67.6326C26.837 68.9205 30.2389 71.7064 30.6449 71.6364C31.0788 71.5524 30.9248 71.1604 30.2669 70.7264C27.593 68.9065 24.9191 66.0506 22.7491 62.7047C20.6212 59.3869 18.7873 54.1091 18.5073 50.4552C18.4093 49.2092 18.4093 49.1952 18.0313 49.1532C17.6813 49.1112 17.6393 49.1532 17.6393 49.5592Z" fill="#340068"/>
<path d="M76.5211 49.4332C76.4791 49.6152 76.4091 50.1891 76.3671 50.7351C76.1151 53.325 74.8272 57.7069 73.5532 60.2128C72.8952 61.5147 71.4393 63.7826 70.5153 64.9726C69.2974 66.5265 66.7215 69.0604 65.1815 70.2364C64.4956 70.7544 63.9076 71.2443 63.8796 71.3423C63.8516 71.4263 63.9496 71.5383 64.1036 71.5943C64.7056 71.7763 68.4994 68.4864 70.5433 65.9945C71.9993 64.2166 74.0992 60.8847 74.5332 59.6808C74.6452 59.3588 74.8552 58.8548 75.0092 58.5608C75.6111 57.3569 76.4791 54.361 76.8291 52.2051C77.3471 49.1252 77.3471 49.1252 76.8571 49.1252C76.6891 49.1252 76.5631 49.2512 76.5211 49.4332Z" fill="#340068"/>
<path d="M31.8768 72.1824C31.6668 72.3924 31.8068 72.6023 32.3948 72.9103C33.0248 73.2603 33.4588 73.2323 33.4588 72.8683C33.4588 72.7423 33.2068 72.5183 32.8988 72.3644C32.3248 72.0704 32.0308 72.0144 31.8768 72.1824Z" fill="#340068"/>
<path d="M61.9897 72.3922C60.9957 72.9661 61.5137 73.4701 62.5217 72.9101C62.9136 72.7001 63.1096 72.5042 63.0676 72.3922C63.0256 72.2802 62.9976 72.1682 62.9976 72.1402C62.9976 71.9862 62.4517 72.1262 61.9897 72.3922Z" fill="#340068"/>
<path d="M34.2987 73.736C34.2987 73.946 34.7747 74.184 36.5106 74.87C40.1925 76.3399 43.5944 76.9839 47.5842 76.9839C50.1881 76.9699 51.756 76.7879 54.3179 76.1719C56.8519 75.5559 60.3657 74.226 60.4497 73.848C60.5337 73.428 60.1417 73.484 58.4058 74.17C54.108 75.8499 52.274 76.1859 47.4582 76.1999C43.8603 76.1999 42.6564 76.0739 40.5285 75.5139C39.4225 75.234 36.9866 74.394 35.8526 73.918C34.6627 73.414 34.2987 73.372 34.2987 73.736Z" fill="#340068"/>
<path d="M0.0560119 48.6352C-0.0559839 48.9151 0.0840108 52.079 0.280003 53.815C0.937979 59.7647 2.39392 64.7066 5.08182 70.0684C6.95775 73.8062 8.56769 76.2141 11.5636 79.784C12.7675 81.2119 15.6514 84.0398 16.9954 85.1038C17.5274 85.5238 18.1853 86.0698 18.4653 86.3077C19.0673 86.8257 22.0212 88.8137 23.3511 89.5976C23.8691 89.9056 25.4231 90.7176 26.809 91.4036C30.9948 93.4755 36.4266 95.0994 41.4384 95.7574C42.0964 95.8414 44.4763 95.9534 46.7302 95.9814C50.9301 96.0514 52.554 95.9394 55.7179 95.3794C62.1437 94.2315 68.1494 91.8235 73.6232 88.2117C78.761 84.8238 82.9469 80.722 86.4187 75.7241C87.3707 74.3662 89.2606 71.2023 89.9326 69.8724C91.6265 66.4985 93.6005 60.6607 94.0765 57.5808C94.6364 54.053 94.8324 52.037 94.8464 50.1051V48.4952L93.9085 48.4532C92.9985 48.4112 92.9565 48.4252 92.8725 48.7752C92.8305 48.9711 92.8305 49.4051 92.8725 49.7411C92.9285 50.0631 92.9005 51.1831 92.8165 52.219C92.6765 53.913 92.5785 54.6269 92.1025 57.4408C91.8925 58.7148 91.0666 61.7947 90.5346 63.3346C88.3227 69.7464 84.9768 75.1922 80.007 80.456C77.5151 83.0879 73.3012 86.2937 69.6474 88.3517C68.3594 89.0796 65.6155 90.4236 65.4335 90.4236C65.3915 90.4236 64.9996 90.5916 64.5656 90.7876C63.3476 91.3476 60.6597 92.1875 58.1678 92.8035C56.0399 93.3355 54.6399 93.5735 51.6581 93.9375C50.0061 94.1335 44.3923 94.1335 43.5384 93.9375C43.1884 93.8535 42.5584 93.7835 42.1384 93.7835C40.3465 93.7695 35.2227 92.6075 32.1988 91.5296C29.9869 90.7456 28.8389 90.2416 26.543 89.0796C23.7151 87.6377 21.1672 85.9578 18.4793 83.7878C17.4854 82.9759 13.3975 78.986 12.8095 78.2441C11.3256 76.3821 10.9056 75.8501 10.5276 75.3042C7.50373 70.9923 5.79579 67.6325 4.19985 62.8446C2.79991 58.6868 2.14193 54.9069 2.07194 50.6651L2.02994 48.4952L1.07797 48.4532C0.322002 48.4252 0.126009 48.4532 0.0560119 48.6352Z" fill="#340068"/>
<path d="M11.6196 64.3285C10.4576 64.8605 8.53969 65.9805 8.53969 66.1205C8.53969 66.3025 9.36566 67.7164 9.53365 67.8284C9.84164 68.0104 9.84164 67.7164 9.54765 67.1144C9.37966 66.7644 9.23966 66.4005 9.23966 66.3025C9.23966 66.2045 10.0376 65.7285 11.0036 65.2525C12.5715 64.4685 12.9635 64.1465 12.5155 64.0066C12.4455 63.9926 12.0396 64.1325 11.6196 64.3285Z" fill="#340068"/>
<path d="M82.3589 64.4545C82.0509 64.6785 81.1969 66.0504 81.1969 66.3304C81.1969 66.4144 81.7709 66.7784 82.4849 67.1284C83.1849 67.4784 84.0108 67.9264 84.3048 68.1083C84.5848 68.2903 84.9628 68.4443 85.1168 68.4443C85.6348 68.4443 85.4108 68.0803 84.6828 67.7444C84.2908 67.5624 83.9548 67.3664 83.9128 67.2964C83.8708 67.2404 83.9688 66.9464 84.1368 66.6384C84.5288 65.8544 84.5148 64.9445 84.0948 64.5525C83.7029 64.1885 82.8069 64.1325 82.3589 64.4545ZM83.7728 65.0285C83.8988 65.1405 83.9968 65.3785 83.9968 65.5464C83.9968 65.8824 83.4649 67.0444 83.3109 67.0444C83.1569 67.0444 81.8969 66.2184 81.8969 66.1344C81.8969 65.9664 82.2189 65.4344 82.4989 65.1125C82.8349 64.7485 83.4509 64.7065 83.7728 65.0285Z" fill="#340068"/>
<path d="M13.6495 68.5565C13.2715 68.8365 12.6275 69.2845 12.2355 69.5365C11.8436 69.7885 11.4096 70.1105 11.2696 70.2644C11.0316 70.5304 11.0316 70.5724 11.6756 71.5384C12.2215 72.3504 12.3755 72.4904 12.5435 72.3504C12.7115 72.2104 12.6695 72.0844 12.2495 71.5104C11.9836 71.1324 11.7596 70.7684 11.7596 70.6844C11.7596 70.5304 12.6415 69.8445 12.8515 69.8445C12.9215 69.8445 13.2295 70.1665 13.5095 70.5584C13.8735 71.0764 14.0695 71.2304 14.1815 71.1184C14.2795 71.0204 14.1955 70.7684 13.8875 70.2644C13.6355 69.8725 13.4395 69.4945 13.4395 69.4245C13.4395 69.2845 14.3775 68.7245 14.6015 68.7245C14.6995 68.7245 14.9794 69.0465 15.2314 69.4245C15.4694 69.8165 15.7354 70.1245 15.8054 70.1245C16.1554 70.1245 16.0714 69.7465 15.5254 68.9345C14.8114 67.8565 14.6295 67.8145 13.6495 68.5565Z" fill="#340068"/>
<path d="M78.747 70.1243C78.705 70.1943 79.237 70.6423 79.937 71.1322C80.637 71.6222 81.4349 72.1822 81.7149 72.3922C81.9949 72.6162 82.2609 72.7842 82.3309 72.7842C82.5269 72.7842 83.7448 70.9782 83.6468 70.8243C83.4929 70.5723 83.3109 70.6703 82.8769 71.3142C82.6389 71.6642 82.3449 71.9442 82.2189 71.9442C82.0929 71.9442 81.3789 71.4962 80.623 70.9642C79.293 70.0123 78.915 69.8443 78.747 70.1243Z" fill="#340068"/>
<path d="M16.8694 72.8125C15.7214 73.2184 15.2314 73.9184 15.2454 75.1924C15.2454 76.5223 15.9734 77.3623 17.3173 77.6283C17.8773 77.7263 18.8153 77.3763 18.8713 77.0403C18.9273 76.6623 16.9954 74.7724 16.7714 74.9964C16.6034 75.1644 16.9534 75.7244 17.6253 76.3263C18.1573 76.7883 18.1853 77.1243 17.7093 77.1243C17.1354 77.1243 16.4634 76.7743 16.0434 76.2703C15.6934 75.8643 15.6514 75.7244 15.7074 75.0664C15.7774 74.1844 16.2674 73.5684 17.0794 73.3304C18.1433 73.0085 19.4593 74.1704 19.4593 75.4164C19.4593 76.3403 19.7953 76.1023 19.8512 75.1504C19.9072 74.1844 19.5153 73.5404 18.6193 73.1065C17.7793 72.7145 17.3733 72.6445 16.8694 72.8125Z" fill="#340068"/>
<path d="M75.9471 73.4984C75.8211 73.6944 76.1151 74.0024 77.7391 75.4163L79.125 76.5923L79.615 76.1303C80.315 75.4723 80.7629 74.9683 80.7769 74.8424C80.7909 74.5484 80.175 74.8144 79.755 75.3043C79.489 75.6123 79.237 75.8643 79.181 75.8643C79.069 75.8643 76.7171 73.8904 76.4511 73.5684C76.2271 73.3024 76.0731 73.2884 75.9471 73.4984Z" fill="#340068"/>
<path d="M23.0291 78.468C22.5672 78.734 21.8112 79.1399 21.3492 79.3779C20.4952 79.8119 19.8793 80.3019 19.8793 80.5119C19.8793 80.7079 20.3552 80.6239 20.8312 80.3439C21.4332 79.9659 21.5032 79.9799 22.3712 80.5819C23.1271 81.0999 23.1271 81.0999 23.0291 81.6598C22.8751 82.6398 22.8751 82.7798 23.1131 82.8358C23.2811 82.8638 23.3791 82.6678 23.5191 82.0658C23.6171 81.6178 23.8551 80.6519 24.0371 79.9239C24.3731 78.608 24.3731 77.964 24.0371 77.964C23.9531 77.978 23.4911 78.202 23.0291 78.468ZM23.5891 79.6719C23.4491 80.0779 23.3231 80.4419 23.2951 80.4699C23.2251 80.5539 22.1192 79.7979 22.1192 79.6719C22.1332 79.4899 23.5891 78.706 23.7151 78.8179C23.7711 78.8739 23.7151 79.2519 23.5891 79.6719Z" fill="#340068"/>
<path d="M70.5713 78.286C70.3753 78.37 70.1094 78.664 69.9554 78.902C69.7034 79.35 69.7034 79.378 69.9554 79.8819C70.2914 80.5959 70.7673 80.7499 71.6913 80.4419C72.3353 80.2459 72.4613 80.2459 72.8113 80.4279C73.2452 80.6519 73.3432 81.0999 73.0772 81.6179C72.9093 81.9259 71.9853 81.9959 71.7053 81.7159C71.5793 81.5899 71.4953 81.5899 71.3693 81.7159C71.0893 81.9959 71.6353 82.4438 72.2793 82.4438C72.7133 82.4438 72.9233 82.3459 73.3012 81.9679C73.8612 81.4079 73.9312 80.8479 73.4972 80.3159C73.0212 79.7 72.5313 79.588 71.7613 79.9239C71.0753 80.2179 70.7953 80.1759 70.4173 79.7139C70.2634 79.532 70.2634 79.434 70.4173 79.14C70.6413 78.72 71.1173 78.58 71.5373 78.804C71.7753 78.93 71.8873 78.93 72.0133 78.804C72.1253 78.678 72.0833 78.58 71.8313 78.37C71.4533 78.062 71.0473 78.034 70.5713 78.286Z" fill="#340068"/>
<path d="M66.3995 80.9458C65.6995 81.3377 65.3775 81.6037 65.3775 81.7857C65.3775 82.0237 65.8255 82.8637 67.0155 84.8516L67.4915 85.6636L68.4994 85.1036C69.0594 84.8096 69.5214 84.4596 69.5494 84.3336C69.6194 84.0396 69.3954 84.0676 68.5974 84.4736C68.2194 84.6696 67.8414 84.8236 67.7574 84.8236C67.5754 84.8236 67.0575 83.9836 67.0575 83.7036C67.0575 83.5917 67.3795 83.3257 67.7574 83.1157C68.1494 82.8917 68.4574 82.6677 68.4574 82.5837C68.4574 82.3317 67.8274 82.4437 67.3095 82.7937C67.0295 82.9897 66.7635 83.1437 66.7075 83.1437C66.5535 83.1437 66.0775 82.2337 66.0775 81.9397C66.0775 81.7437 66.2175 81.5757 66.4695 81.4777C67.0855 81.2257 67.7014 80.6658 67.5475 80.5118C67.4495 80.4138 67.0575 80.5678 66.3995 80.9458Z" fill="#340068"/>
<path d="M27.747 80.8759C27.355 81.2679 25.899 84.0678 25.899 84.4458C25.899 84.6978 26.081 84.8518 26.823 85.2157C27.341 85.4677 27.789 85.6497 27.817 85.6077C27.985 85.4397 27.691 85.0897 27.159 84.8238C26.837 84.6698 26.557 84.4458 26.515 84.3478C26.473 84.2498 26.823 83.4798 27.299 82.6398C28.2509 80.9319 28.4329 80.1899 27.747 80.8759Z" fill="#340068"/>
<path d="M60.8277 83.3957C60.2677 83.7457 59.5258 84.5997 59.4138 85.0477C59.1898 85.9016 59.6797 87.0076 60.5477 87.5956C61.0937 87.9736 62.2837 88.0015 62.9976 87.6516C63.5156 87.3996 64.1176 86.6156 64.1176 86.2096C64.1176 85.7756 63.7396 85.9016 63.4176 86.4336C62.6476 87.6936 60.7857 87.6516 60.1277 86.3636C59.6937 85.5376 60.0297 84.5437 60.9257 83.9697C61.2897 83.7457 61.5277 83.7037 62.0177 83.7737C63.1236 83.9277 63.2076 83.9137 63.2076 83.7177C63.2076 83.4797 62.4096 83.1717 61.7377 83.1577C61.4717 83.1437 61.0517 83.2557 60.8277 83.3957Z" fill="#340068"/>
<path d="M34.8867 84.4457C34.6907 84.6557 34.5787 84.9497 34.5787 85.2576C34.5787 85.6496 34.7047 85.8456 35.3487 86.4476C36.0346 87.0916 36.1046 87.1896 35.9926 87.5676C35.8946 87.9455 35.8386 87.9735 35.1947 87.9735C34.5367 87.9735 34.5087 87.9595 34.3547 87.4836C34.0747 86.6156 33.6127 86.8256 33.8647 87.7075C34.0467 88.3795 34.3687 88.5895 35.2367 88.6035C35.8526 88.6035 36.0066 88.5475 36.2446 88.2395C36.7906 87.5396 36.5666 86.6156 35.6846 85.9996C34.7887 85.3836 34.8307 84.6837 35.7546 84.6837C36.2866 84.6837 36.5386 84.8937 36.5386 85.3416C36.5386 85.7896 36.9306 85.7616 37.0426 85.2996C37.1126 85.0476 37.0566 84.8237 36.8606 84.5717C36.6366 84.2637 36.4546 84.1797 35.8946 84.1517C35.3207 84.1237 35.1527 84.1657 34.8867 84.4457Z" fill="#340068"/>
<path d="M55.9279 84.9639C55.8859 85.0338 55.8999 85.2158 55.9699 85.3418C56.0399 85.4818 56.1799 85.9718 56.2779 86.4338C56.8239 88.9817 56.9079 89.2337 57.1738 89.2757C57.4818 89.3457 57.4818 89.3737 56.9219 86.8538C56.7119 85.9438 56.4739 85.1038 56.3899 85.0059C56.2079 84.7959 56.0399 84.7679 55.9279 84.9639Z" fill="#340068"/>
<path d="M39.6465 85.5516C39.5765 85.8036 39.3945 86.7836 39.2545 87.7355C38.9605 89.7934 38.9605 89.7934 40.4305 89.9334C41.2844 90.0174 41.4384 90.0034 41.4384 89.8214C41.4384 89.6675 41.1864 89.5555 40.6405 89.4435C39.4505 89.1915 39.4365 89.1915 39.5485 88.9115C39.6045 88.7855 39.6745 88.4635 39.7165 88.2115L39.8005 87.7355L40.4445 87.8335C40.7945 87.8755 41.2284 87.9595 41.4104 88.0015C41.6344 88.0575 41.7184 88.0155 41.7184 87.8475C41.7184 87.5395 41.2844 87.3435 40.6125 87.3435H40.0385V86.5876C40.0385 86.1676 40.0805 85.7896 40.1505 85.7616C40.2065 85.7196 40.6545 85.7756 41.1584 85.8876C42.0824 86.0696 42.5024 85.9716 42.1804 85.6496C42.0684 85.5376 40.5565 85.1876 39.8005 85.1036C39.7865 85.1036 39.7165 85.3136 39.6465 85.5516Z" fill="#340068"/>
<path d="M52.932 86.7418C52.694 87.4977 52.442 88.3797 52.358 88.7017C52.274 89.0377 52.148 89.3037 52.078 89.3037C51.994 89.3037 51.5601 88.5617 51.1121 87.6377C50.3981 86.2238 50.0901 85.8038 49.7541 85.8038C49.5581 85.8038 49.7961 86.4198 50.4401 87.5537C50.8321 88.2817 51.3501 89.1917 51.5601 89.5837C52.064 90.5216 52.33 90.4796 52.666 89.3737C53.296 87.3017 53.618 86.0698 53.618 85.7478C53.618 85.0058 53.338 85.4258 52.932 86.7418Z" fill="#340068"/>
<path d="M44.8543 85.9579C44.8123 86.0419 44.7423 86.6579 44.7143 87.3159C44.6863 87.9878 44.6303 88.8838 44.6023 89.3038C44.5183 90.2418 44.7003 90.6337 45.0083 90.2278C45.1763 90.0178 45.2183 89.5278 45.2183 88.1418V86.3359L45.9743 86.3919C46.8982 86.4759 47.1782 86.6719 47.1782 87.2739C47.1782 87.8199 46.6603 88.3238 46.1143 88.3238C45.7223 88.3238 45.6523 88.7438 45.9743 89.0238C46.0863 89.1078 46.3803 89.4998 46.6183 89.8778C47.0522 90.5358 47.4582 90.7737 47.4582 90.3678C47.4582 90.2698 47.3042 89.9478 47.1082 89.6678C46.7163 89.0938 46.6463 88.6038 46.9542 88.6038C47.3182 88.6038 47.7382 87.9038 47.7382 87.2879C47.7382 86.6859 47.4582 86.2239 46.9402 85.9579C46.5483 85.7619 44.9803 85.7619 44.8543 85.9579Z" fill="#340068"/>
</svg>
