<svg width="48" height="49" viewBox="0 0 48 49" fill="none" xmlns="http://www.w3.org/2000/svg">
<g id="mail_24dp_E8EAED_FILL0_wght400_GRAD0_opsz24 1">
<path id="Vector" d="M8 40.5C6.9 40.5 5.95833 40.1083 5.175 39.325C4.39167 38.5417 4 37.6 4 36.5V12.5C4 11.4 4.39167 10.4583 5.175 9.675C5.95833 8.89167 6.9 8.5 8 8.5H40C41.1 8.5 42.0417 8.89167 42.825 9.675C43.6083 10.4583 44 11.4 44 12.5V36.5C44 37.6 43.6083 38.5417 42.825 39.325C42.0417 40.1083 41.1 40.5 40 40.5H8ZM24 26.5L8 16.5V36.5H40V16.5L24 26.5ZM24 22.5L40 12.5H8L24 22.5ZM8 16.5V12.5V36.5V16.5Z" fill="#E8EAED"/>
</g>
</svg>
