<?xml version="1.0" encoding="utf-8"?>
<!-- Generator: Adobe Illustrator 27.5.0, SVG Export Plug-In . SVG Version: 6.00 Build 0)  -->
<svg version="1.1" xmlns="http://www.w3.org/2000/svg" xmlns:xlink="http://www.w3.org/1999/xlink" x="0px" y="0px"
	 viewBox="0 0 4000 2285.714" style="enable-background:new 0 0 4000 2285.714;" xml:space="preserve">
<g id="Layer_2">
	<radialGradient id="SVGID_1_" cx="1951.344" cy="-12.1211" r="2534.0728" gradientUnits="userSpaceOnUse">
		<stop  offset="0" style="stop-color:#CEE4E9"/>
		<stop  offset="1" style="stop-color:#7DBCC9"/>
	</radialGradient>
	<rect style="fill:url(#SVGID_1_);" width="4000" height="2285.714"/>
</g>
<g id="Layer_3">
	<g>
		<g>
			<rect x="1546.464" y="542.425" style="opacity:0.2;" width="1008.373" height="1365.373"/>
			<rect x="1529.547" y="515.182" style="fill:#FFFFFF;" width="1008.373" height="1375.699"/>
			<g>
				<rect x="1643.7" y="801.354" style="fill:#EDEDED;" width="676.618" height="15.378"/>
				<rect x="1643.7" y="829.313" style="fill:#EDEDED;" width="808.977" height="15.378"/>
				<rect x="1643.7" y="857.273" style="fill:#EDEDED;" width="796.778" height="15.378"/>
				<rect x="1643.7" y="885.232" style="fill:#EDEDED;" width="395.199" height="15.378"/>
				<rect x="1643.7" y="941.152" style="fill:#EDEDED;" width="552.114" height="15.378"/>
				<rect x="1643.7" y="969.111" style="fill:#EDEDED;" width="750.323" height="15.378"/>
				<rect x="1643.7" y="1025.03" style="fill:#EDEDED;" width="676.618" height="15.378"/>
				<rect x="1643.7" y="1052.99" style="fill:#EDEDED;" width="796.778" height="15.378"/>
				<rect x="1643.7" y="1080.949" style="fill:#EDEDED;" width="796.778" height="15.378"/>
				<rect x="1643.7" y="1108.909" style="fill:#EDEDED;" width="169.118" height="15.378"/>
				<rect x="1643.7" y="1164.828" style="fill:#EDEDED;" width="676.618" height="15.378"/>
				<rect x="1643.7" y="1192.788" style="fill:#EDEDED;" width="596.595" height="15.378"/>
				<rect x="1643.7" y="1220.747" style="fill:#EDEDED;" width="494.044" height="15.378"/>
				<rect x="1643.7" y="1276.666" style="fill:#EDEDED;" width="676.618" height="15.378"/>
				<rect x="1643.7" y="1304.626" style="fill:#EDEDED;" width="771.168" height="15.378"/>
				<rect x="1643.7" y="1332.586" style="fill:#EDEDED;" width="732.294" height="15.378"/>
				<rect x="1643.7" y="1360.545" style="fill:#EDEDED;" width="796.778" height="15.378"/>
				<rect x="1643.7" y="1416.464" style="fill:#EDEDED;" width="704.602" height="15.378"/>
				<rect x="1643.7" y="1444.424" style="fill:#EDEDED;" width="756.79" height="15.378"/>
				<rect x="1643.7" y="1472.383" style="fill:#EDEDED;" width="728.033" height="15.378"/>
				<rect x="1643.7" y="1500.343" style="fill:#EDEDED;" width="796.778" height="15.378"/>
				<rect x="1643.7" y="1658.977" style="fill:#EDEDED;" width="236.619" height="15.378"/>
				<rect x="1643.7" y="1687.396" style="fill:#EDEDED;" width="236.619" height="15.378"/>
				<g>
					<path style="fill:#EDEDED;" d="M2375.993,1789.701c-58.404,0-105.919-47.515-105.919-105.919
						c0-58.405,47.515-105.92,105.919-105.92c58.405,0,105.92,47.515,105.92,105.92
						C2481.913,1742.186,2434.397,1789.701,2375.993,1789.701z M2375.993,1588.432c-52.576,0-95.35,42.774-95.35,95.351
						c0,52.576,42.774,95.35,95.35,95.35c52.577,0,95.351-42.774,95.351-95.35
						C2471.344,1631.205,2428.57,1588.432,2375.993,1588.432z"/>
				</g>
				<g>
					<path style="fill:#EDEDED;" d="M2375.993,1766.067c-45.372,0-82.284-36.913-82.284-82.284
						c0-45.372,36.913-82.285,82.284-82.285c45.372,0,82.285,36.913,82.285,82.285
						C2458.278,1729.154,2421.365,1766.067,2375.993,1766.067z M2375.993,1612.066c-39.544,0-71.715,32.172-71.715,71.716
						c0,39.544,32.171,71.715,71.715,71.715s71.716-32.171,71.716-71.715C2447.709,1644.238,2415.537,1612.066,2375.993,1612.066z"
						/>
				</g>
			</g>
		</g>
		<g>
			<path style="fill:#999999;" d="M1733.355,673.389h-21.022v13.563h23.48v10.596h-36.449v-57.133h35.262v10.596h-22.293v11.867
				h21.022V673.389z"/>
			<path style="fill:#999999;" d="M1792.947,675.677c-0.254-6.866-0.508-15.173-0.508-23.48h-0.255
				c-1.78,7.29-4.153,15.427-6.357,22.124l-6.951,22.293h-10.087l-6.104-22.124c-1.864-6.697-3.814-14.834-5.17-22.294h-0.17
				c-0.339,7.714-0.593,16.529-1.017,23.65l-1.017,21.7h-11.952l3.646-57.133h17.208l5.594,19.073
				c1.78,6.612,3.561,13.732,4.832,20.429h0.255c1.611-6.612,3.56-14.156,5.425-20.514l6.103-18.988h16.868l3.136,57.133h-12.63
				L1792.947,675.677z"/>
			<path style="fill:#999999;" d="M1816.345,641.177c3.984-0.678,9.578-1.186,17.461-1.186c7.968,0,13.648,1.526,17.462,4.577
				c3.645,2.882,6.103,7.629,6.103,13.224c0,5.594-1.865,10.341-5.255,13.563c-4.408,4.153-10.935,6.018-18.564,6.018
				c-1.695,0-3.221-0.085-4.408-0.254v20.429h-12.799V641.177z M1829.144,667.116c1.102,0.254,2.458,0.339,4.323,0.339
				c6.866,0,11.104-3.475,11.104-9.324c0-5.256-3.645-8.392-10.087-8.392c-2.627,0-4.408,0.255-5.34,0.509V667.116z"/>
			<path style="fill:#999999;" d="M1865.595,640.414h12.969v46.283h22.718v10.85h-35.687V640.414z"/>
			<path style="fill:#999999;" d="M1957.99,668.387c0,18.734-11.358,30.092-28.057,30.092c-16.954,0-26.871-12.8-26.871-29.075
				c0-17.123,10.935-29.922,27.803-29.922C1948.412,639.482,1957.99,652.621,1957.99,668.387z M1916.71,669.15
				c0,11.189,5.255,19.072,13.902,19.072c8.73,0,13.732-8.307,13.732-19.411c0-10.256-4.917-19.073-13.817-19.073
				C1921.795,649.739,1916.71,658.046,1916.71,669.15z"/>
			<path style="fill:#999999;" d="M1976.558,697.547v-23.396l-18.055-33.737h14.749l5.849,13.732
				c1.78,4.153,2.968,7.205,4.408,10.935h0.17c1.271-3.56,2.627-6.866,4.323-10.935l5.765-13.732h14.495l-18.818,33.313v23.82
				H1976.558z"/>
			<path style="fill:#999999;" d="M2060.986,675.677c-0.254-6.866-0.508-15.173-0.508-23.48h-0.255
				c-1.78,7.29-4.153,15.427-6.357,22.124l-6.951,22.293h-10.087l-6.104-22.124c-1.864-6.697-3.814-14.834-5.17-22.294h-0.17
				c-0.339,7.714-0.593,16.529-1.017,23.65l-1.017,21.7h-11.952l3.645-57.133h17.208l5.594,19.073
				c1.78,6.612,3.561,13.732,4.832,20.429h0.255c1.611-6.612,3.56-14.156,5.425-20.514l6.103-18.988h16.868l3.136,57.133h-12.63
				L2060.986,675.677z"/>
			<path style="fill:#999999;" d="M2118.375,673.389h-21.022v13.563h23.48v10.596h-36.449v-57.133h35.262v10.596h-22.293v11.867
				h21.022V673.389z"/>
			<path style="fill:#999999;" d="M2129.65,697.547v-57.133h15.088l11.867,20.937c3.391,6.019,6.781,13.139,9.324,19.581h0.255
				c-0.848-7.544-1.102-15.258-1.102-23.819v-16.699h11.867v57.133h-13.563l-12.206-22.039c-3.391-6.103-7.121-13.478-9.917-20.174
				l-0.255,0.085c0.339,7.544,0.508,15.597,0.508,24.921v17.208H2129.65z"/>
			<path style="fill:#999999;" d="M2199.159,651.265h-15.343v-10.85h43.909v10.85h-15.597v46.283h-12.969V651.265z"/>
			<path style="fill:#999999;" d="M2251.715,640.414h12.969v46.283h22.718v10.85h-35.687V640.414z"/>
			<path style="fill:#999999;" d="M2308.848,682.883l-4.069,14.664h-13.393l17.462-57.133h16.953l17.716,57.133h-13.902
				l-4.408-14.664H2308.848z M2323.343,673.219l-3.561-12.122c-1.017-3.391-2.034-7.629-2.882-11.02h-0.17
				c-0.847,3.391-1.695,7.714-2.627,11.02l-3.391,12.122H2323.343z"/>
			<path style="fill:#999999;" d="M2355.386,697.547l-13.563-57.133h13.817l4.323,23.565c1.271,6.781,2.458,14.156,3.391,19.92
				h0.169c0.933-6.188,2.289-13.054,3.73-20.089l4.831-23.396h13.732l4.577,24.074c1.271,6.697,2.204,12.8,3.052,19.157h0.17
				c0.847-6.358,2.119-13.054,3.305-19.835l4.662-23.396h13.139l-14.749,57.133h-13.987l-4.831-24.582
				c-1.102-5.764-2.035-11.104-2.713-17.631h-0.17c-1.017,6.442-1.949,11.867-3.305,17.631l-5.425,24.582H2355.386z"/>
		</g>
	</g>
	<g>
		<ellipse style="opacity:0.1;" cx="2023.743" cy="2080.985" rx="1779.549" ry="68.16"/>
		<path style="fill:#FFFFFF;" d="M3654.457,2081.279c0,3.648-11.81,7.206-34.302,10.648
			c-158.347,24.216-846.228,42.44-1670.829,42.44c-721.467,0-1338.284-13.95-1587.338-33.66
			c-76.033-6.016-117.793-12.568-117.793-19.429c0-6.873,42.022-13.451,118.502-19.479
			c249.515-19.684,865.85-33.609,1586.629-33.609c823.92,0,1511.347,18.187,1670.439,42.376
			C3642.512,2074.035,3654.457,2077.606,3654.457,2081.279z"/>
		<rect x="244.194" y="2003.542" style="fill:#FFFFFF;" width="3410.262" height="77.737"/>
		<path style="fill:#E5E5E5;" d="M3654.457,2003.542c0,3.648-11.81,7.206-34.302,10.649
			c-158.347,24.215-846.228,42.44-1670.829,42.44c-721.467,0-1338.284-13.95-1587.338-33.66
			c-76.033-6.016-117.793-12.568-117.793-19.429c0-6.873,42.022-13.451,118.502-19.479
			c249.515-19.684,865.85-33.609,1586.629-33.609c823.92,0,1511.347,18.187,1670.439,42.377
			C3642.512,1996.298,3654.457,1999.869,3654.457,2003.542z"/>
	</g>
	<path style="opacity:0.3;fill:#FFFFFF;" d="M775.158,511.842c-4.057-29.948-29.722-53.033-60.783-53.033
		c-12.188,0-23.545,3.554-33.093,9.683c-13.96-27.822-42.744-46.92-75.993-46.92c-29.463,0-55.421,14.996-70.665,37.77
		c-2.153-0.349-4.362-0.533-6.614-0.533c-22.675,0-41.056,18.382-41.056,41.056c0,2.974,0.319,5.872,0.919,8.666
		c-24.24,3.614-42.99,24.65-42.99,49.855v0c0,27.723,22.682,50.405,50.405,50.405H755.87c27.723,0,50.405-22.682,50.405-50.405v0
		C806.275,537.486,793.382,519.454,775.158,511.842z"/>
	<path style="opacity:0.3;fill:#FFFFFF;" d="M3562.479,821.724h-2.25c0.008-0.503,0.019-1.005,0.019-1.51
		c0-49.466-40.1-89.566-89.566-89.566c-34.235,0-63.979,19.21-79.053,47.436c-6.204-2.91-13.125-4.544-20.431-4.544
		c-18.309,0-34.232,10.212-42.386,25.251c-6.922-3.874-14.897-6.092-23.394-6.092c-26.498,0-47.979,21.481-47.979,47.979
		c0,20.154,12.432,37.394,30.041,44.499c3.085,24.054,23.776,42.801,48.634,42.801h226.365c26.967,0,49.03-22.064,49.03-49.03
		v-8.194C3611.51,843.788,3589.446,821.724,3562.479,821.724z"/>
	<path style="opacity:0.3;fill:#FFFFFF;" d="M2762.477,363.011h-407.336c-5.042-8.43-7.944-18.305-7.944-28.849
		c0-31.107,25.211-56.319,56.318-56.319c9.98,0,19.342,2.6,27.47,7.143c9.559-17.648,28.258-29.637,49.753-29.637
		c8.574,0,16.703,1.917,23.977,5.331c17.701-33.13,52.615-55.689,92.81-55.689c58.065,0,105.14,47.075,105.14,105.153
		c0,0.591-0.013,1.182-0.013,1.773h2.639C2734.77,311.918,2759.246,334.359,2762.477,363.011z"/>
	<g>
		<g>
			<path style="fill:#8F5A48;" d="M2556.875,1468.746l3.434,8.513c3.267,5.36,7.938,8.601,12.883,10.512l22.854-6.141
				l511.672-142.469c3.297-0.796,5.396-4.038,4.837-7.332c-0.021-0.147-0.051-0.293-0.087-0.439l-1.547-6.412
				c-0.831-3.444-4.327-5.581-7.771-4.75l-517.289,119.188l-23.14,4.956C2557.615,1450.095,2554.29,1458.033,2556.875,1468.746z"/>
			<path style="opacity:0.1;" d="M2560.31,1477.26c3.267,5.36,7.938,8.601,12.883,10.512l22.854-6.141l511.672-142.469
				c3.297-0.796,5.396-4.038,4.837-7.332L2593,1469.006L2560.31,1477.26z"/>
			<path style="fill:#9D624E;" d="M3145.605,1251.205l30.438,126.157c1.762,7.304,9.114,11.8,16.42,10.037l140.894-33.994
				c7.306-1.763,11.799-9.116,10.037-16.42l-30.438-126.157c-1.762-7.304-9.114-11.799-16.42-10.037l-140.894,33.994
				C3148.336,1236.548,3143.843,1243.901,3145.605,1251.205z"/>
			<g>
				
					<rect x="3148.4" y="1185.961" transform="matrix(-0.9721 0.2345 -0.2345 -0.9721 6636.667 1614.9071)" style="fill:#8F5A48;" width="147.808" height="32.277"/>
				
					<rect x="3145.136" y="1186.349" transform="matrix(-0.9721 0.2345 -0.2345 -0.9721 6627.0576 1588.9938)" style="opacity:0.1;" width="147.807" height="4.445"/>
				<path style="fill:#9F6450;" d="M3123.68,1191.487l0.597,2.475c1.912,7.924,9.887,12.801,17.814,10.889l152.854-36.879
					c7.927-1.912,12.801-9.89,10.889-17.814l-0.597-2.475c-1.912-7.924-9.887-12.801-17.814-10.889l-152.854,36.879
					C3126.643,1175.586,3121.769,1183.563,3123.68,1191.487z"/>
			</g>
			<g>
				
					<rect x="3192.792" y="1369.952" transform="matrix(-0.9721 0.2345 -0.2345 -0.9721 6767.3657 1967.3447)" style="fill:#8F5A48;" width="147.807" height="32.277"/>
				
					<rect x="3196.056" y="1397.396" transform="matrix(-0.9721 0.2345 -0.2345 -0.9721 6776.9751 1993.2581)" style="opacity:0.1;" width="147.807" height="4.446"/>
				<path style="fill:#9F6450;" d="M3183.762,1440.508l-0.597-2.475c-1.912-7.924,2.962-15.901,10.889-17.814l152.854-36.879
					c7.927-1.912,15.902,2.965,17.814,10.889l0.597,2.475c1.912,7.924-2.962,15.901-10.889,17.814l-152.854,36.879
					C3193.649,1453.309,3185.674,1448.432,3183.762,1440.508z"/>
			</g>
			<path style="fill:#F2BB46;" d="M3145.605,1251.205l2.241,9.29l167.35-40.377l-2.241-9.29c-1.762-7.304-9.114-11.799-16.42-10.037
				l-140.894,33.994C3148.336,1236.548,3143.843,1243.901,3145.605,1251.205z"/>
			<path style="fill:#F2BB46;" d="M3176.044,1377.363l-2.241-9.29l167.35-40.377l2.241,9.29c1.762,7.304-2.73,14.657-10.037,16.42
				l-140.894,33.994C3185.157,1389.162,3177.806,1384.667,3176.044,1377.363z"/>
			<path style="fill:#9D624E;" d="M3159.841,1360.709l11.525-2.781l-20.199-83.721l-11.525,2.781
				c-5.067,1.223-8.213,6.369-6.99,11.436l15.754,65.294C3149.627,1358.786,3154.774,1361.932,3159.841,1360.709z"/>
			<path style="fill:#9D624E;" d="M3096.494,1369.701L3096.494,1369.701c3.717-0.897,6.004-4.637,5.107-8.355l-14.083-58.368
				c-0.897-3.717-4.637-6.004-8.355-5.107l0,0c-3.769,0.909-6.109,4.737-5.199,8.506l14.024,58.124
				C3088.898,1368.271,3092.726,1370.61,3096.494,1369.701z"/>
			
				<rect x="3093.994" y="1297.367" transform="matrix(-0.9721 0.2345 -0.2345 -0.9721 6459.5483 1885.7817)" style="fill:#8F5A48;" width="47.287" height="59.273"/>
			
				<rect x="3156.863" y="1273.531" transform="matrix(-0.9721 0.2345 -0.2345 -0.9721 6538.8569 1855.522)" style="opacity:0.1;" width="4.455" height="86.123"/>
			
				<rect x="3136.229" y="1292.345" transform="matrix(-0.9721 0.2345 -0.2345 -0.9721 6499.4253 1871.0063)" style="opacity:0.1;" width="4.455" height="59.272"/>
			<polygon style="opacity:0.1;" points="3079.207,1347.1 3083.502,1345.905 3078.668,1325.87 3074.326,1326.87 			"/>
		</g>
		<g>
			<path style="fill:#8F5A48;" d="M3143.554,1475.946h245.076c4.262,0,7.75-3.487,7.75-7.75v-9.202c0-4.263-3.488-7.75-7.75-7.75
				h-245.076c-4.262,0-7.75,3.487-7.75,7.75v9.202C3135.804,1472.458,3139.292,1475.946,3143.554,1475.946z"/>
			<path style="fill:#9D624E;" d="M3127.648,1488.297h276.887v-21.532c0-1.744-1.427-3.17-3.17-3.17h-270.546
				c-1.744,0-3.17,1.427-3.17,3.17V1488.297z"/>
		</g>
	</g>
	<g>
		<path style="fill:#9D624E;" d="M1628.832,1982.174h-384.24v-28.818c0-6.055,4.909-10.964,10.964-10.964h362.312
			c6.055,0,10.964,4.909,10.964,10.964V1982.174z"/>
		<path style="fill:#9D624E;" d="M1609.281,1942.393h-345.138c0-3.833,0.754-7.494,2.119-10.838
			c1.454-3.569,3.607-6.782,6.289-9.464c5.195-5.199,12.372-8.412,20.302-8.412h287.718c12.02,0,22.318,7.391,26.591,17.876
			C1608.528,1934.899,1609.281,1938.56,1609.281,1942.393z"/>
		<path style="fill:#9D624E;" d="M1488.653,1693.857c-0.727,92.603-7.731,168.723-17.876,219.823h-66.644
			c-10.742-50.634-18.462-126.084-19.345-217.899c-0.688-71.062,5.708-131.478,12.226-174.694
			c1.909-12.67,3.829-23.863,5.589-33.412h69.482c1.641,9.579,3.428,20.768,5.199,33.412
			C1483.32,1564.036,1489.2,1623.736,1488.653,1693.857z"/>
		<path style="fill:#F2BB46;" d="M1498.901,1504.381c0,4.594-1.878,8.772-4.908,11.798c-3.026,3.03-7.203,4.908-11.798,4.908
			h-89.482c-9.189,0-16.706-7.517-16.706-16.706c0-4.594,1.878-8.772,4.908-11.798c3.026-3.03,7.203-4.908,11.798-4.908h89.482
			C1491.384,1487.675,1498.901,1495.192,1498.901,1504.381z"/>
		<path style="fill:#F2BB46;" d="M1498.901,1896.974c0,4.594-1.878,8.772-4.908,11.798c-3.026,3.03-7.203,4.908-11.798,4.908
			h-89.482c-9.189,0-16.706-7.517-16.706-16.706c0-4.594,1.878-8.772,4.908-11.798c3.026-3.03,7.203-4.908,11.798-4.908h89.482
			C1491.384,1880.268,1498.901,1887.785,1498.901,1896.974z"/>
		<polygon style="fill:#8F5A48;" points="1462.329,1487.675 1411.095,1487.675 1417.981,961.671 1455.443,961.671 		"/>
		<g>
			<g>
				<g>
					
						<rect x="507.492" y="1136.168" transform="matrix(0.2849 -0.9586 0.9586 0.2849 -516.9514 1587.9778)" style="fill:#CFAB3D;" width="596.619" height="8.572"/>
				</g>
				<g>
					
						<rect x="971.52" y="841.854" transform="matrix(0.9585 -0.2849 0.2849 0.9585 -284.4321 325.3201)" style="fill:#CFAB3D;" width="8.572" height="596.619"/>
				</g>
				<path style="fill:#F9DA7C;" d="M1061.612,1439.792H719.995c-1.439,0-2.606-1.167-2.606-2.606v-21.579
					c0-1.439,1.167-2.606,2.606-2.606h341.617c1.439,0,2.606,1.167,2.606,2.606v21.579
					C1064.218,1438.626,1063.052,1439.792,1061.612,1439.792z"/>
				<path style="fill:#FACF4C;" d="M1037.883,1461.922H743.725c-9.409,0-17.036-7.627-17.036-17.036v-5.094h328.23v5.094
					C1054.918,1454.295,1047.291,1461.922,1037.883,1461.922z"/>
				<rect x="726.689" y="1439.792" style="opacity:0.1;" width="328.23" height="5.094"/>
			</g>
			<polygon style="fill:#8F5A48;" points="1406.505,903.199 1406.505,940.972 905.769,863.069 905.769,845.954 			"/>
			<polygon style="opacity:0.1;" points="1406.505,923.914 1406.505,940.972 905.769,863.069 905.769,856.34 			"/>
			<circle style="fill:#8F5A48;" cx="890.804" cy="854.512" r="22.332"/>
			<path style="opacity:0.2;fill:#FFFFFF;" d="M890.422,852.784c-2.912,6.744-8.687,10.736-12.9,8.917
				c-4.213-1.819-5.268-8.76-2.356-15.504c2.912-6.744,8.687-10.736,12.9-8.917C892.279,839.099,893.334,846.04,890.422,852.784z"/>
		</g>
		<g>
			<g>
				<g>
					
						<rect x="2064.405" y="985.742" transform="matrix(0.9585 -0.2849 0.2849 0.9585 -280.1247 642.6971)" style="fill:#CFAB3D;" width="8.572" height="596.618"/>
				</g>
				<g>
					
						<rect x="1600.377" y="1279.474" transform="matrix(0.2849 -0.9586 0.9586 0.2849 127.2238 2738.0535)" style="fill:#CFAB3D;" width="596.619" height="8.572"/>
				</g>
				<path style="fill:#F9DA7C;" d="M1812.88,1583.39h341.617c1.439,0,2.606-1.167,2.606-2.606v-21.579
					c0-1.439-1.167-2.606-2.606-2.606H1812.88c-1.439,0-2.606,1.167-2.606,2.606v21.579
					C1810.274,1582.223,1811.441,1583.39,1812.88,1583.39z"/>
				<path style="fill:#FACF4C;" d="M1836.609,1605.519h294.158c9.409,0,17.036-7.627,17.036-17.036v-5.094h-328.23v5.094
					C1819.574,1597.892,1827.201,1605.519,1836.609,1605.519z"/>
				<rect x="1819.574" y="1583.39" style="opacity:0.1;" width="328.23" height="5.094"/>
			</g>
			<polygon style="fill:#8F5A48;" points="1467.988,907.143 1467.988,944.916 1968.723,1006.666 1968.723,989.551 			"/>
			<polygon style="opacity:0.1;" points="1467.988,927.858 1467.988,944.916 1968.723,1006.666 1968.723,999.937 			"/>
			
				<ellipse transform="matrix(0.9871 -0.1602 0.1602 0.9871 -134.265 330.6401)" style="fill:#8F5A48;" cx="1983.688" cy="998.109" rx="22.332" ry="22.332"/>
			
				<ellipse transform="matrix(0.4363 -0.8998 0.8998 0.4363 220.3931 2337.9878)" style="opacity:0.2;fill:#FFFFFF;" cx="1976.258" cy="993.087" rx="13.3" ry="8.309"/>
		</g>
		<g>
			<path style="fill:#9D624E;" d="M1467.988,870.189v107.452c0,3.953-2.214,7.159-4.944,7.159h-52.662
				c-2.731,0-4.944-3.206-4.944-7.159V870.189c0-3.953,2.213-7.159,4.944-7.159h52.662
				C1465.774,863.03,1467.988,866.236,1467.988,870.189z"/>
			<path style="fill:#F2BB46;" d="M1467.988,870.189v5.028h-62.55v-5.028c0-3.953,2.213-7.159,4.944-7.159h52.662
				C1465.774,863.03,1467.988,866.236,1467.988,870.189z"/>
			<path style="fill:#F2BB46;" d="M1467.988,977.641v-5.028h-62.55v5.028c0,3.953,2.213,7.159,4.944,7.159h52.662
				C1465.774,984.8,1467.988,981.594,1467.988,977.641z"/>
		</g>
		<polygon style="opacity:0.1;" points="1417.679,984.8 1455.746,984.8 1455.866,993.958 1417.559,993.958 		"/>
		<polygon style="opacity:0.1;" points="1397.014,1521.087 1395.338,1532.622 1478.845,1532.622 1477.283,1521.087 		"/>
		<path style="opacity:0.1;" d="M1609.281,1942.393h-345.138c0-3.833,0.754-7.494,2.119-10.838h340.899
			C1608.528,1934.899,1609.281,1938.56,1609.281,1942.393z"/>
		<path style="fill:#9D624E;" d="M1456.912,863.03h-40.4v-31.11c0-11.156,9.044-20.2,20.2-20.2l0,0c11.156,0,20.2,9.044,20.2,20.2
			V863.03z"/>
		<path style="opacity:0.2;fill:#FFFFFF;" d="M1438.422,833.636c-3.068,6.074-8.947,9.285-13.133,7.171
			c-4.186-2.114-5.092-8.751-2.025-14.826c3.067-6.074,8.947-9.285,13.133-7.171C1440.583,820.924,1441.49,827.562,1438.422,833.636
			z"/>
	</g>
	<g>
		<ellipse style="opacity:0.1;fill-rule:evenodd;clip-rule:evenodd;" cx="1068.121" cy="1999.519" rx="87.312" ry="8.868"/>
		<g>
			<path style="fill:#1C3665;" d="M1025.913,1930.318c5.426,6.732,13.079,7.701,16.359,7.79c4.068-8.601,8.646-18.614,12.476-27.81
				c1.865-4.482,3.553-8.766,4.916-12.601c1.182-3.32,2.118-6.307,2.721-8.786c4.775-19.687,6.266-90.373,6.266-90.373
				l14.313,73.668l-0.904,24.953l-0.514,14.14l-1.093,30.089c8.38,4.212,15.925,2.556,19.896,1.065
				c0.86-9.369,1.829-20.33,2.701-31.183c0.289-3.614,0.567-7.219,0.832-10.748c1.15-15.567,1.953-29.688,1.752-36.967
				c-0.599-21.773-14.317-87.688-15.567-106.776c-0.39-5.953,0.86-15.885,2.769-26.922l-48.627,2.44
				c-1.166,13.453-1.805,22.991-1.805,22.991c-18.791,39.073-1.491,101.109-0.302,119.602c0.233,3.618-0.756,9.168-2.496,15.752
				c-0.989,3.75-2.227,7.838-3.622,12.095C1033.055,1911.684,1029.43,1921.391,1025.913,1930.318z"/>
			<path style="fill:#282724;" d="M1122.215,1605.682c0,0,4.233-29.204-33.225-29.204c0,0-23.914,0.846-23.914,26.03
				c0,25.183-4.444,38.516-16.083,46.558c-11.639,8.042-16.083,32.167,17.142,28.146c33.225-4.021,30.758-1.124,37.165,2.751
				c14.565,8.811,10.515-0.729,13.496-12.787c0.954-3.858,6.977-9.857,5.563-15.783c-1.413-5.926-6.916-15.025-5.434-20.951
				C1118.405,1624.517,1123.042,1615.668,1122.215,1605.682z"/>
			<g>
				<path style="fill:#873D1D;" d="M1036.32,1780.796l-43.761-19.463c0,0-8.076,7.495-5.897,21.874l43.676,20.886L1036.32,1780.796z
					"/>
				<path style="fill:#6E3616;" d="M1030.586,1791.74c-1.652,6.433-1.763,11.964-0.248,12.353s4.083-4.511,5.734-10.944
					c1.652-6.433,1.763-11.964,0.248-12.353C1034.805,1780.407,1032.238,1785.307,1030.586,1791.74z"/>
			</g>
			<path style="fill:#FFF0D8;" d="M1079.09,1978.981c0,0,2.982,8.65,22.963,18.196c19.985,9.542,31.617,1.491,31.617,1.491
				c-19.683-9.249-35.789-30.423-35.789-30.423s1.097-10.881,2.468-25.793c-3.971,1.491-11.516,3.147-19.896-1.065L1079.09,1978.981
				z"/>
			<path style="fill:#FFF0D8;" d="M1110.272,1589.659c-14.45-11.134-27.007-1.692-32.674,1.588
				c-5.667,3.284-4.554,46.493-7.159,52.196c-3.726,8.147-15.459,10.619-15.459,10.619c-4.843,16.665-8.666,53.872-10.772,78.234
				l48.627-2.44c4.204-24.342,11.604-54.065,11.604-58.378c0-6.262-12.77-18.735-12.77-18.735l-1.04-19.952
				c4.227,2.876,11.302,1.455,11.302,1.455C1119.256,1618.744,1110.272,1589.659,1110.272,1589.659z"/>
			<path style="fill:#FFF0D8;" d="M1012.576,1962.28c8.055,37.879,33.108,37.578,33.108,37.578
				c-11.335-11.93-14.02-39.965-14.02-39.965s4.779-9.446,10.607-21.785c-3.28-0.088-10.933-1.057-16.359-7.79
				C1019.035,1947.79,1012.576,1962.28,1012.576,1962.28z"/>
			<path style="fill:#282724;" d="M1112.625,1587.201c0,0-7.698,21.17-26.195,15.182l-15.754,23.196c0,0-5.844-12.504-2.423-23.73
				S1083.543,1568.918,1112.625,1587.201z"/>
			<path style="fill:#FFF0D8;" d="M1078.909,1607.983c1.957,3.389,5.316,5.112,7.504,3.849c2.188-1.263,2.375-5.034,0.419-8.423
				c-1.957-3.389-5.316-5.112-7.504-3.849C1077.14,1600.823,1076.953,1604.594,1078.909,1607.983z"/>
			<path style="fill:#FFF0D8;" d="M1063.108,1681.556c0,0,9.721-22.862-14.371-24.145c0,0-32.387,51.23-33.67,54.509
				c-1.283,3.279-8.268,31.077-8.553,55.881c0,0-4.847,11.119-3.849,15.396c0.998,4.277,7.193,15.296,13.97,16.109
				c3.849,0.462-0.998-16.679-0.998-16.679s8.981,7.698,8.126,4.847c-0.855-2.851-7.27-16.536-7.27-16.536
				s4.134-46.045,10.121-53.458C1032.601,1710.067,1063.108,1681.556,1063.108,1681.556z"/>
			<path style="fill:#FFF0D8;" d="M1106.445,1671.007c0,0,7.128,8.696,1.283,40.485c-5.845,31.79-6.272,35.781-5.417,40.2
				s11.832,39.06,11.832,39.06s18.247,20.385,2.994,27.37s-15.163-24.377-15.163-24.377s-14.346-38.49-14.061-43.194
				c0.285-4.704,4.277-65.147,8.696-69.852C1101.028,1675.997,1106.445,1671.007,1106.445,1671.007z"/>
			<path style="fill:#882473;" d="M1091.671,1652.744c0,0,3.663,15.994-4.102,14.32c-7.765-1.675-17.205-23.448-17.205-23.448
				s-3.959,7.461-17.51,10.201c0,0-6.047,3.594-9.216,11.682c0,0,12.566,5.828,16.677,20.597l-16.292,14.16
				c0,0-8.831,34.106-6.852,42.937s25.832,27.863,52.731,13.246c0,0,3.756-2.588,3.908-11.115
				c0.152-8.526,13.399-38.826,14.312-57.249l4.502-4.263c0,0-0.848-14.16-8.461-20.707
				C1096.552,1656.558,1091.671,1652.744,1091.671,1652.744z"/>
			<path style="fill:#1C3665;" d="M1036.722,1983.352c0,0-11.561,9.049-22.946-23.799l-7.19,16.143l2.601,1.678l5.453-5.351
				c0,0,11.493,33.873,29.613,29.175c0,0,4.278-1.51,1.09-5.536C1042.155,1991.635,1036.722,1983.352,1036.722,1983.352z"/>
			<path style="fill:#1C3665;" d="M1118.678,1989.159c0,0-15.635,11.353-39.494-12.8c0,0-0.37,15.024,1.391,24.168
				c0,0,2.936,1.426,4.195,0.587l1.51-11.828c0,0,27.599,20.469,44.377,14.597c0,0,10.402-3.523-0.839-8.808
				C1118.578,1989.789,1118.678,1989.159,1118.678,1989.159z"/>
		</g>
	</g>
	<g>
		<ellipse style="opacity:0.1;fill-rule:evenodd;clip-rule:evenodd;" cx="669.204" cy="1998.741" rx="143.357" ry="8.728"/>
		<g>
			<path style="fill:#75401C;" d="M544.925,1943.681c0,0-13.445,8.626-13.853,13.928c-0.408,5.302,15.907,37.32,19.781,39.563
				c3.875,2.243,22.229,5.506,27.939,4.283c5.71-1.224-13.54-14.225-14.967-16.876c-1.428-2.651-4.474-22.756-4.474-22.756
				L544.925,1943.681z"/>
			<path style="fill:#2E2E2D;" d="M692.502,1773.604c0,0-28.238,75.655-52.062,111.719c-23.824,36.064-81.089,76.5-81.089,76.5
				s-14.863-5.027-14.426-18.141c0,0,28.414-28.196,34.534-38.906c6.12-10.71,7.65-23.387,29.07-35.845
				c0,0,15.518-82.678,25.136-100.79c9.617-18.112,11.366-21.476,11.366-21.476L692.502,1773.604z"/>
			<path style="fill:#DAF1FD;" d="M792.839,1604.799c-8.286,9.97-24.717,29.501-29.018,32.758
				c-5.818,4.408-45.839,27.679-45.839,27.679s-5.303,65.125-23.062,103.463c-0.781,1.691-1.588,3.328-2.419,4.905
				c0,0-33.451-5.374-67.604-22.031c0,0,0.487-1.975,1.282-5.349c4.095-17.4,16.338-72.016,11.76-84.866
				c-5.466-15.337-29.092-51.305-31.735-59.414c-1.996-6.116-3.989-30.787-4.852-42.564c-0.281-3.846-0.44-6.319-0.44-6.319
				s10.052,0.398,13.401-1.012c0,0,0.817,2.099,2.01,5.448c3.569,10.034,10.506,31.312,8.922,41.098c0,0,19.393,26.446,29.97,30.147
				c10.581,3.701,16.487,10.403,30.9,9.874c0,0,26.578,1.588,31.337,0c4.759-1.588,33.322-17.155,33.322-17.155l30.773-27.59
				C783.264,1596.46,786.709,1600.7,792.839,1604.799z"/>
			<path style="fill:#88491F;" d="M765.26,1944.927c0,0,1.308,16.662,5.466,18.783c0,0,4.837,1.018,19.178-6.958
				c0,0,15.699-2.037,21.13-6.11c5.431-4.073,12.644-10.607,11.541-11.88c-1.103-1.273-21.74,4.776-37.558-0.454L765.26,1944.927z"
				/>
			<path style="fill:#3E3E3D;" d="M624.898,1751.572c0,0-19.5,34.273,13.837,53.378c33.337,19.105,90.069,33.922,90.069,33.922
				s0.975,20.665,6.823,33.142c5.849,12.477,25.344,54.197,29.633,72.913c0,0,13.257-2.34,20.08-6.823
				c0,0-28.268-109.174-38.406-120.092s-70.573-49.873-70.573-49.873L624.898,1751.572z"/>
			<path style="fill:#E9F7FD;" d="M797.673,1598.946c0,0-1.907,2.33-4.834,5.853c-6.13-4.099-9.576-8.339-11.291-10.929l5.548-4.972
				C787.096,1588.898,791.149,1596.655,797.673,1598.946z"/>
			<path style="fill:#E9F7FD;" d="M616.324,1557.497c-6.986,1.826-12.062,2.017-14.971,1.882c-0.281-3.846-0.44-6.319-0.44-6.319
				s10.052,0.398,13.401-1.012C614.314,1552.048,615.13,1554.147,616.324,1557.497z"/>
			<path style="fill:#FED6AA;" d="M614.314,1552.048c0,0,12.833-11.585,11.105-18.043c0,0-1.729-2.547-9.095,4.274
				c0,0,2.911-19.099-9.367-17.189c-12.278,1.91-9.724,20.648-6.044,31.969C600.913,1553.061,608.301,1554.448,614.314,1552.048z"/>
			<path style="fill:#FED6AA;" d="M787.096,1588.898c0,0-0.144-19.6,3.561-19.855c3.704-0.255,3.449,8.558,3.449,8.558
				s8.047-13.284,8.814-16.222s4.854,1.277,6.387,3.577c1.533,2.299,5.876,8.352,1.022,21.803c0,0-6.404,11.307-12.654,12.188
				C797.673,1598.946,790.305,1596.746,787.096,1588.898z"/>
			<path style="fill:#75401C;" d="M694.921,1768.699c-0.781,1.691-1.588,3.328-2.419,4.905c0,0-3.108-0.497-8.393-1.662
				c-3.523-0.778-8.013-1.851-13.198-3.271c-12.566-3.435-29.203-8.901-46.013-17.098c0,0,0.487-1.975,1.282-5.349
				c6.557,3.246,25.988,12.449,46.354,18.114c4.443,1.24,8.933,2.309,13.341,3.108
				C688.943,1768.003,691.973,1768.432,694.921,1768.699z"/>
			<path style="fill:#DDDDDD;" d="M685.875,1767.445l-1.765,4.497c-3.523-0.778-8.013-1.851-13.198-3.271l1.623-4.333
				C676.977,1765.577,681.467,1766.646,685.875,1767.445z"/>
			<path style="fill:#FED6AA;" d="M701.113,1629.422c-1.564,0.963-2.911,2.691-4.042,4.68c-2.919,5.129-4.395,12.007-4.395,12.007
				c-11.193,1.472-16.787-7.756-16.787-7.756l1.404-12.227l1.347-16.63l20.119,0.609l2.334,19.157L701.113,1629.422z"/>
			<path style="fill:#B01F34;" d="M690.359,1644.902l2.738-0.517c0,0,2.647,2.262,3.656,4.506l-0.894,3.909l-6.755,0.809
				l-3.71-4.043L690.359,1644.902z"/>
			<path style="fill:#D92541;" d="M689.104,1653.61c0,0-1.982,23.319,3.398,34.747c5.373,11.412,12.174,27.013,1.052,46.865
				l2.511,11.002c0,0,7.534-5.621,10.404-8.252c0,0,4.956-27.168-2.1-40.562c-7.056-13.394-11.758-29.405-8.511-44.609
				L689.104,1653.61z"/>
			<path style="fill:#E9F7FD;" d="M693.097,1644.386c0,0,4.14,4.332,5.544,7.872c0,0,2.759-8.208-2.772-15.796
				C695.869,1636.463,694.33,1639.749,693.097,1644.386z"/>
			<path style="fill:#E9F7FD;" d="M675.889,1633.013c0,0,7.077,10.289,14.47,11.889l-5.945,9.526c0,0-11.279-10.136-12.118-18.291
				L675.889,1633.013z"/>
			<path style="opacity:0.1;" d="M701.113,1629.422c-1.564,0.963-2.911,2.691-4.042,4.68c-3.284-0.994-9.093-4.111-11.519-8.723
				l15.542,3.883L701.113,1629.422z"/>
			<path style="fill:#FED6AA;" d="M692.76,1588.005c7.705,0,14.625,1.258,16.983,7.548c2.359,6.29,2.988,30.036-5.189,37.898
				c0,0-27.048-0.944-25.003-27.362C681.595,1579.671,692.76,1588.005,692.76,1588.005z"/>
			<path style="fill:#414042;" d="M682.753,1612.526c0,0,4.121-2.885,4.121-6.903c0-4.018-1.855-10.097,4.739-10.406
				c6.594-0.309,6.491,3.091,14.115,1.855s8.14-7.006,6.697-8.552c-1.442-1.545-21.534-12.879-36.267-2.988
				c-14.734,9.891-10.715,34.104,1.133,40.595L682.753,1612.526z"/>
			<path style="fill:#FED6AA;" d="M686.116,1611.79c0,0-5.615-8.69-8.964-2.241c-3.346,6.443,8.964,11.912,8.964,11.912V1611.79z"/>
		</g>
	</g>
	<g>
		<g>
			<path style="fill:#C5764B;" d="M3497.376,1754.786h-755.145v-13.03c0-5.366,4.35-9.716,9.716-9.716h745.428V1754.786z"/>
			<path style="fill:#ED8D57;" d="M3498.481,1754.786h-300.639v-22.746h300.639c3.363,0,6.089,2.726,6.089,6.089v10.569
				C3504.57,1752.06,3501.844,1754.786,3498.481,1754.786z"/>
			<path style="fill:#DD814B;" d="M3497.376,1864.381h-744.121c-6.088,0-11.024-4.936-11.024-11.024v-11.722h755.145V1864.381z"/>
			<path style="fill:#ED8D57;" d="M3498.629,1864.381h-300.787v-22.746h300.787c3.281,0,5.941,2.66,5.941,5.941v10.864
				C3504.57,1861.721,3501.91,1864.381,3498.629,1864.381z"/>
			<rect x="2742.231" y="1754.786" style="fill:#DD814B;" width="455.611" height="86.849"/>
			<rect x="3197.842" y="1754.786" style="fill:#ED8D57;" width="23.794" height="86.849"/>
			<rect x="3221.637" y="1754.786" style="fill:#F1EFF0;" width="275.739" height="86.849"/>
			<rect x="3221.637" y="1754.786" style="opacity:0.1;" width="275.739" height="18.676"/>
		</g>
		<g>
			<g>
				
					<rect x="2781.926" y="1637.282" transform="matrix(-1 -1.224647e-16 1.224647e-16 -1 6254.2344 3285.021)" style="fill:#6356A2;" width="690.382" height="10.458"/>
				<path style="fill:#7768AB;" d="M2777.901,1647.739h412.033v-10.458h-412.033c-1.896,0-3.433,1.537-3.433,3.433v3.592
					C2774.469,1646.202,2776.006,1647.739,2777.901,1647.739z"/>
				
					<rect x="2781.95" y="1721.568" transform="matrix(-1 -1.224647e-16 1.224647e-16 -1 6254.2588 3453.5938)" style="fill:#6B5CA5;" width="690.358" height="10.458"/>
				<path style="fill:#7768AB;" d="M2777.292,1732.026h412.64v-10.458h-412.64c-1.56,0-2.824,1.264-2.824,2.824v4.81
					C2774.469,1730.761,2775.733,1732.026,2777.292,1732.026z"/>
				
					<rect x="3189.909" y="1647.762" transform="matrix(-1 -1.224647e-16 1.224647e-16 -1 6662.2153 3369.3303)" style="fill:#6B5CA5;" width="282.397" height="73.805"/>
				
					<rect x="3178.518" y="1647.762" transform="matrix(-1 -1.224647e-16 1.224647e-16 -1 6368.4263 3369.3303)" style="fill:#7768AB;" width="11.392" height="73.805"/>
				
					<rect x="2781.995" y="1647.678" transform="matrix(-1 -1.224647e-16 1.224647e-16 -1 5960.5137 3369.2466)" style="fill:#FFFFFE;" width="396.523" height="73.89"/>
				
					<rect x="2781.995" y="1647.678" transform="matrix(-1 -1.224647e-16 1.224647e-16 -1 5960.5137 3317.041)" style="opacity:0.1;" width="396.523" height="21.684"/>
			</g>
			<path style="opacity:0.1;" d="M3167.539,1690.702h-113.804c-1.24,0-2.246-1.006-2.246-2.246l0,0h118.297l0,0
				C3169.786,1689.696,3168.78,1690.702,3167.539,1690.702z"/>
			<polygon style="fill:#A2509F;" points="3103.851,1688.455 3150.384,1688.455 3150.384,1765.139 3127.117,1732.292 
				3103.851,1763.509 			"/>
		</g>
		<g>
			<g>
				<path style="fill:#C43B29;" d="M3415.03,1507.266h-581.777v-10.779c0-4.439,3.599-8.038,8.038-8.038h573.739V1507.266z"/>
				<path style="fill:#EC4024;" d="M3415.945,1507.266h-248.718v-18.818h248.718c2.782,0,5.037,2.255,5.037,5.037v8.744
					C3420.982,1505.011,3418.727,1507.266,3415.945,1507.266z"/>
				<path style="fill:#DC3E27;" d="M3415.03,1637.267h-572.657c-5.037,0-9.12-4.083-9.12-9.12v-9.698h581.777V1637.267z"/>
				<path style="fill:#EC4024;" d="M3416.067,1637.267h-248.84v-18.818h248.84c2.714,0,4.915,2.201,4.915,4.915v8.988
					C3420.982,1635.067,3418.781,1637.267,3416.067,1637.267z"/>
				<rect x="2833.253" y="1507.266" style="fill:#DC3E27;" width="333.974" height="111.183"/>
				<rect x="3167.227" y="1507.266" style="fill:#EC4024;" width="19.685" height="111.183"/>
				<rect x="3186.912" y="1507.266" style="fill:#DFEFDC;" width="228.118" height="111.183"/>
				<rect x="3186.912" y="1507.266" style="opacity:0.1;" width="228.118" height="15.451"/>
			</g>
			<rect x="2899.128" y="1488.449" style="fill:#B93727;" width="21.971" height="148.833"/>
			<rect x="2935.069" y="1488.449" style="fill:#B93727;" width="21.971" height="148.833"/>
			<rect x="3045.938" y="1488.449" style="fill:#B93727;" width="21.971" height="148.833"/>
			<rect x="3081.879" y="1488.449" style="fill:#B93727;" width="21.971" height="148.833"/>
		</g>
		<g>
			<g>
				
					<rect x="2698.446" y="1864.395" transform="matrix(-1 -1.224647e-16 1.224647e-16 -1 6246.7769 3739.2485)" style="fill:#58BC74;" width="849.884" height="10.458"/>
				<path style="fill:#77C585;" d="M2694.421,1874.853h513.882v-10.458h-513.882c-1.896,0-3.433,1.537-3.433,3.433v3.592
					C2690.989,1873.316,2692.525,1874.853,2694.421,1874.853z"/>
				
					<rect x="2698.471" y="1975.628" transform="matrix(-1 -1.224647e-16 1.224647e-16 -1 6246.8008 3961.7141)" style="fill:#69C07C;" width="849.86" height="10.458"/>
				<path style="fill:#77C585;" d="M2693.813,1986.086h514.489v-10.458h-514.489c-1.56,0-2.824,1.264-2.824,2.824v4.81
					C2690.989,1984.822,2692.253,1986.086,2693.813,1986.086z"/>
				
					<rect x="3208.278" y="1874.876" transform="matrix(-1 -1.224647e-16 1.224647e-16 -1 6756.6064 3850.5044)" style="fill:#69C07C;" width="340.05" height="100.752"/>
				
					<rect x="3196.887" y="1874.876" transform="matrix(-1 -1.224647e-16 1.224647e-16 -1 6405.165 3850.5044)" style="fill:#77C585;" width="11.391" height="100.752"/>
				
					<rect x="2698.515" y="1874.792" transform="matrix(-1 -1.224647e-16 1.224647e-16 -1 5895.4033 3850.4204)" style="fill:#FFFCFD;" width="498.372" height="100.836"/>
				
					<rect x="2698.515" y="1874.792" transform="matrix(-1 -1.224647e-16 1.224647e-16 -1 5895.4033 3771.2686)" style="opacity:0.1;" width="498.372" height="21.684"/>
			</g>
			<rect x="3254.226" y="1864.395" style="fill:#49B96D;" width="21.971" height="121.69"/>
			<rect x="3290.166" y="1864.395" style="fill:#49B96D;" width="21.971" height="121.69"/>
			<rect x="3326.531" y="1864.395" style="fill:#49B96D;" width="21.971" height="121.69"/>
			<rect x="3412.503" y="1864.395" style="fill:#49B96D;" width="21.971" height="121.69"/>
			<rect x="3448.444" y="1864.395" style="fill:#49B96D;" width="21.971" height="121.69"/>
			<rect x="3484.81" y="1864.395" style="fill:#49B96D;" width="21.971" height="121.69"/>
		</g>
	</g>
	<g>
		<path style="fill:#384CA0;" d="M2860.438,1434.664v534.128c0,9.55-7.742,17.296-17.292,17.296h-475.239v-568.719h475.239
			C2852.695,1417.369,2860.438,1425.111,2860.438,1434.664z"/>
		<rect x="2367.906" y="1417.369" style="fill:#2B3B7D;" width="32.64" height="568.719"/>
		<g>
			<rect x="2367.638" y="1518.104" style="opacity:0.3;fill:#FFFFFF;" width="32.908" height="18.1"/>
			<rect x="2367.638" y="1634.487" style="opacity:0.3;fill:#FFFFFF;" width="32.908" height="18.1"/>
			<rect x="2367.638" y="1750.87" style="opacity:0.3;fill:#FFFFFF;" width="32.908" height="18.1"/>
			<rect x="2367.638" y="1867.252" style="opacity:0.3;fill:#FFFFFF;" width="32.908" height="18.1"/>
		</g>
		<path style="fill:#4054A5;" d="M2798.206,1579.063v245.33c-46.799,0-84.738,37.938-84.738,84.734h-165.954
			c0-46.796-37.938-84.734-84.738-84.734v-245.33c46.799,0,84.738-37.938,84.738-84.737h165.954
			C2713.469,1541.125,2751.407,1579.063,2798.206,1579.063z"/>
		<g>
			<path style="fill:#FFFFFF;" d="M2533.77,1607.327h15.973v57.003h27.98v13.364h-43.953V1607.327z"/>
			<path style="fill:#FFFFFF;" d="M2604.135,1659.632l-5.011,18.062h-16.496l21.507-70.367h20.88l21.82,70.367h-17.122
				l-5.429-18.062H2604.135z M2621.988,1647.73l-4.385-14.929c-1.253-4.176-2.506-9.396-3.55-13.572h-0.209
				c-1.044,4.176-2.088,9.501-3.236,13.572l-4.176,14.929H2621.988z"/>
			<path style="fill:#FFFFFF;" d="M2661.451,1677.694l-16.704-70.367h17.018l5.324,29.024c1.566,8.352,3.028,17.435,4.176,24.534
				h0.209c1.148-7.621,2.819-16.078,4.594-24.743l5.951-28.815h16.913l5.637,29.65c1.566,8.248,2.715,15.765,3.759,23.595h0.209
				c1.044-7.83,2.61-16.078,4.072-24.43l5.742-28.815h16.182l-18.166,70.367h-17.226l-5.951-30.277
				c-1.357-7.099-2.506-13.677-3.341-21.716h-0.209c-1.253,7.935-2.401,14.616-4.072,21.716l-6.682,30.277H2661.451z"/>
		</g>
		<rect x="2533.77" y="1732.605" style="fill:#5D70B5;" width="200.762" height="2.217"/>
		<rect x="2533.77" y="1746.372" style="fill:#5D70B5;" width="200.762" height="2.217"/>
		<rect x="2533.77" y="1760.138" style="fill:#5D70B5;" width="200.762" height="2.217"/>
	</g>
	<g>
		<path style="opacity:0.1;fill-rule:evenodd;clip-rule:evenodd;" d="M3419.239,2002.287c0,2.962-39.356,5.363-87.904,5.363
			s-87.904-2.401-87.904-5.363c0-2.962,39.356-5.363,87.904-5.363S3419.239,1999.325,3419.239,2002.287z"/>
		<g>
			<g>
				<path style="fill:#540B2A;" d="M3267.54,1767.844c0,0-0.755,77.545,0,81.574c0.756,4.028,1.259,19.135,6.294,29.709
					l12.085,92.903c0,0,11.078,3.525,24.17,0c0,0-2.014-36.255,0-48.844s0-44.882-6.798-59.577c0,0,8.034-84.184,7.542-95.766
					H3267.54z"/>
				<path style="fill:#333333;" d="M3308.008,1971.022c0,0,3.924,7.288,5.232,14.016c1.308,6.728,0,13.268,0,13.268
					s-15.324,1.682-23.173,1.308c-7.849-0.374-15.324,2.056-16.632,2.429c-1.308,0.374-23.921,0.748-23.734-2.429
					c0.187-3.177,3.551-5.793,13.829-8.783c10.278-2.99,22.986-14.95,24.481-19.809H3308.008z"/>
			</g>
			<g>
				<path style="fill:#333333;" d="M3386.064,1930.502c0,0,2.407,7.22,2.407,11.071c0,3.851-2.407,30.085,0,32.492
					c2.407,2.407,14.441-0.481,17.57-29.122c0,0,7.056-10.817,6.815-17.315c-0.24-6.498-17.645-11.807-17.645-11.807
					L3386.064,1930.502z"/>
				<path style="fill:#6C0C34;" d="M3294.198,1773.973c0,0,21.265,91.976,24.629,98.883c3.364,6.907,66.983,61.438,66.983,61.438
					s13.814-10.179,11.27-19.268c0,0-26.175-25.084-30.537-33.446c-4.363-8.361-14.956-22.903-20.747-24.721
					c0,0,4.751-59.62-2.156-85.068L3294.198,1773.973z"/>
			</g>
			<path style="fill:#FEDEBB;" d="M3226.724,1684.291l-3.012,3.657c0,0-10.608-15.028-35.713-37.305c0,0,0.354-23.161-5.658-27.581
				c-6.011-4.42-2.122,11.492-2.122,11.492s-7.602-18.545-11.138-17.052c-3.536,1.493-12.729,8.565-10.785,14.223
				s3.713,16.973,17.503,27.05c0,0,26.043,53.04,49.796,51.625c0,0,9.432,0.354,19.333-14.144L3226.724,1684.291z"/>
			<path style="fill:#488DCB;" d="M3281.059,1631.393c-2.865-3.582-16.275-5.178-18.248,0c-1.973,5.178-37.217,54.479-37.217,54.479
				s14.549,3.946,16.028,17.508c0,0,31.563-36.495,36.495-45.866S3285.005,1636.325,3281.059,1631.393z"/>
			<path style="fill:#317ABF;" d="M3303.71,1618.447c6.675-0.58,16.997-4.072,45.582,12.47c0,0,5.059,12.053,0.126,37.736
				s-9.577,69.794-2.177,106.07c0,0-50.786,22.926-83.724-3.483c0,0,5.804-37.436,4.498-71.245
				c-1.306-33.809-8.416-66.457-3.482-70.81C3269.466,1624.832,3303.71,1618.447,3303.71,1618.447z"/>
			<rect x="3316.381" y="1737.05" style="fill:#6D6D6D;" width="75.351" height="56.271"/>
			<path style="fill:#8F8F8F;" d="M3317.857,1737.048v54.795c0,0.815-0.664,1.478-1.478,1.478c-0.81,0-1.474-0.664-1.474-1.478
				v-54.795H3317.857z"/>
			<path style="fill:#FEDEBB;" d="M3303.039,1561.785c-8.913-1.183-19.633-3.038-21.269,3.973
				c-1.636,7.012-4.908,35.526-2.804,38.564c2.104,3.038,13.789,11.452,26.41,1.636c12.621-9.816,15.893-33.89,12.855-36.227
				C3315.192,1567.394,3311.148,1562.861,3303.039,1561.785z"/>
			<path style="fill:#FEDEBB;" d="M3286.885,1605.438c0,0,8.002,7.612,8.393,18.737c0,0,11.134,7.026,24.011-5.27
				c0,0-4.013-8.709-4.156-26.507L3286.885,1605.438z"/>
			<path style="fill:#414042;" d="M3280.758,1559.32c0,3.392,0.338,8.212,9.899,7.762s13.499-1.125,15.861,0.787
				s4.612,4.837,3.6,7.199s-2.854,8.47,1.125,14.752c0,0,3.017,2.049,4.855,16.18c0,0,18.655-19.458,8.194-35.882
				c0,0,1.125-6.914-3.262-9.475c-4.387-2.561-9-5.711-17.942-5.936c-8.943-0.225-11.867-3.375-14.455-3.262
				C3286.045,1551.559,3280.758,1552.908,3280.758,1559.32z"/>
			<path style="fill:#FEDEBB;" d="M3308.543,1590.255c0,0,4.387-9.449,8.549-6.299c4.162,3.15-3.937,11.924-6.974,12.374
				L3308.543,1590.255z"/>
			<path style="fill:#FEDEBB;" d="M3355.584,1705.801c0,0,3.047,7.618,3.047,10.883c0,0-2.394,8.924-3.047,15.889
				c-0.653,6.965-5.224,37.22-6.53,40.485c-1.306,3.265-15.199,11.536-13.912,15.454c1.287,3.918,4.334,2.83,4.334,2.83
				s-5.186,1.741-4.334,3.7c0.852,1.959,6,4.353,11.697,3.7s15.709-4.135,16.362-18.283c0,0,17.413-55.068,16.76-63.557
				c-0.653-8.489-3.265-17.195-3.265-17.195L3355.584,1705.801z"/>
			<path style="fill:#488DCB;" d="M3338.516,1635.151c2.231-3.666,6.667-5.474,10.776-4.234c3.218,0.971,6.504,3.443,8.687,8.497
				c4.135,9.577,20.895,63.339,20.895,63.339s-14.187-2.025-23.507,5.877c0,0-16.542-42.444-19.589-55.939
				C3334,1644.821,3336.295,1638.802,3338.516,1635.151z"/>
		</g>
	</g>
	<g>
		<path style="opacity:0.1;fill-rule:evenodd;clip-rule:evenodd;" d="M2926.296,2004.382c0,2.962,34.688,5.363,77.479,5.363
			s77.479-2.401,77.479-5.363c0-2.962-34.688-5.363-77.479-5.363S2926.296,2001.421,2926.296,2004.382z"/>
		<g>
			<path style="fill:#4F4F4F;" d="M3061.046,1757.098c0,0,4.63,25.296,4.977,44.698c0.346,19.402-2.489,75.53-2.489,75.53
				s5.953,27.371,5.26,41.923c-0.693,14.552,0.056,62.398,0.056,62.398l-26.041,6.816c0,0-1.732-51.544-7.276-67.481
				c-5.543-15.938-2.443-42.962-2.443-42.962l-16.089-80.727c0,0-6.414,42.269-21.312,70.333c0,0,3.118,24.599,2.425,34.647
				c-0.693,10.048-7.276,21.481-8.315,30.143c-1.04,8.662-6.237,56.048-6.237,56.048l-23.213-6.503c0,0,3.118-94.495,4.851-117.234
				c1.732-22.739,16.947-110.386,16.947-110.386L3061.046,1757.098z"/>
			<path style="fill:#AF5628;" d="M3075.854,2002.925c0,0-4.445-24.225-11.163-24.602c-6.718-0.377-11.284-0.51-18.132,5.644
				c-6.848,6.154-12.175,18.958-12.175,18.958H3075.854z"/>
			<path style="fill:#AF5628;" d="M2983.549,1988.462c0,0,1.86,7.444,0,12.817c0,0-14.099,0.606-18.875,1.646
				c-4.776,1.04-27.163,5.219-36.417-2.243c0,0,0.597-2.797,5.373-3.936c4.776-1.139,21.172-5.154,26.705-14.788L2983.549,1988.462z
				"/>
			<path style="fill:#E6F6FD;" d="M2987.167,1625.609c0,0-37.688,23.812-46.863,25.341c-9.175,1.529-62.695,3.364-62.695,3.364
				v16.209c0,0,50.462,2.447,66.67,0c16.209-2.447,34.865-11.01,47.404-18.35C3004.222,1644.833,3002.529,1627.18,2987.167,1625.609
				z"/>
			<path style="fill:#FEDEBB;" d="M2877.61,1654.314c0,0-9.413-12.21-13.351-11.62s0.788,8.468,0.788,8.468
				s-16.739-4.122-18.512-2.553s-3.742,17.52,11.619,20.671c15.361,3.151,19.456,1.242,19.456,1.242V1654.314z"/>
			<path style="fill:#DAF1FD;" d="M3025.658,1615.7c0,0,22.395,3.905,43.813,16.343c21.418,12.438-6.247,53.266-4.908,80.708
				s4.685,39.043-1.785,43.505c-6.47,4.462-32.703,0-48.032,0c-15.329,0-33.624,0.446-35.409-4.016
				c-1.785-4.462,6.916-53.768,3.57-80.987c-3.347-27.219-0.446-44.621,6.247-46.852S3015.202,1616.794,3025.658,1615.7z"/>
			<path style="fill:#83421D;" d="M3053.539,1567.129c0,0,1.936,6.559-0.709,14.955c-2.646,8.396-10.636,19.561-13.674,22.821
				l-16.684-0.917l-6.406-44.422L3053.539,1567.129z"/>
			<path style="fill:#FEDEBB;" d="M3031.577,1561.74c-14.951-2.99-19.844,1.359-22.019,6.252c-2.175,4.893-6.796,34.251,2.99,38.6
				c9.786,4.349,26.096-4.787,31.261-22.917C3048.975,1565.546,3031.577,1561.74,3031.577,1561.74z"/>
			<path style="fill:#FEDEBB;" d="M3040.073,1583.297c0,0,7.638-3.263,9.093,0.914c1.455,4.177-5.406,12.122-10.613,10.696
				L3040.073,1583.297z"/>
			<path style="fill:#83421D;" d="M3042.477,1569.17c0,0-21.221,1.052-26.736-1.772s-14.754-12.106-9.193-18.832
				c5.561-6.725,15.979,0.673,19.11,2.556c3.131,1.883,15.181,1.883,19.11,3.363s9.309,4.842,8.771,12.644
				C3053.539,1567.129,3048.763,1568.994,3042.477,1569.17z"/>
			<path style="fill:#FEDEBB;" d="M3041.527,1592.311l-5.031,26.726c0,0-6.289,5.188-19.494,1.887v-24.997L3041.527,1592.311z"/>
			<polygon style="fill:#E6F6FD;" points="3039.37,1612.908 3022.223,1621.854 3029.203,1632.94 3043.958,1619.01 			"/>
			<polygon style="fill:#E6F6FD;" points="3017.001,1620.924 3013.035,1632.043 3012.491,1618.395 3017.001,1614.265 			"/>
			<polygon style="fill:#434343;" points="3022.223,1621.854 3017.001,1620.924 3014.267,1628.59 3016.066,1632.62 
				3023.385,1633.306 3026.923,1629.319 			"/>
			<polygon style="fill:#4F4F4F;" points="3023.385,1633.306 3025.658,1718.307 3018.482,1728.927 3011.158,1716.659 
				3016.066,1632.62 			"/>
			<polygon style="fill:#616161;" points="3148.109,1795.572 3097.744,1795.572 3097.744,1872.762 3148.109,1864.824 			"/>
			<polygon style="fill:#595A5A;" points="3097.744,1795.572 3076.537,1795.572 3076.537,1871.165 3097.744,1872.762 			"/>
			<path style="fill:#4F4F4F;" d="M3108.507,1776.639h-6.727l-2.821,18.934h-7.161l2.927-21.484
				c0.264-1.936,1.744-3.481,3.667-3.823c1.579-0.281,3.397-0.568,4.613-0.641c2.574-0.156,18.088-0.316,18.088-0.316
				s4.883,1.038,5.642,26.264h-5.968c0,0-0.022-15.896-2.615-19.476L3108.507,1776.639z"/>
			<path style="fill:#E6F6FD;" d="M3066.887,1639.095c-3.943,4.708-7.166,18.007,0,31.604c7.166,13.597,19.661,36.382,19.661,36.382
				s3.675,23.855,17.64,51.158c0,0,12.678-1.73,13.965-3.2c0,0-5.88-37.776-11.025-56.372c-5.145-18.596-17.967-48.96-25.691-57.92
				C3072.501,1630.381,3068.731,1636.894,3066.887,1639.095z"/>
			<path style="fill:#FEDEBB;" d="M3104.188,1758.239c0,0-4.382,8.191-3.517,11.651c0,0,4.378-0.042,5.459,0.282
				c0,0,2.595,5.731,0,6.271c0,0,0.324,8.434,9.948,6.92c9.624-1.514,7.501-18.481,2.075-28.325L3104.188,1758.239z"/>
		</g>
	</g>
	<g>
		<path style="fill:#D7D6D6;" d="M2743.772,1787.591h-56.403c-1.094,0-1.99-0.895-1.99-1.99l0,0c0-1.094,0.895-1.99,1.99-1.99
			h56.403c1.094,0,1.99,0.895,1.99,1.99l0,0C2745.762,1786.696,2744.867,1787.591,2743.772,1787.591z"/>
		<path style="fill:#D7D6D6;" d="M2685.936,1780.541l-12.349-65.752c-0.23-1.226-1.301-2.114-2.548-2.114h-42.658
			c-1.621,0-2.844,1.471-2.549,3.065l12.188,65.752c0.228,1.229,1.299,2.12,2.549,2.12h42.818
			C2685.012,1783.612,2686.236,1782.137,2685.936,1780.541z"/>
		<path style="fill:#E9E8E8;" d="M2684.803,1780.541l-12.349-65.752c-0.23-1.226-1.301-2.114-2.548-2.114h-42.657
			c-1.621,0-2.844,1.471-2.549,3.065l12.188,65.752c0.228,1.229,1.3,2.12,2.549,2.12h42.818
			C2683.879,1783.612,2685.103,1782.137,2684.803,1780.541z"/>
		<path style="fill:#E9E8E8;" d="M2685.753,1787.591h-46.656c-0.999,0-1.816-0.817-1.816-1.816v-0.348
			c0-0.999,0.817-1.816,1.816-1.816h46.656c0.999,0,1.816,0.817,1.816,1.816v0.348
			C2687.569,1786.774,2686.752,1787.591,2685.753,1787.591z"/>
		<path style="fill:#B7B7B8;" d="M2695.62,1786.472h-4.987c-0.51,0-0.926-0.417-0.926-0.926l0,0c0-0.509,0.417-0.926,0.926-0.926
			h4.987c0.509,0,0.926,0.417,0.926,0.926l0,0C2696.546,1786.055,2696.129,1786.472,2695.62,1786.472z"/>
		<path style="fill:#B7B7B8;" d="M2704.112,1786.472h-4.987c-0.51,0-0.926-0.417-0.926-0.926l0,0c0-0.509,0.417-0.926,0.926-0.926
			h4.987c0.509,0,0.926,0.417,0.926,0.926l0,0C2705.039,1786.055,2704.622,1786.472,2704.112,1786.472z"/>
	</g>
	<g>
		<rect x="2275.622" y="1787.591" style="fill:#9D6B29;" width="480.934" height="8.376"/>
		<rect x="2275.622" y="1791.779" style="fill:#7D551C;" width="480.934" height="4.188"/>
		<rect x="2321.064" y="1795.967" style="fill:#895B24;" width="6.654" height="201.411"/>
		<rect x="2699.547" y="1795.967" style="fill:#895B24;" width="6.654" height="201.411"/>
	</g>
	<g>
		<ellipse style="opacity:0.1;fill-rule:evenodd;clip-rule:evenodd;" cx="1821.125" cy="1994.814" rx="93.853" ry="8.728"/>
		<g>
			<path style="fill:#88491F;" d="M1741.98,1943.126c0,0-11.241,7.737-9.604,13.129c1.637,5.392,20.873,28.391,26.398,31.421
				c5.525,3.03,16.166,5.485,19.031,3.848c2.865-1.637-15.329-17.062-21.785-40.035L1741.98,1943.126z"/>
			<path style="fill:#404040;" d="M1815.431,1727.134c0,0-10.266,28.06-11.886,42.641c-1.62,14.581-11.341,70.297-11.341,70.297
				s-18.901,16.109-21.601,29.61s-18.901,58.324-28.622,73.445c0,0,8.1,9.706,14.041,8.363c0,0,58.324-94.193,63.724-103.661
				s42.837-114.546,42.837-114.546L1815.431,1727.134z"/>
			<path style="fill:#88491F;" d="M1843.335,1972.421c0,0-4.531,16.249-1.385,21.616c0,0,11.66-1.11,16.472,1.295
				c4.812,2.406,39.791,5.922,44.047,2.221c0,0-1.481-3.516-9.624-5.367s-27.174-14.917-28.485-19.766H1843.335z"/>
			<path style="fill:#4A4A4A;" d="M1884.278,1733.949c0,0-6.269,100.361-7.56,127.288c-1.292,26.927-12.358,111.183-12.358,111.183
				s-11.435,3.106-21.025,0c0,0,2.951-46.263,0-54.378c-2.951-8.115-5.164-45.739,2.582-58.281c0,0-31.796-99.556-18.167-130.725
				L1884.278,1733.949z"/>
			<path style="fill:#FEDEBB;" d="M1956.285,1507.555c0,0,9.615,14.829-10.783,22.422c0,0-34.079,41.399-37.439,43.729
				c-1.367,0.948-6.091,5.86-11.703,11.707c-3.47-10.741-8.965-15.482-12.456-17.496c4.241-3.644,7.569-6.585,8.851-8.158
				c5.246-6.45,44.003-32.967,44.88-36.175c0.874-3.207-1.169-11.074,5.828-14.864c6.993-3.786,18.942-16.608,20.689-15.443
				C1965.9,1494.442,1956.285,1507.555,1956.285,1507.555z"/>
			<path style="fill:#EE8281;" d="M1896.359,1585.413c-8.172,8.506-18.228,18.988-22.547,22.099
				c-7.285,5.246-17.837,1.165-21.74-5.246c-3.108-5.104,18.718-23.086,31.831-34.349
				C1887.395,1569.931,1892.889,1574.673,1896.359,1585.413z"/>
			<polygon style="fill:#FEDEBB;" points="1867.993,1572.829 1866.389,1579.189 1864.813,1585.437 1862.996,1592.631 
				1841.714,1589.672 1842.717,1579.454 1844.341,1569.364 			"/>
			<path style="fill:#EF5B59;" d="M1847.891,1588.283c8.895,1.598,31.998,2.888,38.698,49.903s-2.31,95.763-2.31,95.763
				s-36.272,3.119-68.848-6.816c0,0,4.043-56.949,1.848-76.587C1815.084,1630.909,1824.094,1584.009,1847.891,1588.283z"/>
			<path style="fill:#FEDEBB;" d="M1880.629,1726.72c-0.199,5.814-6.013,16.438-8.616,16.636
				c-2.607,0.202-14.026-6.614-8.517-23.047c0,0-39.986-37.681-39.986-48.105c0-3.857,1.701-9.934,4.241-16.764
				c5.445,2.231,14.665,6.407,18.608,10.552c0,0,19.574,40.888,24.518,43.292S1880.831,1720.91,1880.629,1726.72z"/>
			<path style="fill:#EE8281;" d="M1864.596,1636.328c-5.612,10.222-18.238,29.664-18.238,29.664
				c-3.943-4.145-13.163-8.322-18.608-10.552c4.323-11.628,11.074-25.431,16.001-34.143c7.818-13.83,11.426-20.042,20.845-13.83
				C1874.122,1613.749,1870.208,1626.106,1864.596,1636.328z"/>
			<path style="opacity:0.1;" d="M1866.389,1579.189l-1.576,6.248c-3.004-1.263-10.314-4.764-10.567-8.959L1866.389,1579.189z"/>
			<path style="fill:#FEDEBB;" d="M1851.915,1536.963c11.545-2.245,15.78,0.631,18.725,6.733c2.946,6.102,7.785,34.505,5.47,38.081
				c-2.314,3.577-27.982,1.473-31.77-12.413C1840.554,1555.478,1836.767,1539.908,1851.915,1536.963z"/>
			<path style="fill:#83421D;" d="M1858.836,1558.796c0,0,3.374-6.609,1.893-16.233c0,0,11.598,0.494,9.994-12.585
				c0,0-18.877,2.591-29.241,0.987s-17.52,19.37-7.65,32.942c9.87,13.572,8.883,15.546,8.883,15.546
				S1859.04,1579.347,1858.836,1558.796z"/>
			<path style="fill:#FEDEBB;" d="M1862.087,1556.504c0,0-3.948-6.416-7.526-2.591c-3.578,3.825,2.468,10.857,7.526,10.981V1556.504
				z"/>
		</g>
	</g>
	<g>
		<ellipse style="opacity:0.1;fill-rule:evenodd;clip-rule:evenodd;" cx="2192.656" cy="1994.814" rx="56.783" ry="8.728"/>
		<g>
			<path style="fill:#FED6AA;" d="M2176.012,1880.89c0.671,9.213,10.336,94.381,6.965,98.874c4.688,7.132,15.987,3.147,15.987,3.147
				s-0.419-26.066,0-34.157s4.237-55.731-2.728-66.514l2.728-31.685h-24.301C2174.662,1850.554,2175.337,1871.677,2176.012,1880.89z
				"/>
			<path style="fill:#6F1F5F;" d="M2153.987,1999.764c0.899,2.248,42.536,2.021,44.976-4.72c2.44-6.741,0-12.133,0-12.133
				s-11.298,3.985-15.987-3.147C2179.606,1984.257,2153.089,1997.516,2153.987,1999.764z"/>
			<path style="fill:#FED6AA;" d="M2220.299,1847.344c0,0,1.316,19.082,0,24.565c0,0,5.411,14.442,5.411,23.873
				s-1.901,48.067-0.147,63.201c0,0-4.606,4.606-11.844,3.29c0,0-11.989-78.52-13.671-84.88c-1.682-6.361-3.656-28.293-3.656-28.293
				L2220.299,1847.344z"/>
			<path style="fill:#6F1F5F;" d="M2225.563,1958.982c0,0,4.491,7.271,3.891,9.844s-10.989,13.741-16.305,17.857
				c-5.316,4.116-11.469,5.488-12.766,4.116c-1.296-1.372,3.505-8.917,4.963-11.575s8.373-16.951,8.373-16.951L2225.563,1958.982z"
				/>
			<path style="fill:#FED6AA;" d="M2221.633,1637.919c8.644,7.068,30.47,70.756,27.536,78.679
				c-2.935,7.923-26.031,48.447-26.031,48.447l-14.172-9.631c0,0,23.378-35.507,22.497-42.257s-24.845-51.727-26.606-59.943
				C2203.098,1644.997,2210.823,1629.08,2221.633,1637.919z"/>
			<path style="fill:#157CB3;" d="M2224.549,1732.866c0,0,8.414,16.787,8.003,32.179c-0.411,15.392-10.678,60.569-9.652,85.211
				c0,0-24.642,7.393-49.079,3.08c0,0-15.013-93.035-5.042-121.574L2224.549,1732.866z"/>
			<path style="fill:#FED6AA;" d="M2188.412,1563.353c-8.448-0.445-18.842,8.46-18.458,19.995
				c0.299,8.965,0.127,21.787,0.036,27.058c-0.024,1.363,1.07,2.483,2.433,2.484c5.156,0.007,16.777-0.885,19.449-8.848
				C2195.334,1593.731,2203.024,1564.122,2188.412,1563.353z"/>
			<path style="fill:#1590D0;" d="M2197.008,1620.666c-10.86-1.388-23.542-3.594-34.57,9.089c-11.028,12.682-3.033,35.014,0,44.388
				c3.033,9.374,8.822,35.565,6.341,57.621c0,0,32.69,10.477,55.77,1.103c0,0,7.641-90.705-7.523-102.56
				C2201.863,1618.451,2197.008,1620.666,2197.008,1620.666z"/>
			<path style="fill:#FED6AA;" d="M2176.15,1642.336c6.176-10.748-33.615-40.463-39.218-53.225
				c-5.603-12.761-24.589-47.082-25.212-52.373c-0.623-5.291,0.934-16.185-8.404-23.967c0,0-9.96-17.741-12.761-16.808
				s5.291,19.609,5.291,19.609s-6.536,10.271-3.113,16.497c3.424,6.225,8.404,9.338,8.404,9.338s12.761,43.969,20.543,58.598
				C2129.462,1614.635,2163.605,1664.168,2176.15,1642.336z"/>
			<path style="fill:#5A4735;" d="M2195.467,1558.99c-5.55-0.351-19.316,3.456-22.295,7.967c-2.98,4.511,3.069,14.755,5.77,22.064
				c2.701,7.309-5.681,28.284-2.999,31.144c2.681,2.86,12.374,8.104,14.281,15.572c1.907,7.468,5.879,42.267,22.881,44.015
				c17.002,1.748,13.576-54.132,7.963-62.432c-6.142-9.082,1.412-36.561-3.196-44.505
				C2213.263,1564.869,2208.02,1559.784,2195.467,1558.99z"/>
		</g>
	</g>
	<g>
		<ellipse style="opacity:0.1;" cx="2404.822" cy="1997.401" rx="125.113" ry="8.131"/>
		<g>
			<path style="fill:#E8D6C1;" d="M2368.458,1744.216c0,0,0.72-18.401-4.348-21.524c-10.202-6.287-20.948,0.354-9.839,21.524
				H2368.458z"/>
			<path style="fill:#171717;" d="M2364.929,1976.449l4.005,18.528c0.233,1.078-0.588,2.095-1.691,2.095h-50.161
				c-1.871,0-2.413-2.56-0.699-3.312c8.118-3.565,27.95-9.674,32.21-16.657c0.286-0.469,0.774-0.777,1.322-0.827l13.169-1.185
				C2363.953,1975.014,2364.745,1975.596,2364.929,1976.449z"/>
			<path style="fill:#171717;" d="M2412.041,1955.967l12.462,14.284c0.725,0.831,0.498,2.119-0.468,2.652l-43.912,24.247
				c-1.638,0.905-3.349-1.075-2.213-2.562c5.383-7.045,19.792-21.979,20.145-30.151c0.024-0.549,0.302-1.055,0.758-1.363
				l10.955-7.403C2410.492,1955.182,2411.467,1955.309,2412.041,1955.967z"/>
			<path style="fill:#0E374C;" d="M2500.118,1837.858c0,0,1.922,47.379-115.19,61.37l33.649,60.954l-26.142,10.73l-37.077-78.243
				l-2.275-16.186L2500.118,1837.858z"/>
			<path style="fill:#194967;" d="M2430.419,1831.601l-81.929,23.669c-9.165,2.648-15.074,11.53-13.976,21.006l11.745,101.355
				c0,0,14.558,4.669,22.291-2.215l-7.733-90.178c0,0,133.596,16.852,139.721-48.576L2430.419,1831.601z"/>
			<path style="fill:#E8D6C1;" d="M2420.253,1650.402c0,0-6.927,30.418,7.378,41.863c0,0,4.389,0.753,9.875-1.807l3.076,14.456
				l23.341-1.807l-5.722-46.983l-11.294-15.962h-17.167L2420.253,1650.402z"/>
			<path style="fill:#7C471D;" d="M2419.801,1657.329c0,0-7.228-8.132,0-14.908c0,0-1.656-15.811,24.545-10.842
				c0,0,12.95-1.807,17.769,7.228c0,0,14.005,20.781,0,48.338c0,0-25.599,4.969-28.159-15.209c0,0,0.301-10.966-6.927-12.786
				C2427.029,1659.149,2422.964,1660.792,2419.801,1657.329z"/>
			<g>
				<path style="fill:#333333;" d="M2468.303,1907.647c0,3.622-7.61,8.432-16.702,8.432s-16.224-4.81-16.224-8.432
					s7.131-4.685,16.224-4.685S2468.303,1904.025,2468.303,1907.647z"/>
				<path style="fill:#099ECB;" d="M2487.848,1902.089h-72.015c-6.979,0-12.69-5.71-12.69-12.69l0,0c0-6.979,5.71-12.69,12.69-12.69
					h72.015c6.979,0,12.69,5.71,12.69,12.69l0,0C2500.538,1896.378,2494.828,1902.089,2487.848,1902.089z"/>
				<path style="fill:#333333;" d="M2488.961,1907.647h-72.349c-1.368,0-2.488-1.12-2.488-2.488v-0.583
					c0-1.368,1.119-2.488,2.488-2.488h72.349c1.368,0,2.488,1.12,2.488,2.488v0.583
					C2491.449,1906.528,2490.329,1907.647,2488.961,1907.647z"/>
				<path style="fill:#333333;" d="M2451.997,1967.612L2451.997,1967.612c-2.266,0-4.12-1.854-4.12-4.12v-48.956
					c0-2.266,1.854-4.12,4.12-4.12l0,0c2.266,0,4.121,1.854,4.121,4.12v48.956
					C2456.118,1965.758,2454.263,1967.612,2451.997,1967.612z"/>
				<path style="fill:#333333;" d="M2483.781,1986.329l-32.249-18.619c-1.845-1.065-2.483-3.446-1.418-5.291l0,0
					c1.065-1.845,3.446-2.483,5.291-1.418l32.249,18.619c1.845,1.065,2.483,3.446,1.418,5.291l0,0
					C2488.007,1986.756,2485.625,1987.395,2483.781,1986.329z"/>
				<path style="fill:#333333;" d="M2420.125,1986.329l32.249-18.619c1.845-1.065,2.483-3.446,1.418-5.291l0,0
					c-1.065-1.845-3.447-2.483-5.292-1.418l-32.249,18.619c-1.845,1.065-2.483,3.446-1.418,5.291l0,0
					C2415.898,1986.756,2418.279,1987.395,2420.125,1986.329z"/>
				
					<ellipse transform="matrix(0.7071 -0.7071 0.7071 0.7071 -674.7324 2343.0796)" style="fill:#333333;" cx="2490.981" cy="1986.014" rx="11.059" ry="11.059"/>
				<path style="fill:#606161;" d="M2497.484,1986.263c0,3.454-2.8,6.253-6.253,6.253s-6.253-2.8-6.253-6.253s2.8-6.253,6.253-6.253
					S2497.484,1982.81,2497.484,1986.263z"/>
				
					<ellipse transform="matrix(0.7071 -0.7071 0.7071 0.7071 -696.9609 2290.0723)" style="fill:#333333;" cx="2415.881" cy="1986.342" rx="11.059" ry="11.059"/>
				<path style="fill:#606161;" d="M2422.135,1986.342c0,3.454-2.8,6.253-6.253,6.253s-6.253-2.8-6.253-6.253s2.8-6.253,6.253-6.253
					S2422.135,1982.889,2422.135,1986.342z"/>
			</g>
			<path style="fill:#F6892E;" d="M2435.252,1706.246l1.052-6.184c0,0,15.961-7.439,32.798-3.457l2.631,6.263
				c0,0,49.68,2.951,28.384,134.989c0,0-38.76,20.87-75.815-5.537c0,0-9.371-94.947-11.074-115.622L2435.252,1706.246z"/>
			<path style="fill:#F6892E;" d="M2413.228,1716.698c0,0-41.21,59.813-32.846,78.792c0,0,4.705,9.007,15.863,3.86
				C2407.403,1794.204,2440.606,1744.06,2413.228,1716.698z"/>
			<path style="fill:#099ECB;" d="M2511.526,1805.64h-57.296c-5.208,0-9.469-4.261-9.469-9.468v-57.296
				c0-5.208,4.261-9.468,9.469-9.468h57.296c5.208,0,9.469,4.261,9.469,9.468v57.296
				C2520.995,1801.379,2516.734,1805.64,2511.526,1805.64z"/>
			<path style="fill:#0987A6;" d="M2514.641,1805.64h-57.296c-5.208,0-9.468-4.261-9.468-9.468v-57.296
				c0-5.208,4.261-9.468,9.468-9.468h57.296c5.208,0,9.468,4.261,9.468,9.468v57.296
				C2524.109,1801.379,2519.849,1805.64,2514.641,1805.64z"/>
			
				<ellipse transform="matrix(0.1602 -0.9871 0.9871 0.1602 343.9845 3942.6294)" style="fill:#333333;" cx="2488.994" cy="1769.162" rx="16.722" ry="16.722"/>
			<g>
				<path style="fill:#333333;" d="M2453.215,1910.279l-1.375-2.632l-1.399-2.617c0.088-0.048,8.93-5.049,17.7-24.115
					c8.159-17.738,17.885-51.524,17.885-111.752h5.937C2491.963,1888.661,2454.797,1909.452,2453.215,1910.279z"/>
			</g>
			<path style="fill:#F6892E;" d="M2382.937,1798.487l-28.845-54.969c0,0,4.527-8.252,12.575-4.983l36.476,39.304L2382.937,1798.487
				z"/>
		</g>
	</g>
	<g>
		<ellipse style="opacity:0.1;" cx="2745.181" cy="1997.401" rx="125.113" ry="8.131"/>
		<g>
			<g>
				<path style="fill:#E8D6C1;" d="M2668.421,1911.628c0,0-11.515,14.421-25.182,12.806c0,0-1.399,8.071,7.748,9.686
					c9.147,1.614,22.062,0,22.062,0l12.161-17.219L2668.421,1911.628z"/>
				<path style="fill:#911A1D;" d="M2643.239,1924.435c0,0-22.922-0.969-27.55-3.444c0,0-4.52-0.43,1.399,6.242
					c5.919,6.672,26.117,18.51,45.774,15.389l-1.759,9.147l3.083,1.507l9.209-19.646
					C2673.394,1933.63,2657.229,1938.317,2643.239,1924.435z"/>
			</g>
			<g>
				<path style="fill:#A86730;" d="M2767.64,1650.419c0,0-7.668-16.391,12.037-20.258s29.281,10.313,32.228,21.362
					c0,0,23.756-6.261,26.15,23.02c0,0,46.592,17.495,4.236,58.378l-32.78-9.828l-18.232-57.205l-17.679-12.339L2767.64,1650.419z"
					/>
				<path style="fill:#E8D6C1;" d="M2768.199,1640.133c0,0-4.173,25.62,10.014,44.257c0,0,10.292-3.338,13.074,0
					c1.391,1.669,3.794,6.432,5.463,10.605c0,0-3.209,1.358-3.166,1.745c0.326,2.911,0.352,2.664,0.352,2.664l24.055-4.896
					c0,0-11.405-20.967-12.795-34.875c-1.391-13.908-5.563-25.87-18.081-24.062
					C2774.597,1637.381,2768.199,1640.133,2768.199,1640.133z"/>
				<path style="fill:#A86730;" d="M2785.503,1646.164c0,0,20,16.729,26.792,33.584l8.302-14.214l-17.547-18.616l-16.289-8.427
					L2785.503,1646.164z"/>
				<path style="fill:#A86730;" d="M2768.199,1640.133c0,0,2.089,23.314,39.838,28.937l-1.48-24.423l-10.066-9.622l-10.988-2.221
					l-11.44,1.924L2768.199,1640.133z"/>
			</g>
			<g>
				<path style="fill:#333333;" d="M2858.154,1900.741h-50.06v-6.865h49.993c1.4-0.037,28.139-1.176,28.139-32.731
					c0-16.535-5.132-22.968-10.564-29.778c-6.005-7.527-12.214-15.31-12.214-34.723h6.866c0,17.01,5.205,23.535,10.715,30.442
					c5.931,7.434,12.063,15.121,12.063,34.059c0,20.037-9.502,29.772-17.473,34.41c-8.558,4.98-17.076,5.18-17.435,5.186
					L2858.154,1900.741z"/>
			</g>
			<path style="fill:#E8D6C1;" d="M2761.081,1931.928c0,0,16.621,33.43,9.496,39.55c-7.465,6.412-20.626,1.789-20.626,1.789
				s3.379-12.918-4.77-37.761L2761.081,1931.928z"/>
			<path style="fill:#923F20;" d="M2770.577,1813.588l-58.972,44.101c0,0,30.845,75.486,31.385,89.825
				c0,0,15.416-1.082,23.535-7.305l-21.642-68.181l82.526-12.814l-2.982-33.993l-17.857-13.798L2770.577,1813.588z"/>
			<path style="fill:#E8D6C1;" d="M2728.501,1777.14c0,0-2.902,4.677-14.453,3.18c0,0-10.173,1.283-13.418,4.474
				c0,0-0.958-0.041,1.346-3.023s9.491-13.262,22.694-10.581l5.705,2.115L2728.501,1777.14z"/>
			<path style="fill:#911A1D;" d="M2725.202,1771.387c0,0,3.427,2.54,2.899,6.384c0,0,35.695,8.604,39.292,8.038
				c3.597-0.567,23.775-23.465,23.775-23.465l-16.13-12.404c0,0-5.635,22.379-10.85,23.4
				C2758.974,1774.359,2725.202,1771.387,2725.202,1771.387z"/>
			<path style="fill:#194967;" d="M2796.75,1694.995c0,0-1.253,7.403,19.631-2.836l15.543,24.935c0,0-4.972,57.374-2.762,68.741
				c2.21,11.367,7.735,33.65,7.735,33.65s-56.905,6.814-66.297-3.867l8.103-45.157l-1.105-43.423l6.445-19.705L2796.75,1694.995z"/>
			<path style="fill:#BB3026;" d="M2796.727,1694.995c0,0-17.679,16.493-15.654,68.374c2.026,51.881-11.786,54.459-11.786,54.459
				l-2.762-1.289c0,0,11.234-40.031,9.024-61.451C2773.339,1733.668,2770.761,1704.756,2796.727,1694.995z"/>
			<path style="fill:#E8D6C1;" d="M2769.29,1790.57c0,0-6.348,4.648-20.858-3.514c0,0-14.17-3.741-20.178-1.247
				c0,0-1.247-0.567,3.401-3.287c4.648-2.721,19.672-12.503,35.739-1.887l6.431,5.854L2769.29,1790.57z"/>
			<path style="fill:#A04A23;" d="M2836.874,1819.486l-126.508,2.104c-1.389,0.023-2.639,0.845-3.209,2.111
				c-6.006,13.325-39.211,86.453-45.604,88.912l22.456,15.692l34.277-75.409c0,0,95.591,15.075,112.907,4.794
				C2853.262,1844.584,2836.874,1819.486,2836.874,1819.486z"/>
			<path style="fill:#911A1D;" d="M2750.375,1970.649c0,0-10.362,20.106-18.908,25.274c0,0-1.789,2.981,5.366,1.193
				c7.155-1.789,35.657-20.073,35.657-20.073l5.022,9.875l2.447-1.44l-7.718-21.551
				C2772.243,1963.925,2770.448,1970.848,2750.375,1970.649z"/>
			<path style="fill:#BB3026;" d="M2816.599,1691.841c0,0-23.808,9.228-23.808,61.668s-4.504,80.752-4.504,80.752
				s34.689-19.519,54.451-8.151c0,0-10.267-26.382-7.264-49.761s10.883-59.396,0.353-70.508
				C2825.298,1694.73,2816.599,1691.841,2816.599,1691.841z"/>
			<path style="fill:#911A1D;" d="M2831.362,1703.361c0,0,28.978,6.925-6.561,100.418c0,0-12.575,4.374-56.679-12.393
				c0,0,2.916-6.561-0.729-10.753l38.636,5.467c0,0,14.398-26.062,7.29-67.067
				C2813.32,1719.034,2820.427,1703.726,2831.362,1703.361z"/>
			<g>
				<path style="fill:#333333;" d="M2826.239,1895.243c0,3.992-8.388,9.294-18.409,9.294c-10.021,0-17.881-5.302-17.881-9.294
					c0-3.992,7.86-5.163,17.881-5.163C2817.851,1890.08,2826.239,1891.251,2826.239,1895.243z"/>
				<path style="fill:#099ECB;" d="M2847.78,1889.116h-79.372c-7.692,0-13.986-6.294-13.986-13.986v0
					c0-7.692,6.294-13.986,13.986-13.986h79.372c7.693,0,13.986,6.294,13.986,13.986v0
					C2861.766,1882.823,2855.472,1889.116,2847.78,1889.116z"/>
				<path style="fill:#333333;" d="M2849.007,1895.243h-79.74c-1.508,0-2.742-1.234-2.742-2.742v-0.643
					c0-1.508,1.234-2.742,2.742-2.742h79.74c1.508,0,2.742,1.234,2.742,2.742v0.643
					C2851.749,1894.009,2850.515,1895.243,2849.007,1895.243z"/>
				<path style="fill:#333333;" d="M2808.267,1965.561v-0.52c-2.498,0-4.542-2.044-4.542-4.541v-57.664
					c0-2.498,2.044-4.541,4.542-4.541l0,0c2.498,0,4.542,2.044,4.542,4.541v57.664
					C2812.808,1962.997,2810.764,1965.561,2808.267,1965.561z"/>
				<path style="fill:#333333;" d="M2843.297,1986.082l-35.543-20.521c-2.033-1.174-2.737-3.798-1.563-5.832l0,0
					c1.174-2.033,3.799-2.737,5.832-1.563l35.543,20.521c2.033,1.174,2.737,3.798,1.563,5.832l0,0
					C2847.955,1986.553,2845.33,1987.256,2843.297,1986.082z"/>
				<path style="fill:#333333;" d="M2773.138,1986.082l35.543-20.521c2.034-1.174,2.737-3.798,1.563-5.832l0,0
					c-1.174-2.033-3.798-2.737-5.832-1.563l-35.543,20.521c-2.033,1.174-2.737,3.798-1.563,5.832l0,0
					C2768.48,1986.553,2771.104,1987.256,2773.138,1986.082z"/>
				
					<ellipse transform="matrix(0.1602 -0.9871 0.9871 0.1602 434.4218 4482.0708)" style="fill:#333333;" cx="2851.233" cy="1985.734" rx="12.189" ry="12.189"/>
				<path style="fill:#606161;" d="M2858.125,1985.734c0,3.806-3.086,6.892-6.892,6.892s-6.892-3.086-6.892-6.892
					s3.086-6.892,6.892-6.892S2858.125,1981.928,2858.125,1985.734z"/>
				
					<ellipse transform="matrix(0.2298 -0.9732 0.9732 0.2298 199.5047 4223.5537)" style="fill:#333333;" cx="2768.099" cy="1985.734" rx="12.189" ry="12.189"/>
				<path style="fill:#606161;" d="M2774.991,1985.734c0,3.806-3.086,6.892-6.892,6.892s-6.892-3.086-6.892-6.892
					s3.086-6.892,6.892-6.892S2774.991,1981.928,2774.991,1985.734z"/>
			</g>
			<path style="fill:#0987A6;" d="M2893.004,1746.211c-3.322,9.942-11.408,39.628-0.354,66.655c0.705,1.723-0.565,3.61-2.427,3.61
				h-30.064c-0.916,0-1.77-0.474-2.241-1.26c-2.667-4.452-9.835-21.872,0.437-70.379c0.257-1.213,1.328-2.084,2.567-2.084h29.596
				C2892.311,1742.754,2893.572,1744.51,2893.004,1746.211z"/>
			<path style="fill:#099ECB;" d="M2886.715,1746.774c-3.398,10.379-10.903,39.106-0.417,65.473
				c0.806,2.026-0.664,4.229-2.845,4.229h-29.139c-1.093,0-2.111-0.576-2.654-1.525c-2.769-4.841-9.453-22.43,0.517-69.757
				c0.299-1.421,1.555-2.44,3.007-2.44h28.61C2885.882,1742.754,2887.365,1744.79,2886.715,1746.774z"/>
		</g>
	</g>
	<g>
		<ellipse style="opacity:0.1;" cx="1353.27" cy="2001.738" rx="96.844" ry="11.087"/>
		<g>
			<g>
				<path style="fill:#1E1E1E;" d="M1376.376,1989.152c0,0,15.435,4.397,24.503-2.82c0,0,13.99,14.665,28.98,15.775
					c0,0,2.591,2.776,0,3.331c-2.591,0.555-32.016,1.666-37.568-2.406c0,0-8.844,3.639-15.915-0.74
					C1372.497,1999.889,1376.376,1989.152,1376.376,1989.152z"/>
				<path style="fill:#1E1E1E;" d="M1331.978,1988.33c0,0-15.036,4.283-23.87-2.748c0,0-13.629,14.286-28.231,15.367
					c0,0-2.524,2.704,0,3.245c2.524,0.541,31.189,1.623,36.597-2.344c0,0,8.616,3.545,15.504-0.721
					C1335.757,1998.789,1331.978,1988.33,1331.978,1988.33z"/>
				<path style="fill:#6F0F10;" d="M1314.868,1783.629l-8.345,203.02c0,0,16.723,7.826,25.532,1.798l5.479-85.198l17.403-77.429
					l29.352,76.038l-8.346,87.526c0,0,20.761,4.378,26.887-3.053l9.922-90.204c0.254-2.344,0.106-4.714-0.438-7.009l-23.287-98.234
					C1389.028,1790.885,1335.857,1799.857,1314.868,1783.629z"/>
				<path style="fill:#F2E0CE;" d="M1358.672,1640.833c3.522-0.083,6.479-1.375,8.951-3.368l-0.953,24.381h-23.179l-3.055-28.63
					C1344.176,1637.123,1350.086,1641.036,1358.672,1640.833z"/>
				<path style="fill:#F4E6CF;" d="M1368.372,1618.264l-0.659,16.865c-2.302,2.716-5.428,4.37-9.629,4.37
					c-9.663,0-15.245-6.412-18.47-13.98l-0.889-8.329L1368.372,1618.264z"/>
				<path style="fill:#F2E0CE;" d="M1367.713,1635.13c-2.302,2.716-5.428,4.37-9.629,4.37c-9.663,0-15.245-6.412-18.47-13.98
					c-4.645-10.909-4.392-24.219-4.392-24.219l3.997-3.794l7.436-7.059l24.742-3.036c0,0,2.144,10.864,2.223,22.667
					C1373.687,1619.519,1372.433,1629.558,1367.713,1635.13z"/>
				<path style="fill:#E2CDBB;" d="M1367.713,1635.13l-0.09,2.336c-2.471,1.993-5.428,3.285-8.951,3.368
					c-8.585,0.203-14.496-3.711-18.237-7.617l-0.821-7.696c3.225,7.568,8.807,13.98,18.47,13.98
					C1362.284,1639.5,1365.411,1637.846,1367.713,1635.13z"/>
				<path style="fill:#F2E0CE;" d="M1367.713,1635.13c-2.302,2.716-5.428,4.37-9.629,4.37c-9.663,0-15.245-6.412-18.47-13.98
					c-4.645-10.909-4.392-24.219-4.392-24.219l3.997-3.794l34.401,12.571C1373.687,1619.519,1372.433,1629.558,1367.713,1635.13z"/>
				<path style="fill:#3A3A3A;" d="M1339.706,1597.652c0,0,29.151,8.09,40.842-12.096c0,0-19.047-7.985-29.579-7.985
					c-10.531,0-16.575,11.355-16.575,11.355s-14.471,8.763,5.492,39.166L1339.706,1597.652z"/>
				<path style="fill:#F2E0CE;" d="M1340.833,1608.036c2.087,2.961,2.302,6.402,0.479,7.686c-1.822,1.284-4.991-0.075-7.078-3.036
					c-2.087-2.961-2.302-6.402-0.479-7.686C1335.578,1603.715,1338.746,1605.074,1340.833,1608.036z"/>
				<path style="fill:#F6892E;" d="M1341.586,1644.004l-5.549,6.415l-21.17,5.858v134.608c0,0,40.742,12.782,74.161,0v-133.942
					l-17.575-5.193l-3.831-6.125l-13.202,12.649L1341.586,1644.004z"/>
				<path style="fill:#F6892E;" d="M1437.246,1725.939l-14.469,11.347c0,0-3.752,2.678-6.434,0
					c-2.678-2.682-27.315-37.916-27.315-37.916v-42.429c0,0,3.827,2.37,13.965,19.039c10.134,16.666,20.761,33.429,20.761,33.429
					l5.135-2.931C1429.919,1711.971,1432.209,1719.249,1437.246,1725.939z"/>
				<path style="fill:#F6892E;" d="M1314.868,1656.278v39.404c0,0-28.136,21.182-28.637,36.36c-0.087,2.58,0.742,5.425,2.17,8.37
					c-7.609,3.609-12.492,7.414-15.626,10.766c-0.075-0.098-0.147-0.192-0.222-0.29c-13.509-17.679-7.173-32.521-7.173-32.521
					C1277.89,1688.344,1314.868,1656.278,1314.868,1656.278z"/>
				<path style="fill:#F2E0CE;" d="M1489.345,1674.613c0,0,2.094,12.722-4.581,19.397c0,0-5.067,2.339-10.039,2.535l-37.479,29.395
					c-5.037-6.69-7.327-13.968-8.359-19.461l34.631-19.777c0,0,5.067-21.152,19.589-15.89c0,0,19.348-13.109,21.152-11.305
					C1506.06,1661.311,1489.345,1674.613,1489.345,1674.613z"/>
			</g>
			<polygon style="fill:#E2E9F1;" points="1353.405,1657.145 1344.23,1666.007 1336.037,1650.418 1341.586,1644.004 			"/>
			<polygon style="fill:#E2E9F1;" points="1355.429,1657.307 1363.419,1666.964 1371.453,1651.75 1367.622,1645.625 			"/>
			<g>
				<g>
					
						<rect x="1490.693" y="1625.469" transform="matrix(0.6239 0.7815 -0.7815 0.6239 1856.0022 -551.3691)" style="fill:#F6892E;" width="20.328" height="54.355"/>
					<path style="fill:#1D4463;" d="M1719.77,1477.878c-44.773-56.083-126.531-65.25-182.613-20.477s-65.25,126.53-20.477,182.613
						c44.773,56.083,126.53,65.25,182.613,20.477C1755.375,1615.718,1764.543,1533.961,1719.77,1477.878z M1526.673,1632.036
						c-40.366-50.563-32.1-124.276,18.462-164.642c50.563-40.366,124.276-32.1,164.642,18.462
						c40.366,50.563,32.1,124.276-18.462,164.642C1640.752,1690.865,1567.039,1682.599,1526.673,1632.036z"/>
					<circle style="opacity:0.5;fill:#9EDCF2;" cx="1618.225" cy="1558.946" r="117.149"/>
					<path style="fill:#1D4463;" d="M1490.135,1679.908l-164.791,131.56c-4.495,3.589-11.109,2.849-14.698-1.646l-5.19-6.501
						c-3.589-4.495-2.845-11.109,1.651-14.698l164.791-131.56c2.726-2.177,6.229-2.761,9.365-1.877l12.777,16.005
						C1494.207,1674.445,1492.862,1677.731,1490.135,1679.908z"/>
				</g>
				
					<rect x="1295.499" y="1719.466" transform="matrix(0.7815 -0.6239 0.6239 0.7815 -776.2541 1251.6462)" style="fill:#1D4463;" width="206.702" height="29.232"/>
			</g>
			<path style="fill:#F2E0CE;" d="M1324.756,1796.565c-8.514,1.695-15.679-10.981-15.679-10.981s-22.765-16.831-36.304-34.405
				c3.134-3.353,8.016-7.157,15.626-10.766c6.98,14.383,28.351,31.158,28.351,31.158l10.842,5.172
				C1338.435,1781.911,1333.27,1794.87,1324.756,1796.565z"/>
		</g>
	</g>
</g>
</svg>
